<svg width="283" height="98" viewBox="0 0 283 98" fill="none" xmlns="http://www.w3.org/2000/svg">
<rect x="0.398438" y="0.712891" width="282.069" height="96.3048" rx="2" fill="#D9A165"/>
<path d="M92.9064 40.3882V53.4922H89.3304V40.3882H92.9064ZM91.1304 35.2522C91.6584 35.2522 92.1144 35.3802 92.4984 35.6362C92.8824 35.8762 93.0744 36.3322 93.0744 37.0042C93.0744 37.6602 92.8824 38.1162 92.4984 38.3722C92.1144 38.6282 91.6584 38.7562 91.1304 38.7562C90.5864 38.7562 90.1224 38.6282 89.7384 38.3722C89.3704 38.1162 89.1864 37.6602 89.1864 37.0042C89.1864 36.3322 89.3704 35.8762 89.7384 35.6362C90.1224 35.3802 90.5864 35.2522 91.1304 35.2522ZM103.963 40.1482C104.139 40.1482 104.347 40.1562 104.587 40.1722C104.827 40.1882 105.019 40.2122 105.163 40.2442L104.899 43.6042C104.787 43.5722 104.619 43.5482 104.395 43.5322C104.187 43.5002 104.003 43.4842 103.843 43.4842C103.379 43.4842 102.931 43.5482 102.499 43.6762C102.067 43.7882 101.675 43.9722 101.323 44.2282C100.987 44.4842 100.715 44.8282 100.507 45.2602C100.315 45.6762 100.219 46.1962 100.219 46.8202V53.4922H96.6429V40.3882H99.3549L99.8829 42.5962H100.051C100.307 42.1482 100.627 41.7402 101.011 41.3722C101.395 41.0042 101.835 40.7082 102.331 40.4842C102.843 40.2602 103.387 40.1482 103.963 40.1482ZM119.152 40.1242C120.912 40.1242 122.256 40.5082 123.184 41.2762C124.128 42.0282 124.6 43.1882 124.6 44.7562V53.4922H122.104L121.408 51.7162H121.312C120.944 52.1802 120.56 52.5642 120.16 52.8682C119.776 53.1722 119.328 53.3882 118.816 53.5162C118.32 53.6602 117.704 53.7322 116.968 53.7322C116.2 53.7322 115.504 53.5882 114.88 53.3002C114.272 52.9962 113.792 52.5402 113.44 51.9322C113.088 51.3082 112.912 50.5242 112.912 49.5802C112.912 48.1882 113.4 47.1642 114.376 46.5082C115.352 45.8362 116.816 45.4682 118.768 45.4042L121.048 45.3322V44.7562C121.048 44.0682 120.864 43.5642 120.496 43.2442C120.144 42.9242 119.648 42.7642 119.008 42.7642C118.368 42.7642 117.744 42.8602 117.136 43.0522C116.528 43.2282 115.92 43.4522 115.312 43.7242L114.136 41.3002C114.84 40.9322 115.616 40.6442 116.464 40.4362C117.328 40.2282 118.224 40.1242 119.152 40.1242ZM119.656 47.4682C118.504 47.5002 117.704 47.7082 117.256 48.0922C116.808 48.4762 116.584 48.9802 116.584 49.6042C116.584 50.1482 116.744 50.5402 117.064 50.7802C117.384 51.0042 117.8 51.1162 118.312 51.1162C119.08 51.1162 119.728 50.8922 120.256 50.4442C120.784 49.9802 121.048 49.3322 121.048 48.5002V47.4202L119.656 47.4682ZM131.836 53.4922H128.26V35.2522H131.836V53.4922ZM150.951 49.6042C150.951 50.4842 150.743 51.2362 150.327 51.8602C149.911 52.4682 149.287 52.9322 148.455 53.2522C147.623 53.5722 146.591 53.7322 145.359 53.7322C144.447 53.7322 143.663 53.6682 143.007 53.5402C142.351 53.4282 141.695 53.2362 141.039 52.9642V50.0122C141.743 50.3322 142.503 50.5962 143.319 50.8042C144.135 51.0122 144.855 51.1162 145.479 51.1162C146.183 51.1162 146.679 51.0122 146.967 50.8042C147.271 50.5962 147.423 50.3242 147.423 49.9882C147.423 49.7642 147.359 49.5642 147.231 49.3882C147.119 49.2122 146.863 49.0122 146.463 48.7882C146.063 48.5642 145.439 48.2762 144.591 47.9242C143.775 47.5722 143.103 47.2282 142.575 46.8922C142.047 46.5402 141.655 46.1242 141.399 45.6442C141.143 45.1482 141.015 44.5322 141.015 43.7962C141.015 42.5802 141.487 41.6682 142.431 41.0602C143.375 40.4522 144.631 40.1482 146.199 40.1482C147.015 40.1482 147.791 40.2282 148.527 40.3882C149.263 40.5482 150.023 40.8122 150.807 41.1802L149.727 43.7482C149.295 43.5562 148.879 43.3882 148.479 43.2442C148.079 43.1002 147.687 42.9882 147.303 42.9082C146.935 42.8282 146.551 42.7882 146.151 42.7882C145.623 42.7882 145.223 42.8602 144.951 43.0042C144.695 43.1482 144.567 43.3642 144.567 43.6522C144.567 43.8602 144.631 44.0522 144.759 44.2282C144.903 44.3882 145.167 44.5642 145.551 44.7562C145.951 44.9482 146.535 45.2042 147.303 45.5242C148.055 45.8282 148.703 46.1482 149.247 46.4842C149.791 46.8042 150.207 47.2122 150.495 47.7082C150.799 48.1882 150.951 48.8202 150.951 49.6042ZM165.761 40.3882V53.4922H163.025L162.545 51.8122H162.353C162.081 52.2602 161.729 52.6282 161.297 52.9162C160.881 53.1882 160.417 53.3882 159.905 53.5162C159.393 53.6602 158.865 53.7322 158.321 53.7322C157.393 53.7322 156.577 53.5642 155.873 53.2282C155.169 52.8922 154.625 52.3722 154.241 51.6682C153.857 50.9642 153.665 50.0522 153.665 48.9322V40.3882H157.241V48.0442C157.241 48.9722 157.409 49.6762 157.745 50.1562C158.081 50.6362 158.617 50.8762 159.353 50.8762C160.089 50.8762 160.657 50.7082 161.057 50.3722C161.473 50.0362 161.761 49.5482 161.921 48.9082C162.097 48.2682 162.185 47.4842 162.185 46.5562V40.3882H165.761ZM176.806 40.1482C178.278 40.1482 179.47 40.7242 180.382 41.8762C181.294 43.0122 181.75 44.6922 181.75 46.9162C181.75 48.4042 181.534 49.6602 181.102 50.6842C180.67 51.6922 180.078 52.4522 179.326 52.9642C178.574 53.4762 177.702 53.7322 176.71 53.7322C176.086 53.7322 175.542 53.6522 175.078 53.4922C174.63 53.3322 174.246 53.1242 173.926 52.8682C173.606 52.6122 173.326 52.3402 173.086 52.0522H172.894C172.958 52.3562 173.006 52.6762 173.038 53.0122C173.07 53.3322 173.086 53.6522 173.086 53.9722V59.2522H169.51V40.3882H172.414L172.918 42.0922H173.086C173.326 41.7402 173.614 41.4202 173.95 41.1322C174.286 40.8282 174.686 40.5882 175.15 40.4122C175.63 40.2362 176.182 40.1482 176.806 40.1482ZM175.654 43.0042C175.03 43.0042 174.534 43.1322 174.166 43.3882C173.798 43.6442 173.526 44.0362 173.35 44.5642C173.19 45.0762 173.102 45.7242 173.086 46.5082V46.8922C173.086 47.7402 173.166 48.4602 173.326 49.0522C173.486 49.6282 173.758 50.0682 174.142 50.3722C174.526 50.6762 175.046 50.8282 175.702 50.8282C176.246 50.8282 176.694 50.6762 177.046 50.3722C177.398 50.0682 177.662 49.6202 177.838 49.0282C178.014 48.4362 178.102 47.7162 178.102 46.8682C178.102 45.5882 177.902 44.6282 177.502 43.9882C177.118 43.3322 176.502 43.0042 175.654 43.0042ZM190.098 40.1482C191.314 40.1482 192.354 40.3802 193.218 40.8442C194.098 41.3082 194.778 41.9802 195.258 42.8602C195.738 43.7402 195.978 44.8202 195.978 46.1002V47.8282H187.53C187.562 48.8362 187.858 49.6282 188.418 50.2042C188.994 50.7802 189.786 51.0682 190.794 51.0682C191.642 51.0682 192.41 50.9882 193.098 50.8282C193.786 50.6522 194.498 50.3882 195.234 50.0362V52.7962C194.594 53.1162 193.914 53.3482 193.194 53.4922C192.49 53.6522 191.634 53.7322 190.626 53.7322C189.314 53.7322 188.154 53.4922 187.146 53.0122C186.138 52.5162 185.346 51.7722 184.77 50.7802C184.194 49.7882 183.906 48.5402 183.906 47.0362C183.906 45.5002 184.162 44.2282 184.674 43.2202C185.202 42.1962 185.93 41.4282 186.858 40.9162C187.786 40.4042 188.866 40.1482 190.098 40.1482ZM190.122 42.6922C189.434 42.6922 188.858 42.9162 188.394 43.3642C187.946 43.8122 187.682 44.5082 187.602 45.4522H192.618C192.618 44.9242 192.522 44.4522 192.33 44.0362C192.154 43.6202 191.882 43.2922 191.514 43.0522C191.146 42.8122 190.682 42.6922 190.122 42.6922ZM206.197 40.1482C206.373 40.1482 206.581 40.1562 206.821 40.1722C207.061 40.1882 207.253 40.2122 207.397 40.2442L207.133 43.6042C207.021 43.5722 206.853 43.5482 206.629 43.5322C206.421 43.5002 206.237 43.4842 206.077 43.4842C205.613 43.4842 205.165 43.5482 204.733 43.6762C204.301 43.7882 203.909 43.9722 203.557 44.2282C203.221 44.4842 202.949 44.8282 202.741 45.2602C202.549 45.6762 202.453 46.1962 202.453 46.8202V53.4922H198.877V40.3882H201.589L202.117 42.5962H202.285C202.541 42.1482 202.861 41.7402 203.245 41.3722C203.629 41.0042 204.069 40.7082 204.565 40.4842C205.077 40.2602 205.621 40.1482 206.197 40.1482Z" fill="black"/>
</svg>
