<svg width="346" height="332" viewBox="0 0 346 332" fill="none" xmlns="http://www.w3.org/2000/svg">
<rect x="155" width="32" height="332" fill="#FFBE5E"/>
<rect width="346" height="116" rx="28" fill="#FFBE5E"/>
<rect x="23" y="16" width="295" height="82" fill="#FFCF87"/>
<path d="M126 48.72L121.14 63H117.84L113 48.72H116.06L118.74 57.22C118.793 57.3667 118.867 57.64 118.96 58.04C119.067 58.4267 119.173 58.84 119.28 59.28C119.387 59.7067 119.46 60.0667 119.5 60.36C119.54 60.0667 119.607 59.7067 119.7 59.28C119.807 58.84 119.913 58.4267 120.02 58.04C120.127 57.64 120.2 57.3667 120.24 57.22L122.94 48.72H126ZM137.097 57.52C137.097 58.4267 136.971 59.2333 136.717 59.94C136.477 60.6467 136.124 61.2467 135.657 61.74C135.204 62.22 134.651 62.5867 133.997 62.84C133.344 63.08 132.604 63.2 131.777 63.2C131.017 63.2 130.311 63.08 129.657 62.84C129.017 62.5867 128.464 62.22 127.997 61.74C127.531 61.2467 127.164 60.6467 126.897 59.94C126.644 59.2333 126.517 58.4267 126.517 57.52C126.517 56.3067 126.731 55.2867 127.157 54.46C127.584 53.62 128.197 52.98 128.997 52.54C129.797 52.1 130.744 51.88 131.837 51.88C132.864 51.88 133.771 52.1 134.557 52.54C135.344 52.98 135.964 53.62 136.417 54.46C136.871 55.2867 137.097 56.3067 137.097 57.52ZM129.557 57.52C129.557 58.24 129.631 58.8467 129.777 59.34C129.937 59.82 130.184 60.1867 130.517 60.44C130.851 60.68 131.284 60.8 131.817 60.8C132.351 60.8 132.777 60.68 133.097 60.44C133.431 60.1867 133.671 59.82 133.817 59.34C133.977 58.8467 134.057 58.24 134.057 57.52C134.057 56.8 133.977 56.2 133.817 55.72C133.671 55.24 133.431 54.88 133.097 54.64C132.764 54.4 132.331 54.28 131.797 54.28C131.011 54.28 130.437 54.5533 130.077 55.1C129.731 55.6333 129.557 56.44 129.557 57.52ZM142.54 63H139.56V47.8H142.54V63ZM148.254 63L144.094 52.08H147.214L149.314 58.3C149.394 58.54 149.46 58.7933 149.514 59.06C149.58 59.3267 149.627 59.5867 149.654 59.84C149.694 60.0933 149.72 60.3267 149.734 60.54H149.814C149.827 60.3133 149.854 60.0733 149.894 59.82C149.934 59.5667 149.98 59.3133 150.034 59.06C150.1 58.7933 150.174 58.54 150.254 58.3L152.354 52.08H155.474L151.314 63H148.254ZM161.54 51.88C162.554 51.88 163.42 52.0733 164.14 52.46C164.874 52.8467 165.44 53.4067 165.84 54.14C166.24 54.8733 166.44 55.7733 166.44 56.84V58.28H159.4C159.427 59.12 159.674 59.78 160.14 60.26C160.62 60.74 161.28 60.98 162.12 60.98C162.827 60.98 163.467 60.9133 164.04 60.78C164.614 60.6333 165.207 60.4133 165.82 60.12V62.42C165.287 62.6867 164.72 62.88 164.12 63C163.534 63.1333 162.82 63.2 161.98 63.2C160.887 63.2 159.92 63 159.08 62.6C158.24 62.1867 157.58 61.5667 157.1 60.74C156.62 59.9133 156.38 58.8733 156.38 57.62C156.38 56.34 156.594 55.28 157.02 54.44C157.46 53.5867 158.067 52.9467 158.84 52.52C159.614 52.0933 160.514 51.88 161.54 51.88ZM161.56 54C160.987 54 160.507 54.1867 160.12 54.56C159.747 54.9333 159.527 55.5133 159.46 56.3H163.64C163.64 55.86 163.56 55.4667 163.4 55.12C163.254 54.7733 163.027 54.5 162.72 54.3C162.414 54.1 162.027 54 161.56 54ZM174.957 51.88C175.104 51.88 175.277 51.8867 175.477 51.9C175.677 51.9133 175.837 51.9333 175.957 51.96L175.737 54.76C175.644 54.7333 175.504 54.7133 175.317 54.7C175.144 54.6733 174.99 54.66 174.857 54.66C174.47 54.66 174.097 54.7133 173.737 54.82C173.377 54.9133 173.05 55.0667 172.757 55.28C172.477 55.4933 172.25 55.78 172.077 56.14C171.917 56.4867 171.837 56.92 171.837 57.44V63H168.857V52.08H171.117L171.557 53.92H171.697C171.91 53.5467 172.177 53.2067 172.497 52.9C172.817 52.5933 173.184 52.3467 173.597 52.16C174.024 51.9733 174.477 51.88 174.957 51.88ZM187.614 51.86C189.081 51.86 190.201 52.18 190.974 52.82C191.761 53.4467 192.154 54.4133 192.154 55.72V63H190.074L189.494 61.52H189.414C189.108 61.9067 188.788 62.2267 188.454 62.48C188.134 62.7333 187.761 62.9133 187.334 63.02C186.921 63.14 186.408 63.2 185.794 63.2C185.154 63.2 184.574 63.08 184.054 62.84C183.548 62.5867 183.148 62.2067 182.854 61.7C182.561 61.18 182.414 60.5267 182.414 59.74C182.414 58.58 182.821 57.7267 183.634 57.18C184.448 56.62 185.668 56.3133 187.294 56.26L189.194 56.2V55.72C189.194 55.1467 189.041 54.7267 188.734 54.46C188.441 54.1933 188.028 54.06 187.494 54.06C186.961 54.06 186.441 54.14 185.934 54.3C185.428 54.4467 184.921 54.6333 184.414 54.86L183.434 52.84C184.021 52.5333 184.668 52.2933 185.374 52.12C186.094 51.9467 186.841 51.86 187.614 51.86ZM188.034 57.98C187.074 58.0067 186.408 58.18 186.034 58.5C185.661 58.82 185.474 59.24 185.474 59.76C185.474 60.2133 185.608 60.54 185.874 60.74C186.141 60.9267 186.488 61.02 186.914 61.02C187.554 61.02 188.094 60.8333 188.534 60.46C188.974 60.0733 189.194 59.5333 189.194 58.84V57.94L188.034 57.98ZM203 63L198.84 52.08H201.96L204.06 58.3C204.14 58.54 204.207 58.7933 204.26 59.06C204.327 59.3267 204.373 59.5867 204.4 59.84C204.44 60.0933 204.467 60.3267 204.48 60.54H204.56C204.573 60.3133 204.6 60.0733 204.64 59.82C204.68 59.5667 204.727 59.3133 204.78 59.06C204.847 58.7933 204.92 58.54 205 58.3L207.1 52.08H210.22L206.06 63H203ZM216.287 51.88C217.3 51.88 218.167 52.0733 218.887 52.46C219.62 52.8467 220.187 53.4067 220.587 54.14C220.987 54.8733 221.187 55.7733 221.187 56.84V58.28H214.147C214.173 59.12 214.42 59.78 214.887 60.26C215.367 60.74 216.027 60.98 216.867 60.98C217.573 60.98 218.213 60.9133 218.787 60.78C219.36 60.6333 219.953 60.4133 220.567 60.12V62.42C220.033 62.6867 219.467 62.88 218.867 63C218.28 63.1333 217.567 63.2 216.727 63.2C215.633 63.2 214.667 63 213.827 62.6C212.987 62.1867 212.327 61.5667 211.847 60.74C211.367 59.9133 211.127 58.8733 211.127 57.62C211.127 56.34 211.34 55.28 211.767 54.44C212.207 53.5867 212.813 52.9467 213.587 52.52C214.36 52.0933 215.26 51.88 216.287 51.88ZM216.307 54C215.733 54 215.253 54.1867 214.867 54.56C214.493 54.9333 214.273 55.5133 214.207 56.3H218.387C218.387 55.86 218.307 55.4667 218.147 55.12C218 54.7733 217.773 54.5 217.467 54.3C217.16 54.1 216.773 54 216.307 54ZM229.703 51.88C229.85 51.88 230.023 51.8867 230.223 51.9C230.423 51.9133 230.583 51.9333 230.703 51.96L230.483 54.76C230.39 54.7333 230.25 54.7133 230.063 54.7C229.89 54.6733 229.736 54.66 229.603 54.66C229.216 54.66 228.843 54.7133 228.483 54.82C228.123 54.9133 227.796 55.0667 227.503 55.28C227.223 55.4933 226.996 55.78 226.823 56.14C226.663 56.4867 226.583 56.92 226.583 57.44V63H223.603V52.08H225.863L226.303 53.92H226.443C226.656 53.5467 226.923 53.2067 227.243 52.9C227.563 52.5933 227.93 52.3467 228.343 52.16C228.77 51.9733 229.223 51.88 229.703 51.88Z" fill="black"/>
</svg>
