<svg width="994" height="276" viewBox="0 0 994 276" fill="none" xmlns="http://www.w3.org/2000/svg">
<path d="M0 99C0 60.3401 31.3401 29 70 29H768V238H70C31.3401 238 0 206.66 0 168V99Z" fill="#FDE8A2"/>
<g filter="url(#filter0_d_1141_250)">
<circle cx="856" cy="134" r="134" fill="#FDE8A2"/>
</g>
<path d="M800.722 174.5H805.342C808.302 174.5 810.512 175.44 811.972 177.32C813.432 179.2 814.162 182.04 814.162 185.84C814.162 187.86 813.882 189.71 813.322 191.39C812.782 193.07 811.912 194.43 810.712 195.47C809.512 196.49 807.982 197 806.122 197H800.722V174.5ZM805.732 193.49C807.252 193.49 808.302 192.84 808.882 191.54C809.482 190.22 809.782 188.6 809.782 186.68V185.66C809.782 184.28 809.692 183.06 809.512 182C809.352 180.92 808.962 179.99 808.342 179.21C807.742 178.41 806.832 178.01 805.612 178.01H805.102V193.49H805.732ZM822.433 197.39C820.433 197.39 818.903 196.6 817.843 195.02C816.783 193.42 816.253 191.3 816.253 188.66C816.253 185.98 816.793 183.85 817.873 182.27C818.953 180.69 820.523 179.9 822.583 179.9C824.543 179.9 826.043 180.69 827.083 182.27C828.123 183.85 828.643 185.98 828.643 188.66C828.643 188.82 828.613 188.94 828.553 189.02C828.493 189.08 828.463 189.12 828.463 189.14H820.453C820.453 190.44 820.623 191.63 820.963 192.71C821.303 193.77 821.823 194.3 822.523 194.3C823.303 194.3 823.883 193.85 824.263 192.95C824.643 192.05 824.843 191.58 824.863 191.54L828.043 192.74C827.623 194.18 826.953 195.32 826.033 196.16C825.113 196.98 823.913 197.39 822.433 197.39ZM824.503 186.71C824.503 185.51 824.343 184.56 824.023 183.86C823.703 183.16 823.203 182.81 822.523 182.81C822.183 182.81 821.853 182.98 821.533 183.32C821.213 183.66 820.953 184.13 820.753 184.73C820.553 185.33 820.453 185.99 820.453 186.71H824.503ZM831.184 180.47L835.384 180.11V182.84C835.984 181.98 836.724 181.29 837.604 180.77C838.504 180.23 839.644 179.96 841.024 179.96V184.07C840.304 184.07 839.354 184.2 838.174 184.46C837.014 184.7 836.084 185.13 835.384 185.75V196.82L831.184 197.18V180.47ZM848.683 197.39C846.683 197.39 845.153 196.6 844.093 195.02C843.033 193.42 842.503 191.3 842.503 188.66C842.503 185.98 843.043 183.85 844.123 182.27C845.203 180.69 846.773 179.9 848.833 179.9C850.793 179.9 852.293 180.69 853.333 182.27C854.373 183.85 854.893 185.98 854.893 188.66C854.893 188.82 854.863 188.94 854.803 189.02C854.743 189.08 854.713 189.12 854.713 189.14H846.703C846.703 190.44 846.873 191.63 847.213 192.71C847.553 193.77 848.073 194.3 848.773 194.3C849.553 194.3 850.133 193.85 850.513 192.95C850.893 192.05 851.093 191.58 851.113 191.54L854.293 192.74C853.873 194.18 853.203 195.32 852.283 196.16C851.363 196.98 850.163 197.39 848.683 197.39ZM850.753 186.71C850.753 185.51 850.593 184.56 850.273 183.86C849.953 183.16 849.453 182.81 848.773 182.81C848.433 182.81 848.103 182.98 847.783 183.32C847.463 183.66 847.203 184.13 847.003 184.73C846.803 185.33 846.703 185.99 846.703 186.71H850.753ZM862.654 197.39C861.374 197.39 860.274 196.99 859.354 196.19C858.454 195.39 857.774 194.33 857.314 193.01C856.854 191.69 856.624 190.26 856.624 188.72C856.624 187.2 856.844 185.77 857.284 184.43C857.744 183.09 858.434 182 859.354 181.16C860.274 180.32 861.404 179.9 862.744 179.9C863.764 179.9 864.674 180.16 865.474 180.68C866.294 181.18 866.934 181.89 867.394 182.81C867.854 183.73 868.104 184.78 868.144 185.96L864.154 186.14C864.154 186.06 864.114 185.74 864.034 185.18C863.974 184.62 863.824 184.16 863.584 183.8C863.364 183.44 863.074 183.26 862.714 183.26C861.914 183.26 861.404 183.81 861.184 184.91C860.964 185.99 860.854 187.21 860.854 188.57C860.854 189.91 860.964 191.13 861.184 192.23C861.424 193.31 861.974 193.85 862.834 193.85C863.914 193.85 864.474 192.79 864.514 190.67L868.054 191.06C867.794 193.14 867.274 194.72 866.494 195.8C865.714 196.86 864.434 197.39 862.654 197.39ZM870.794 175.04L874.994 174.5V182.27C876.714 180.69 878.324 179.9 879.824 179.9C880.884 179.9 881.744 180.29 882.404 181.07C883.084 181.83 883.424 182.86 883.424 184.16V196.82L879.224 197.18V185.69C879.224 184.95 879.084 184.4 878.804 184.04C878.544 183.68 878.194 183.5 877.754 183.5C877.394 183.5 877.014 183.59 876.614 183.77C876.214 183.95 875.674 184.24 874.994 184.64V196.82L870.794 197.18V175.04ZM892.456 197.39C890.436 197.39 888.876 196.59 887.776 194.99C886.696 193.39 886.156 191.26 886.156 188.6C886.156 185.96 886.696 183.85 887.776 182.27C888.856 180.69 890.416 179.9 892.456 179.9C894.476 179.9 896.036 180.69 897.136 182.27C898.256 183.85 898.816 185.96 898.816 188.6C898.816 191.24 898.256 193.37 897.136 194.99C896.036 196.59 894.476 197.39 892.456 197.39ZM892.456 194.27C893.356 194.27 893.936 193.72 894.196 192.62C894.456 191.52 894.586 190.17 894.586 188.57C894.586 186.97 894.456 185.62 894.196 184.52C893.936 183.42 893.356 182.87 892.456 182.87C891.556 182.87 890.986 183.39 890.746 184.43C890.506 185.47 890.386 186.74 890.386 188.24C890.386 190.08 890.506 191.55 890.746 192.65C890.986 193.73 891.556 194.27 892.456 194.27ZM906.713 197.39C905.053 197.39 903.713 197.02 902.693 196.28C901.673 195.52 901.013 194.47 900.713 193.13L903.983 192.05C904.063 192.43 904.213 192.77 904.433 193.07C904.893 193.73 905.563 194.06 906.443 194.06C906.943 194.06 907.423 193.95 907.883 193.73C908.343 193.51 908.573 193.17 908.573 192.71C908.573 192.09 908.143 191.61 907.283 191.27L903.743 189.83C902.803 189.43 902.083 188.83 901.583 188.03C901.083 187.23 900.833 186.25 900.833 185.09C900.833 184.01 901.093 183.08 901.613 182.3C902.153 181.52 902.853 180.93 903.713 180.53C904.593 180.11 905.533 179.9 906.533 179.9C907.793 179.9 908.953 180.27 910.013 181.01C911.073 181.73 911.783 182.72 912.143 183.98L908.663 185.06C908.583 184.72 908.443 184.38 908.243 184.04C907.803 183.36 907.243 183.02 906.563 183.02C906.063 183.02 905.633 183.14 905.273 183.38C904.913 183.6 904.733 183.93 904.733 184.37C904.733 184.89 905.223 185.37 906.203 185.81L909.203 187.04C910.263 187.54 911.093 188.17 911.693 188.93C912.293 189.69 912.593 190.71 912.593 191.99C912.593 193.15 912.313 194.14 911.753 194.96C911.193 195.76 910.463 196.37 909.563 196.79C908.663 197.19 907.713 197.39 906.713 197.39ZM801.331 218.04L805.531 217.5V225.27C807.251 223.69 808.861 222.9 810.361 222.9C811.421 222.9 812.281 223.29 812.941 224.07C813.621 224.83 813.961 225.86 813.961 227.16V239.82L809.761 240.18V228.69C809.761 227.95 809.621 227.4 809.341 227.04C809.081 226.68 808.731 226.5 808.291 226.5C807.931 226.5 807.551 226.59 807.151 226.77C806.751 226.95 806.211 227.24 805.531 227.64V239.82L801.331 240.18V218.04ZM821.133 240.39C820.033 240.39 819.133 240.01 818.433 239.25C817.733 238.47 817.383 237.43 817.383 236.13V223.47L821.583 223.11V234.42C821.583 235.22 821.713 235.8 821.973 236.16C822.233 236.5 822.633 236.67 823.173 236.67C823.593 236.67 824.043 236.57 824.523 236.37C825.003 236.15 825.433 235.81 825.813 235.35V223.47L830.043 223.11V239.82L825.813 240.18V238.02C825.113 238.82 824.343 239.42 823.503 239.82C822.683 240.2 821.893 240.39 821.133 240.39ZM833.675 223.47L837.785 223.11V225.27C838.405 224.55 839.115 223.98 839.915 223.56C840.735 223.12 841.545 222.9 842.345 222.9C843.605 222.9 844.435 223.78 844.835 225.54C846.155 223.78 847.635 222.9 849.275 222.9C850.355 222.9 851.125 223.33 851.585 224.19C852.045 225.05 852.275 226.33 852.275 228.03V239.82L848.135 240.18V228.24C848.135 227.7 848.035 227.28 847.835 226.98C847.635 226.66 847.405 226.5 847.145 226.5C846.725 226.5 846.325 226.62 845.945 226.86C845.585 227.08 845.275 227.36 845.015 227.7V239.82L840.905 240.18V228.21C840.905 227.65 840.815 227.23 840.635 226.95C840.475 226.65 840.285 226.5 840.065 226.5C839.665 226.5 839.255 226.62 838.835 226.86C838.415 227.1 838.065 227.38 837.785 227.7V239.82L833.675 240.18V223.47ZM858.554 240.39C857.834 240.39 857.184 240.17 856.604 239.73C856.024 239.27 855.574 238.66 855.254 237.9C854.934 237.12 854.774 236.25 854.774 235.29C854.774 233.11 855.514 231.58 856.994 230.7C858.494 229.8 860.234 229.29 862.214 229.17C862.214 228.09 862.144 227.29 862.004 226.77C861.864 226.25 861.524 225.99 860.984 225.99C860.524 225.99 860.174 226.17 859.934 226.53C859.694 226.89 859.544 227.35 859.484 227.91L855.374 227.19C855.574 225.65 856.204 224.55 857.264 223.89C858.324 223.23 859.564 222.9 860.984 222.9C862.804 222.9 864.164 223.38 865.064 224.34C865.984 225.3 866.444 226.55 866.444 228.09V236.82C866.444 237.76 866.594 238.76 866.894 239.82L862.784 240.18L862.304 238.11C861.944 238.75 861.414 239.29 860.714 239.73C860.014 240.17 859.294 240.39 858.554 240.39ZM860.504 237.39C860.844 237.39 861.124 237.31 861.344 237.15C861.584 236.99 861.874 236.73 862.214 236.37V231.69C861.214 231.69 860.414 231.96 859.814 232.5C859.214 233.04 858.914 233.88 858.914 235.02C858.914 235.78 859.044 236.37 859.304 236.79C859.584 237.19 859.984 237.39 860.504 237.39ZM869.915 223.47L874.115 223.11V225.27C874.975 224.51 875.815 223.93 876.635 223.53C877.475 223.11 878.245 222.9 878.945 222.9C880.005 222.9 880.865 223.29 881.525 224.07C882.205 224.83 882.545 225.86 882.545 227.16V239.82L878.345 240.18V228.75C878.345 227.25 877.835 226.5 876.815 226.5C876.475 226.5 876.095 226.6 875.675 226.8C875.275 227 874.755 227.29 874.115 227.67V239.82L869.915 240.18V223.47ZM891.577 240.39C889.557 240.39 887.997 239.59 886.897 237.99C885.817 236.39 885.277 234.26 885.277 231.6C885.277 228.96 885.817 226.85 886.897 225.27C887.977 223.69 889.537 222.9 891.577 222.9C893.597 222.9 895.157 223.69 896.257 225.27C897.377 226.85 897.937 228.96 897.937 231.6C897.937 234.24 897.377 236.37 896.257 237.99C895.157 239.59 893.597 240.39 891.577 240.39ZM891.577 237.27C892.477 237.27 893.057 236.72 893.317 235.62C893.577 234.52 893.707 233.17 893.707 231.57C893.707 229.97 893.577 228.62 893.317 227.52C893.057 226.42 892.477 225.87 891.577 225.87C890.677 225.87 890.107 226.39 889.867 227.43C889.627 228.47 889.507 229.74 889.507 231.24C889.507 233.08 889.627 234.55 889.867 235.65C890.107 236.73 890.677 237.27 891.577 237.27ZM905.834 240.39C904.174 240.39 902.834 240.02 901.814 239.28C900.794 238.52 900.134 237.47 899.834 236.13L903.104 235.05C903.184 235.43 903.334 235.77 903.554 236.07C904.014 236.73 904.684 237.06 905.564 237.06C906.064 237.06 906.544 236.95 907.004 236.73C907.464 236.51 907.694 236.17 907.694 235.71C907.694 235.09 907.264 234.61 906.404 234.27L902.864 232.83C901.924 232.43 901.204 231.83 900.704 231.03C900.204 230.23 899.954 229.25 899.954 228.09C899.954 227.01 900.214 226.08 900.734 225.3C901.274 224.52 901.974 223.93 902.834 223.53C903.714 223.11 904.654 222.9 905.654 222.9C906.914 222.9 908.074 223.27 909.134 224.01C910.194 224.73 910.904 225.72 911.264 226.98L907.784 228.06C907.704 227.72 907.564 227.38 907.364 227.04C906.924 226.36 906.364 226.02 905.684 226.02C905.184 226.02 904.754 226.14 904.394 226.38C904.034 226.6 903.854 226.93 903.854 227.37C903.854 227.89 904.344 228.37 905.324 228.81L908.324 230.04C909.384 230.54 910.214 231.17 910.814 231.93C911.414 232.69 911.714 233.71 911.714 234.99C911.714 236.15 911.434 237.14 910.874 237.96C910.314 238.76 909.584 239.37 908.684 239.79C907.784 240.19 906.834 240.39 905.834 240.39Z" fill="black"/>
<path d="M47.33 166.232V183.295H45.0683V166.232H47.33ZM59.33 170.615H61.2987V183.025C61.2987 184.143 61.0722 185.096 60.619 185.885C60.1659 186.674 59.5331 187.271 58.7206 187.678C57.9159 188.092 56.9862 188.299 55.9315 188.299C55.494 188.299 54.9784 188.229 54.3847 188.088C53.7987 187.955 53.2206 187.725 52.6503 187.396C52.0878 187.076 51.6151 186.643 51.2323 186.096L52.369 184.807C52.9003 185.447 53.455 185.893 54.0331 186.143C54.619 186.393 55.1972 186.518 55.7675 186.518C56.455 186.518 57.0487 186.389 57.5487 186.131C58.0487 185.873 58.4355 185.49 58.7089 184.982C58.9901 184.482 59.1308 183.865 59.1308 183.131V173.404L59.33 170.615ZM50.5995 177.096V176.85C50.5995 175.881 50.7128 175.002 50.9394 174.213C51.1737 173.416 51.5058 172.732 51.9355 172.162C52.373 171.592 52.9003 171.154 53.5175 170.85C54.1347 170.537 54.83 170.381 55.6034 170.381C56.4003 170.381 57.0956 170.521 57.6894 170.803C58.2909 171.076 58.7987 171.479 59.2128 172.01C59.6347 172.533 59.9667 173.166 60.2089 173.908C60.4511 174.65 60.619 175.49 60.7128 176.428V177.506C60.6269 178.436 60.4589 179.271 60.2089 180.014C59.9667 180.756 59.6347 181.389 59.2128 181.912C58.7987 182.436 58.2909 182.838 57.6894 183.119C57.0878 183.393 56.3847 183.529 55.58 183.529C54.8222 183.529 54.1347 183.369 53.5175 183.049C52.9081 182.729 52.3847 182.279 51.9472 181.701C51.5097 181.123 51.1737 180.443 50.9394 179.662C50.7128 178.873 50.5995 178.018 50.5995 177.096ZM52.7675 176.85V177.096C52.7675 177.729 52.83 178.322 52.955 178.877C53.0878 179.432 53.287 179.92 53.5526 180.342C53.8261 180.764 54.1737 181.096 54.5956 181.338C55.0175 181.572 55.5214 181.689 56.1073 181.689C56.8261 181.689 57.4198 181.537 57.8886 181.232C58.3573 180.928 58.7284 180.525 59.0019 180.025C59.2831 179.525 59.5019 178.982 59.6581 178.396V175.572C59.5722 175.143 59.4394 174.729 59.2597 174.33C59.0878 173.924 58.8612 173.564 58.58 173.252C58.3065 172.932 57.9667 172.678 57.5605 172.49C57.1542 172.303 56.6776 172.209 56.1308 172.209C55.537 172.209 55.0253 172.334 54.5956 172.584C54.1737 172.826 53.8261 173.162 53.5526 173.592C53.287 174.014 53.0878 174.506 52.955 175.068C52.83 175.623 52.7675 176.217 52.7675 176.85ZM72.3495 180.365V170.615H74.5292V183.295H72.455L72.3495 180.365ZM72.7597 177.693L73.662 177.67C73.662 178.514 73.5722 179.295 73.3925 180.014C73.2206 180.725 72.9394 181.342 72.5487 181.865C72.1581 182.389 71.6464 182.799 71.0136 183.096C70.3808 183.385 69.6112 183.529 68.705 183.529C68.0878 183.529 67.5214 183.439 67.0058 183.26C66.498 183.08 66.0605 182.803 65.6933 182.428C65.3261 182.053 65.0409 181.564 64.8378 180.963C64.6425 180.361 64.5448 179.639 64.5448 178.795V170.615H66.7128V178.818C66.7128 179.389 66.7753 179.861 66.9003 180.236C67.0331 180.604 67.2089 180.896 67.4276 181.115C67.6542 181.326 67.9042 181.475 68.1776 181.561C68.4589 181.646 68.748 181.689 69.0448 181.689C69.9667 181.689 70.6972 181.514 71.2362 181.162C71.7753 180.803 72.162 180.322 72.3964 179.721C72.6386 179.111 72.7597 178.436 72.7597 177.693ZM85.3105 181.127V174.6C85.3105 174.1 85.2089 173.666 85.0058 173.299C84.8105 172.924 84.5136 172.635 84.1151 172.432C83.7167 172.229 83.2245 172.127 82.6386 172.127C82.0917 172.127 81.6112 172.221 81.1972 172.408C80.7909 172.596 80.4706 172.842 80.2362 173.146C80.0097 173.451 79.8964 173.779 79.8964 174.131H77.7284C77.7284 173.678 77.8456 173.229 78.08 172.783C78.3144 172.338 78.6503 171.936 79.0878 171.576C79.5331 171.209 80.0644 170.92 80.6815 170.709C81.3065 170.49 82.0019 170.381 82.7675 170.381C83.6894 170.381 84.5019 170.537 85.205 170.85C85.9159 171.162 86.4706 171.635 86.869 172.268C87.2753 172.893 87.4784 173.678 87.4784 174.623V180.529C87.4784 180.951 87.5136 181.4 87.5839 181.877C87.662 182.354 87.7753 182.764 87.9237 183.107V183.295H85.662C85.5526 183.045 85.4667 182.713 85.4042 182.299C85.3417 181.877 85.3105 181.486 85.3105 181.127ZM85.6855 175.607L85.7089 177.131H83.5175C82.9003 177.131 82.3495 177.182 81.8651 177.283C81.3808 177.377 80.9745 177.521 80.6464 177.717C80.3183 177.912 80.0683 178.158 79.8964 178.455C79.7245 178.744 79.6386 179.084 79.6386 179.475C79.6386 179.873 79.7284 180.236 79.9081 180.564C80.0878 180.893 80.3573 181.154 80.7167 181.35C81.0839 181.537 81.5331 181.631 82.0644 181.631C82.7284 181.631 83.3144 181.49 83.8222 181.209C84.33 180.928 84.7323 180.584 85.0292 180.178C85.3339 179.771 85.498 179.377 85.5214 178.994L86.4472 180.037C86.3925 180.365 86.244 180.729 86.0019 181.127C85.7597 181.525 85.4355 181.908 85.0292 182.275C84.6308 182.635 84.1542 182.936 83.5995 183.178C83.0526 183.412 82.4355 183.529 81.748 183.529C80.8886 183.529 80.1347 183.361 79.4862 183.025C78.8456 182.689 78.3456 182.24 77.9862 181.678C77.6347 181.107 77.4589 180.471 77.4589 179.768C77.4589 179.088 77.5917 178.49 77.8573 177.975C78.123 177.451 78.5058 177.018 79.0058 176.674C79.5058 176.322 80.1073 176.057 80.8105 175.877C81.5136 175.697 82.2987 175.607 83.1659 175.607H85.6855ZM93.244 165.295V183.295H91.0644V165.295H93.244ZM104.717 180.834V165.295H106.896V183.295H104.904L104.717 180.834ZM96.1855 177.096V176.85C96.1855 175.881 96.3026 175.002 96.537 174.213C96.7792 173.416 97.119 172.732 97.5565 172.162C98.0019 171.592 98.5292 171.154 99.1386 170.85C99.7558 170.537 100.443 170.381 101.201 170.381C101.998 170.381 102.693 170.521 103.287 170.803C103.889 171.076 104.396 171.479 104.81 172.01C105.232 172.533 105.564 173.166 105.807 173.908C106.049 174.65 106.217 175.49 106.31 176.428V177.506C106.225 178.436 106.057 179.271 105.807 180.014C105.564 180.756 105.232 181.389 104.81 181.912C104.396 182.436 103.889 182.838 103.287 183.119C102.685 183.393 101.982 183.529 101.178 183.529C100.435 183.529 99.7558 183.369 99.1386 183.049C98.5292 182.729 98.0019 182.279 97.5565 181.701C97.119 181.123 96.7792 180.443 96.537 179.662C96.3026 178.873 96.1855 178.018 96.1855 177.096ZM98.3651 176.85V177.096C98.3651 177.729 98.4276 178.322 98.5526 178.877C98.6855 179.432 98.8886 179.92 99.162 180.342C99.4355 180.764 99.7831 181.096 100.205 181.338C100.627 181.572 101.131 181.689 101.717 181.689C102.435 181.689 103.025 181.537 103.486 181.232C103.955 180.928 104.33 180.525 104.611 180.025C104.892 179.525 105.111 178.982 105.267 178.396V175.572C105.174 175.143 105.037 174.729 104.857 174.33C104.685 173.924 104.459 173.564 104.178 173.252C103.904 172.932 103.564 172.678 103.158 172.49C102.76 172.303 102.287 172.209 101.74 172.209C101.146 172.209 100.635 172.334 100.205 172.584C99.7831 172.826 99.4355 173.162 99.162 173.592C98.8886 174.014 98.6855 174.506 98.5526 175.068C98.4276 175.623 98.3651 176.217 98.3651 176.85ZM117.748 181.127V174.6C117.748 174.1 117.646 173.666 117.443 173.299C117.248 172.924 116.951 172.635 116.553 172.432C116.154 172.229 115.662 172.127 115.076 172.127C114.529 172.127 114.049 172.221 113.635 172.408C113.228 172.596 112.908 172.842 112.674 173.146C112.447 173.451 112.334 173.779 112.334 174.131H110.166C110.166 173.678 110.283 173.229 110.517 172.783C110.752 172.338 111.088 171.936 111.525 171.576C111.971 171.209 112.502 170.92 113.119 170.709C113.744 170.49 114.439 170.381 115.205 170.381C116.127 170.381 116.939 170.537 117.642 170.85C118.353 171.162 118.908 171.635 119.307 172.268C119.713 172.893 119.916 173.678 119.916 174.623V180.529C119.916 180.951 119.951 181.4 120.021 181.877C120.1 182.354 120.213 182.764 120.361 183.107V183.295H118.1C117.99 183.045 117.904 182.713 117.842 182.299C117.779 181.877 117.748 181.486 117.748 181.127ZM118.123 175.607L118.146 177.131H115.955C115.338 177.131 114.787 177.182 114.303 177.283C113.818 177.377 113.412 177.521 113.084 177.717C112.756 177.912 112.506 178.158 112.334 178.455C112.162 178.744 112.076 179.084 112.076 179.475C112.076 179.873 112.166 180.236 112.346 180.564C112.525 180.893 112.795 181.154 113.154 181.35C113.521 181.537 113.971 181.631 114.502 181.631C115.166 181.631 115.752 181.49 116.26 181.209C116.767 180.928 117.17 180.584 117.467 180.178C117.771 179.771 117.935 179.377 117.959 178.994L118.885 180.037C118.83 180.365 118.682 180.729 118.439 181.127C118.197 181.525 117.873 181.908 117.467 182.275C117.068 182.635 116.592 182.936 116.037 183.178C115.49 183.412 114.873 183.529 114.185 183.529C113.326 183.529 112.572 183.361 111.924 183.025C111.283 182.689 110.783 182.24 110.424 181.678C110.072 181.107 109.896 180.471 109.896 179.768C109.896 179.088 110.029 178.49 110.295 177.975C110.56 177.451 110.943 177.018 111.443 176.674C111.943 176.322 112.545 176.057 113.248 175.877C113.951 175.697 114.736 175.607 115.603 175.607H118.123ZM131.318 180.834V165.295H133.498V183.295H131.506L131.318 180.834ZM122.787 177.096V176.85C122.787 175.881 122.904 175.002 123.139 174.213C123.381 173.416 123.721 172.732 124.158 172.162C124.603 171.592 125.131 171.154 125.74 170.85C126.357 170.537 127.045 170.381 127.803 170.381C128.6 170.381 129.295 170.521 129.889 170.803C130.49 171.076 130.998 171.479 131.412 172.01C131.834 172.533 132.166 173.166 132.408 173.908C132.65 174.65 132.818 175.49 132.912 176.428V177.506C132.826 178.436 132.658 179.271 132.408 180.014C132.166 180.756 131.834 181.389 131.412 181.912C130.998 182.436 130.49 182.838 129.889 183.119C129.287 183.393 128.584 183.529 127.779 183.529C127.037 183.529 126.357 183.369 125.74 183.049C125.131 182.729 124.603 182.279 124.158 181.701C123.721 181.123 123.381 180.443 123.139 179.662C122.904 178.873 122.787 178.018 122.787 177.096ZM124.967 176.85V177.096C124.967 177.729 125.029 178.322 125.154 178.877C125.287 179.432 125.49 179.92 125.764 180.342C126.037 180.764 126.385 181.096 126.807 181.338C127.228 181.572 127.732 181.689 128.318 181.689C129.037 181.689 129.627 181.537 130.088 181.232C130.557 180.928 130.932 180.525 131.213 180.025C131.494 179.525 131.713 178.982 131.869 178.396V175.572C131.775 175.143 131.639 174.729 131.459 174.33C131.287 173.924 131.06 173.564 130.779 173.252C130.506 172.932 130.166 172.678 129.76 172.49C129.361 172.303 128.889 172.209 128.342 172.209C127.748 172.209 127.236 172.334 126.807 172.584C126.385 172.826 126.037 173.162 125.764 173.592C125.49 174.014 125.287 174.506 125.154 175.068C125.029 175.623 124.967 176.217 124.967 176.85ZM150.818 180.834V165.295H152.998V183.295H151.006L150.818 180.834ZM142.287 177.096V176.85C142.287 175.881 142.404 175.002 142.639 174.213C142.881 173.416 143.221 172.732 143.658 172.162C144.103 171.592 144.631 171.154 145.24 170.85C145.857 170.537 146.545 170.381 147.303 170.381C148.1 170.381 148.795 170.521 149.389 170.803C149.99 171.076 150.498 171.479 150.912 172.01C151.334 172.533 151.666 173.166 151.908 173.908C152.15 174.65 152.318 175.49 152.412 176.428V177.506C152.326 178.436 152.158 179.271 151.908 180.014C151.666 180.756 151.334 181.389 150.912 181.912C150.498 182.436 149.99 182.838 149.389 183.119C148.787 183.393 148.084 183.529 147.279 183.529C146.537 183.529 145.857 183.369 145.24 183.049C144.631 182.729 144.103 182.279 143.658 181.701C143.221 181.123 142.881 180.443 142.639 179.662C142.404 178.873 142.287 178.018 142.287 177.096ZM144.467 176.85V177.096C144.467 177.729 144.529 178.322 144.654 178.877C144.787 179.432 144.99 179.92 145.264 180.342C145.537 180.764 145.885 181.096 146.307 181.338C146.728 181.572 147.232 181.689 147.818 181.689C148.537 181.689 149.127 181.537 149.588 181.232C150.057 180.928 150.432 180.525 150.713 180.025C150.994 179.525 151.213 178.982 151.369 178.396V175.572C151.275 175.143 151.139 174.729 150.959 174.33C150.787 173.924 150.56 173.564 150.279 173.252C150.006 172.932 149.666 172.678 149.26 172.49C148.861 172.303 148.389 172.209 147.842 172.209C147.248 172.209 146.736 172.334 146.307 172.584C145.885 172.826 145.537 173.162 145.264 173.592C144.99 174.014 144.787 174.506 144.654 175.068C144.529 175.623 144.467 176.217 144.467 176.85ZM161.635 183.529C160.752 183.529 159.951 183.381 159.232 183.084C158.521 182.779 157.908 182.354 157.392 181.807C156.885 181.26 156.494 180.611 156.221 179.861C155.947 179.111 155.81 178.291 155.81 177.4V176.908C155.81 175.877 155.963 174.959 156.267 174.154C156.572 173.342 156.986 172.654 157.51 172.092C158.033 171.529 158.627 171.104 159.291 170.814C159.955 170.525 160.642 170.381 161.353 170.381C162.26 170.381 163.041 170.537 163.697 170.85C164.361 171.162 164.904 171.6 165.326 172.162C165.748 172.717 166.06 173.373 166.264 174.131C166.467 174.881 166.568 175.701 166.568 176.592V177.564H157.1V175.795H164.4V175.631C164.369 175.068 164.252 174.521 164.049 173.99C163.853 173.459 163.541 173.021 163.111 172.678C162.682 172.334 162.096 172.162 161.353 172.162C160.861 172.162 160.408 172.268 159.994 172.479C159.58 172.682 159.225 172.986 158.928 173.393C158.631 173.799 158.4 174.295 158.236 174.881C158.072 175.467 157.99 176.143 157.99 176.908V177.4C157.99 178.002 158.072 178.568 158.236 179.1C158.408 179.623 158.654 180.084 158.975 180.482C159.303 180.881 159.697 181.193 160.158 181.42C160.627 181.646 161.158 181.76 161.752 181.76C162.517 181.76 163.166 181.604 163.697 181.291C164.228 180.979 164.693 180.561 165.092 180.037L166.404 181.08C166.131 181.494 165.783 181.889 165.361 182.264C164.939 182.639 164.42 182.943 163.803 183.178C163.193 183.412 162.471 183.529 161.635 183.529ZM78.162 198.615H80.1308V211.025C80.1308 212.143 79.9042 213.096 79.4511 213.885C78.998 214.674 78.3651 215.271 77.5526 215.678C76.748 216.092 75.8183 216.299 74.7636 216.299C74.3261 216.299 73.8105 216.229 73.2167 216.088C72.6308 215.955 72.0526 215.725 71.4823 215.396C70.9198 215.076 70.4472 214.643 70.0644 214.096L71.2011 212.807C71.7323 213.447 72.287 213.893 72.8651 214.143C73.4511 214.393 74.0292 214.518 74.5995 214.518C75.287 214.518 75.8808 214.389 76.3808 214.131C76.8808 213.873 77.2675 213.49 77.5409 212.982C77.8222 212.482 77.9628 211.865 77.9628 211.131V201.404L78.162 198.615ZM69.4315 205.096V204.85C69.4315 203.881 69.5448 203.002 69.7714 202.213C70.0058 201.416 70.3378 200.732 70.7675 200.162C71.205 199.592 71.7323 199.154 72.3495 198.85C72.9667 198.537 73.662 198.381 74.4355 198.381C75.2323 198.381 75.9276 198.521 76.5214 198.803C77.123 199.076 77.6308 199.479 78.0448 200.01C78.4667 200.533 78.7987 201.166 79.0409 201.908C79.2831 202.65 79.4511 203.49 79.5448 204.428V205.506C79.4589 206.436 79.2909 207.271 79.0409 208.014C78.7987 208.756 78.4667 209.389 78.0448 209.912C77.6308 210.436 77.123 210.838 76.5214 211.119C75.9198 211.393 75.2167 211.529 74.412 211.529C73.6542 211.529 72.9667 211.369 72.3495 211.049C71.7401 210.729 71.2167 210.279 70.7792 209.701C70.3417 209.123 70.0058 208.443 69.7714 207.662C69.5448 206.873 69.4315 206.018 69.4315 205.096ZM71.5995 204.85V205.096C71.5995 205.729 71.662 206.322 71.787 206.877C71.9198 207.432 72.119 207.92 72.3847 208.342C72.6581 208.764 73.0058 209.096 73.4276 209.338C73.8495 209.572 74.3534 209.689 74.9394 209.689C75.6581 209.689 76.2519 209.537 76.7206 209.232C77.1894 208.928 77.5605 208.525 77.8339 208.025C78.1151 207.525 78.3339 206.982 78.4901 206.396V203.572C78.4042 203.143 78.2714 202.729 78.0917 202.33C77.9198 201.924 77.6933 201.564 77.412 201.252C77.1386 200.932 76.7987 200.678 76.3925 200.49C75.9862 200.303 75.5097 200.209 74.9628 200.209C74.369 200.209 73.8573 200.334 73.4276 200.584C73.0058 200.826 72.6581 201.162 72.3847 201.592C72.119 202.014 71.9198 202.506 71.787 203.068C71.662 203.623 71.5995 204.217 71.5995 204.85ZM88.6855 211.529C87.8026 211.529 87.0019 211.381 86.2831 211.084C85.5722 210.779 84.9589 210.354 84.4433 209.807C83.9355 209.26 83.5448 208.611 83.2714 207.861C82.998 207.111 82.8612 206.291 82.8612 205.4V204.908C82.8612 203.877 83.0136 202.959 83.3183 202.154C83.623 201.342 84.037 200.654 84.5605 200.092C85.0839 199.529 85.6776 199.104 86.3417 198.814C87.0058 198.525 87.6933 198.381 88.4042 198.381C89.3105 198.381 90.0917 198.537 90.748 198.85C91.412 199.162 91.955 199.6 92.3769 200.162C92.7987 200.717 93.1112 201.373 93.3144 202.131C93.5175 202.881 93.619 203.701 93.619 204.592V205.564H84.1503V203.795H91.4511V203.631C91.4198 203.068 91.3026 202.521 91.0995 201.99C90.9042 201.459 90.5917 201.021 90.162 200.678C89.7323 200.334 89.1464 200.162 88.4042 200.162C87.912 200.162 87.4589 200.268 87.0448 200.479C86.6308 200.682 86.2753 200.986 85.9784 201.393C85.6815 201.799 85.4511 202.295 85.287 202.881C85.123 203.467 85.0409 204.143 85.0409 204.908V205.4C85.0409 206.002 85.123 206.568 85.287 207.1C85.4589 207.623 85.705 208.084 86.0253 208.482C86.3534 208.881 86.748 209.193 87.2089 209.42C87.6776 209.646 88.2089 209.76 88.8026 209.76C89.5683 209.76 90.2167 209.604 90.748 209.291C91.2792 208.979 91.744 208.561 92.1425 208.037L93.455 209.08C93.1815 209.494 92.8339 209.889 92.412 210.264C91.9901 210.639 91.4706 210.943 90.8534 211.178C90.244 211.412 89.5214 211.529 88.6855 211.529ZM87.1972 196.74L89.4706 193.295H92.0839L88.9433 196.74H87.1972ZM98.3183 201.322V211.295H96.1503V198.615H98.2011L98.3183 201.322ZM97.8026 204.475L96.9003 204.439C96.9081 203.572 97.037 202.771 97.287 202.037C97.537 201.295 97.8886 200.65 98.3417 200.104C98.7948 199.557 99.3339 199.135 99.9589 198.838C100.592 198.533 101.291 198.381 102.057 198.381C102.682 198.381 103.244 198.467 103.744 198.639C104.244 198.803 104.67 199.068 105.021 199.436C105.381 199.803 105.654 200.279 105.842 200.865C106.029 201.443 106.123 202.15 106.123 202.986V211.295H103.943V202.963C103.943 202.299 103.846 201.768 103.65 201.369C103.455 200.963 103.17 200.67 102.795 200.49C102.42 200.303 101.959 200.209 101.412 200.209C100.873 200.209 100.381 200.322 99.9355 200.549C99.498 200.775 99.119 201.088 98.7987 201.486C98.4862 201.885 98.2401 202.342 98.0605 202.857C97.8886 203.365 97.8026 203.904 97.8026 204.475ZM114.678 211.529C113.795 211.529 112.994 211.381 112.275 211.084C111.564 210.779 110.951 210.354 110.435 209.807C109.928 209.26 109.537 208.611 109.264 207.861C108.99 207.111 108.853 206.291 108.853 205.4V204.908C108.853 203.877 109.006 202.959 109.31 202.154C109.615 201.342 110.029 200.654 110.553 200.092C111.076 199.529 111.67 199.104 112.334 198.814C112.998 198.525 113.685 198.381 114.396 198.381C115.303 198.381 116.084 198.537 116.74 198.85C117.404 199.162 117.947 199.6 118.369 200.162C118.791 200.717 119.103 201.373 119.307 202.131C119.51 202.881 119.611 203.701 119.611 204.592V205.564H110.142V203.795H117.443V203.631C117.412 203.068 117.295 202.521 117.092 201.99C116.896 201.459 116.584 201.021 116.154 200.678C115.725 200.334 115.139 200.162 114.396 200.162C113.904 200.162 113.451 200.268 113.037 200.479C112.623 200.682 112.267 200.986 111.971 201.393C111.674 201.799 111.443 202.295 111.279 202.881C111.115 203.467 111.033 204.143 111.033 204.908V205.4C111.033 206.002 111.115 206.568 111.279 207.1C111.451 207.623 111.697 208.084 112.017 208.482C112.346 208.881 112.74 209.193 113.201 209.42C113.67 209.646 114.201 209.76 114.795 209.76C115.56 209.76 116.209 209.604 116.74 209.291C117.271 208.979 117.736 208.561 118.135 208.037L119.447 209.08C119.174 209.494 118.826 209.889 118.404 210.264C117.982 210.639 117.463 210.943 116.846 211.178C116.236 211.412 115.514 211.529 114.678 211.529ZM124.31 200.607V211.295H122.142V198.615H124.252L124.31 200.607ZM128.271 198.545L128.26 200.561C128.08 200.521 127.908 200.498 127.744 200.49C127.588 200.475 127.408 200.467 127.205 200.467C126.705 200.467 126.264 200.545 125.881 200.701C125.498 200.857 125.174 201.076 124.908 201.357C124.642 201.639 124.432 201.975 124.275 202.365C124.127 202.748 124.029 203.17 123.982 203.631L123.373 203.982C123.373 203.217 123.447 202.498 123.596 201.826C123.752 201.154 123.99 200.561 124.31 200.045C124.631 199.521 125.037 199.115 125.529 198.826C126.029 198.529 126.623 198.381 127.31 198.381C127.467 198.381 127.646 198.4 127.85 198.439C128.053 198.471 128.193 198.506 128.271 198.545ZM129.467 205.096V204.826C129.467 203.912 129.6 203.064 129.865 202.283C130.131 201.494 130.514 200.811 131.014 200.232C131.514 199.646 132.119 199.193 132.83 198.873C133.541 198.545 134.338 198.381 135.221 198.381C136.111 198.381 136.912 198.545 137.623 198.873C138.342 199.193 138.951 199.646 139.451 200.232C139.959 200.811 140.346 201.494 140.611 202.283C140.877 203.064 141.01 203.912 141.01 204.826V205.096C141.01 206.01 140.877 206.857 140.611 207.639C140.346 208.42 139.959 209.104 139.451 209.689C138.951 210.268 138.346 210.721 137.635 211.049C136.932 211.369 136.135 211.529 135.244 211.529C134.353 211.529 133.553 211.369 132.842 211.049C132.131 210.721 131.521 210.268 131.014 209.689C130.514 209.104 130.131 208.42 129.865 207.639C129.6 206.857 129.467 206.01 129.467 205.096ZM131.635 204.826V205.096C131.635 205.729 131.709 206.326 131.857 206.889C132.006 207.443 132.228 207.936 132.525 208.365C132.83 208.795 133.209 209.135 133.662 209.385C134.115 209.627 134.642 209.748 135.244 209.748C135.838 209.748 136.357 209.627 136.803 209.385C137.256 209.135 137.631 208.795 137.928 208.365C138.225 207.936 138.447 207.443 138.596 206.889C138.752 206.326 138.83 205.729 138.83 205.096V204.826C138.83 204.201 138.752 203.611 138.596 203.057C138.447 202.494 138.221 201.998 137.916 201.568C137.619 201.131 137.244 200.787 136.791 200.537C136.346 200.287 135.822 200.162 135.221 200.162C134.627 200.162 134.103 200.287 133.65 200.537C133.205 200.787 132.83 201.131 132.525 201.568C132.228 201.998 132.006 202.494 131.857 203.057C131.709 203.611 131.635 204.201 131.635 204.826Z" fill="black"/>
<path d="M303.059 179.574H305.309C305.191 180.652 304.883 181.617 304.383 182.469C303.883 183.32 303.176 183.996 302.262 184.496C301.348 184.988 300.207 185.234 298.84 185.234C297.84 185.234 296.93 185.047 296.109 184.672C295.297 184.297 294.598 183.766 294.012 183.078C293.426 182.383 292.973 181.551 292.652 180.582C292.34 179.605 292.184 178.52 292.184 177.324V175.625C292.184 174.43 292.34 173.348 292.652 172.379C292.973 171.402 293.43 170.566 294.023 169.871C294.625 169.176 295.348 168.641 296.191 168.266C297.035 167.891 297.984 167.703 299.039 167.703C300.328 167.703 301.418 167.945 302.309 168.43C303.199 168.914 303.891 169.586 304.383 170.445C304.883 171.297 305.191 172.285 305.309 173.41H303.059C302.949 172.613 302.746 171.93 302.449 171.359C302.152 170.781 301.73 170.336 301.184 170.023C300.637 169.711 299.922 169.555 299.039 169.555C298.281 169.555 297.613 169.699 297.035 169.988C296.465 170.277 295.984 170.688 295.594 171.219C295.211 171.75 294.922 172.387 294.727 173.129C294.531 173.871 294.434 174.695 294.434 175.602V177.324C294.434 178.16 294.52 178.945 294.691 179.68C294.871 180.414 295.141 181.059 295.5 181.613C295.859 182.168 296.316 182.605 296.871 182.926C297.426 183.238 298.082 183.395 298.84 183.395C299.801 183.395 300.566 183.242 301.137 182.938C301.707 182.633 302.137 182.195 302.426 181.625C302.723 181.055 302.934 180.371 303.059 179.574ZM307.488 178.801V178.531C307.488 177.617 307.621 176.77 307.887 175.988C308.152 175.199 308.535 174.516 309.035 173.938C309.535 173.352 310.141 172.898 310.852 172.578C311.562 172.25 312.359 172.086 313.242 172.086C314.133 172.086 314.934 172.25 315.645 172.578C316.363 172.898 316.973 173.352 317.473 173.938C317.98 174.516 318.367 175.199 318.633 175.988C318.898 176.77 319.031 177.617 319.031 178.531V178.801C319.031 179.715 318.898 180.562 318.633 181.344C318.367 182.125 317.98 182.809 317.473 183.395C316.973 183.973 316.367 184.426 315.656 184.754C314.953 185.074 314.156 185.234 313.266 185.234C312.375 185.234 311.574 185.074 310.863 184.754C310.152 184.426 309.543 183.973 309.035 183.395C308.535 182.809 308.152 182.125 307.887 181.344C307.621 180.562 307.488 179.715 307.488 178.801ZM309.656 178.531V178.801C309.656 179.434 309.73 180.031 309.879 180.594C310.027 181.148 310.25 181.641 310.547 182.07C310.852 182.5 311.23 182.84 311.684 183.09C312.137 183.332 312.664 183.453 313.266 183.453C313.859 183.453 314.379 183.332 314.824 183.09C315.277 182.84 315.652 182.5 315.949 182.07C316.246 181.641 316.469 181.148 316.617 180.594C316.773 180.031 316.852 179.434 316.852 178.801V178.531C316.852 177.906 316.773 177.316 316.617 176.762C316.469 176.199 316.242 175.703 315.938 175.273C315.641 174.836 315.266 174.492 314.812 174.242C314.367 173.992 313.844 173.867 313.242 173.867C312.648 173.867 312.125 173.992 311.672 174.242C311.227 174.492 310.852 174.836 310.547 175.273C310.25 175.703 310.027 176.199 309.879 176.762C309.73 177.316 309.656 177.906 309.656 178.531ZM323.918 175.027V185H321.75V172.32H323.801L323.918 175.027ZM323.402 178.18L322.5 178.145C322.508 177.277 322.637 176.477 322.887 175.742C323.137 175 323.488 174.355 323.941 173.809C324.395 173.262 324.934 172.84 325.559 172.543C326.191 172.238 326.891 172.086 327.656 172.086C328.281 172.086 328.844 172.172 329.344 172.344C329.844 172.508 330.27 172.773 330.621 173.141C330.98 173.508 331.254 173.984 331.441 174.57C331.629 175.148 331.723 175.855 331.723 176.691V185H329.543V176.668C329.543 176.004 329.445 175.473 329.25 175.074C329.055 174.668 328.77 174.375 328.395 174.195C328.02 174.008 327.559 173.914 327.012 173.914C326.473 173.914 325.98 174.027 325.535 174.254C325.098 174.48 324.719 174.793 324.398 175.191C324.086 175.59 323.84 176.047 323.66 176.562C323.488 177.07 323.402 177.609 323.402 178.18ZM343.008 182.539V167H345.188V185H343.195L343.008 182.539ZM334.477 178.801V178.555C334.477 177.586 334.594 176.707 334.828 175.918C335.07 175.121 335.41 174.438 335.848 173.867C336.293 173.297 336.82 172.859 337.43 172.555C338.047 172.242 338.734 172.086 339.492 172.086C340.289 172.086 340.984 172.227 341.578 172.508C342.18 172.781 342.688 173.184 343.102 173.715C343.523 174.238 343.855 174.871 344.098 175.613C344.34 176.355 344.508 177.195 344.602 178.133V179.211C344.516 180.141 344.348 180.977 344.098 181.719C343.855 182.461 343.523 183.094 343.102 183.617C342.688 184.141 342.18 184.543 341.578 184.824C340.977 185.098 340.273 185.234 339.469 185.234C338.727 185.234 338.047 185.074 337.43 184.754C336.82 184.434 336.293 183.984 335.848 183.406C335.41 182.828 335.07 182.148 334.828 181.367C334.594 180.578 334.477 179.723 334.477 178.801ZM336.656 178.555V178.801C336.656 179.434 336.719 180.027 336.844 180.582C336.977 181.137 337.18 181.625 337.453 182.047C337.727 182.469 338.074 182.801 338.496 183.043C338.918 183.277 339.422 183.395 340.008 183.395C340.727 183.395 341.316 183.242 341.777 182.938C342.246 182.633 342.621 182.23 342.902 181.73C343.184 181.23 343.402 180.688 343.559 180.102V177.277C343.465 176.848 343.328 176.434 343.148 176.035C342.977 175.629 342.75 175.27 342.469 174.957C342.195 174.637 341.855 174.383 341.449 174.195C341.051 174.008 340.578 173.914 340.031 173.914C339.438 173.914 338.926 174.039 338.496 174.289C338.074 174.531 337.727 174.867 337.453 175.297C337.18 175.719 336.977 176.211 336.844 176.773C336.719 177.328 336.656 177.922 336.656 178.555ZM350.918 172.32V185H348.738V172.32H350.918ZM348.574 168.957C348.574 168.605 348.68 168.309 348.891 168.066C349.109 167.824 349.43 167.703 349.852 167.703C350.266 167.703 350.582 167.824 350.801 168.066C351.027 168.309 351.141 168.605 351.141 168.957C351.141 169.293 351.027 169.582 350.801 169.824C350.582 170.059 350.266 170.176 349.852 170.176C349.43 170.176 349.109 170.059 348.891 169.824C348.68 169.582 348.574 169.293 348.574 168.957ZM359.473 183.453C359.988 183.453 360.465 183.348 360.902 183.137C361.34 182.926 361.699 182.637 361.98 182.27C362.262 181.895 362.422 181.469 362.461 180.992H364.523C364.484 181.742 364.23 182.441 363.762 183.09C363.301 183.73 362.695 184.25 361.945 184.648C361.195 185.039 360.371 185.234 359.473 185.234C358.52 185.234 357.688 185.066 356.977 184.73C356.273 184.395 355.688 183.934 355.219 183.348C354.758 182.762 354.41 182.09 354.176 181.332C353.949 180.566 353.836 179.758 353.836 178.906V178.414C353.836 177.562 353.949 176.758 354.176 176C354.41 175.234 354.758 174.559 355.219 173.973C355.688 173.387 356.273 172.926 356.977 172.59C357.688 172.254 358.52 172.086 359.473 172.086C360.465 172.086 361.332 172.289 362.074 172.695C362.816 173.094 363.398 173.641 363.82 174.336C364.25 175.023 364.484 175.805 364.523 176.68H362.461C362.422 176.156 362.273 175.684 362.016 175.262C361.766 174.84 361.422 174.504 360.984 174.254C360.555 173.996 360.051 173.867 359.473 173.867C358.809 173.867 358.25 174 357.797 174.266C357.352 174.523 356.996 174.875 356.73 175.32C356.473 175.758 356.285 176.246 356.168 176.785C356.059 177.316 356.004 177.859 356.004 178.414V178.906C356.004 179.461 356.059 180.008 356.168 180.547C356.277 181.086 356.461 181.574 356.719 182.012C356.984 182.449 357.34 182.801 357.785 183.066C358.238 183.324 358.801 183.453 359.473 183.453ZM369.316 172.32V185H367.137V172.32H369.316ZM366.973 168.957C366.973 168.605 367.078 168.309 367.289 168.066C367.508 167.824 367.828 167.703 368.25 167.703C368.664 167.703 368.98 167.824 369.199 168.066C369.426 168.309 369.539 168.605 369.539 168.957C369.539 169.293 369.426 169.582 369.199 169.824C368.98 170.059 368.664 170.176 368.25 170.176C367.828 170.176 367.508 170.059 367.289 169.824C367.078 169.582 366.973 169.293 366.973 168.957ZM372.223 178.801V178.531C372.223 177.617 372.355 176.77 372.621 175.988C372.887 175.199 373.27 174.516 373.77 173.938C374.27 173.352 374.875 172.898 375.586 172.578C376.297 172.25 377.094 172.086 377.977 172.086C378.867 172.086 379.668 172.25 380.379 172.578C381.098 172.898 381.707 173.352 382.207 173.938C382.715 174.516 383.102 175.199 383.367 175.988C383.633 176.77 383.766 177.617 383.766 178.531V178.801C383.766 179.715 383.633 180.562 383.367 181.344C383.102 182.125 382.715 182.809 382.207 183.395C381.707 183.973 381.102 184.426 380.391 184.754C379.688 185.074 378.891 185.234 378 185.234C377.109 185.234 376.309 185.074 375.598 184.754C374.887 184.426 374.277 183.973 373.77 183.395C373.27 182.809 372.887 182.125 372.621 181.344C372.355 180.562 372.223 179.715 372.223 178.801ZM374.391 178.531V178.801C374.391 179.434 374.465 180.031 374.613 180.594C374.762 181.148 374.984 181.641 375.281 182.07C375.586 182.5 375.965 182.84 376.418 183.09C376.871 183.332 377.398 183.453 378 183.453C378.594 183.453 379.113 183.332 379.559 183.09C380.012 182.84 380.387 182.5 380.684 182.07C380.98 181.641 381.203 181.148 381.352 180.594C381.508 180.031 381.586 179.434 381.586 178.801V178.531C381.586 177.906 381.508 177.316 381.352 176.762C381.203 176.199 380.977 175.703 380.672 175.273C380.375 174.836 380 174.492 379.547 174.242C379.102 173.992 378.578 173.867 377.977 173.867C377.383 173.867 376.859 173.992 376.406 174.242C375.961 174.492 375.586 174.836 375.281 175.273C374.984 175.703 374.762 176.199 374.613 176.762C374.465 177.316 374.391 177.906 374.391 178.531ZM388.652 175.027V185H386.484V172.32H388.535L388.652 175.027ZM388.137 178.18L387.234 178.145C387.242 177.277 387.371 176.477 387.621 175.742C387.871 175 388.223 174.355 388.676 173.809C389.129 173.262 389.668 172.84 390.293 172.543C390.926 172.238 391.625 172.086 392.391 172.086C393.016 172.086 393.578 172.172 394.078 172.344C394.578 172.508 395.004 172.773 395.355 173.141C395.715 173.508 395.988 173.984 396.176 174.57C396.363 175.148 396.457 175.855 396.457 176.691V185H394.277V176.668C394.277 176.004 394.18 175.473 393.984 175.074C393.789 174.668 393.504 174.375 393.129 174.195C392.754 174.008 392.293 173.914 391.746 173.914C391.207 173.914 390.715 174.027 390.27 174.254C389.832 174.48 389.453 174.793 389.133 175.191C388.82 175.59 388.574 176.047 388.395 176.562C388.223 177.07 388.137 177.609 388.137 178.18ZM405.012 185.234C404.129 185.234 403.328 185.086 402.609 184.789C401.898 184.484 401.285 184.059 400.77 183.512C400.262 182.965 399.871 182.316 399.598 181.566C399.324 180.816 399.188 179.996 399.188 179.105V178.613C399.188 177.582 399.34 176.664 399.645 175.859C399.949 175.047 400.363 174.359 400.887 173.797C401.41 173.234 402.004 172.809 402.668 172.52C403.332 172.23 404.02 172.086 404.73 172.086C405.637 172.086 406.418 172.242 407.074 172.555C407.738 172.867 408.281 173.305 408.703 173.867C409.125 174.422 409.438 175.078 409.641 175.836C409.844 176.586 409.945 177.406 409.945 178.297V179.27H400.477V177.5H407.777V177.336C407.746 176.773 407.629 176.227 407.426 175.695C407.23 175.164 406.918 174.727 406.488 174.383C406.059 174.039 405.473 173.867 404.73 173.867C404.238 173.867 403.785 173.973 403.371 174.184C402.957 174.387 402.602 174.691 402.305 175.098C402.008 175.504 401.777 176 401.613 176.586C401.449 177.172 401.367 177.848 401.367 178.613V179.105C401.367 179.707 401.449 180.273 401.613 180.805C401.785 181.328 402.031 181.789 402.352 182.188C402.68 182.586 403.074 182.898 403.535 183.125C404.004 183.352 404.535 183.465 405.129 183.465C405.895 183.465 406.543 183.309 407.074 182.996C407.605 182.684 408.07 182.266 408.469 181.742L409.781 182.785C409.508 183.199 409.16 183.594 408.738 183.969C408.316 184.344 407.797 184.648 407.18 184.883C406.57 185.117 405.848 185.234 405.012 185.234ZM419.859 181.637C419.859 181.324 419.789 181.035 419.648 180.77C419.516 180.496 419.238 180.25 418.816 180.031C418.402 179.805 417.777 179.609 416.941 179.445C416.238 179.297 415.602 179.121 415.031 178.918C414.469 178.715 413.988 178.469 413.59 178.18C413.199 177.891 412.898 177.551 412.688 177.16C412.477 176.77 412.371 176.312 412.371 175.789C412.371 175.289 412.48 174.816 412.699 174.371C412.926 173.926 413.242 173.531 413.648 173.188C414.062 172.844 414.559 172.574 415.137 172.379C415.715 172.184 416.359 172.086 417.07 172.086C418.086 172.086 418.953 172.266 419.672 172.625C420.391 172.984 420.941 173.465 421.324 174.066C421.707 174.66 421.898 175.32 421.898 176.047H419.73C419.73 175.695 419.625 175.355 419.414 175.027C419.211 174.691 418.91 174.414 418.512 174.195C418.121 173.977 417.641 173.867 417.07 173.867C416.469 173.867 415.98 173.961 415.605 174.148C415.238 174.328 414.969 174.559 414.797 174.84C414.633 175.121 414.551 175.418 414.551 175.73C414.551 175.965 414.59 176.176 414.668 176.363C414.754 176.543 414.902 176.711 415.113 176.867C415.324 177.016 415.621 177.156 416.004 177.289C416.387 177.422 416.875 177.555 417.469 177.688C418.508 177.922 419.363 178.203 420.035 178.531C420.707 178.859 421.207 179.262 421.535 179.738C421.863 180.215 422.027 180.793 422.027 181.473C422.027 182.027 421.91 182.535 421.676 182.996C421.449 183.457 421.117 183.855 420.68 184.191C420.25 184.52 419.734 184.777 419.133 184.965C418.539 185.145 417.871 185.234 417.129 185.234C416.012 185.234 415.066 185.035 414.293 184.637C413.52 184.238 412.934 183.723 412.535 183.09C412.137 182.457 411.938 181.789 411.938 181.086H414.117C414.148 181.68 414.32 182.152 414.633 182.504C414.945 182.848 415.328 183.094 415.781 183.242C416.234 183.383 416.684 183.453 417.129 183.453C417.723 183.453 418.219 183.375 418.617 183.219C419.023 183.062 419.332 182.848 419.543 182.574C419.754 182.301 419.859 181.988 419.859 181.637ZM266.684 195V213H264.504V195H266.684ZM277.641 210.832V204.305C277.641 203.805 277.539 203.371 277.336 203.004C277.141 202.629 276.844 202.34 276.445 202.137C276.047 201.934 275.555 201.832 274.969 201.832C274.422 201.832 273.941 201.926 273.527 202.113C273.121 202.301 272.801 202.547 272.566 202.852C272.34 203.156 272.227 203.484 272.227 203.836H270.059C270.059 203.383 270.176 202.934 270.41 202.488C270.645 202.043 270.98 201.641 271.418 201.281C271.863 200.914 272.395 200.625 273.012 200.414C273.637 200.195 274.332 200.086 275.098 200.086C276.02 200.086 276.832 200.242 277.535 200.555C278.246 200.867 278.801 201.34 279.199 201.973C279.605 202.598 279.809 203.383 279.809 204.328V210.234C279.809 210.656 279.844 211.105 279.914 211.582C279.992 212.059 280.105 212.469 280.254 212.812V213H277.992C277.883 212.75 277.797 212.418 277.734 212.004C277.672 211.582 277.641 211.191 277.641 210.832ZM278.016 205.312L278.039 206.836H275.848C275.23 206.836 274.68 206.887 274.195 206.988C273.711 207.082 273.305 207.227 272.977 207.422C272.648 207.617 272.398 207.863 272.227 208.16C272.055 208.449 271.969 208.789 271.969 209.18C271.969 209.578 272.059 209.941 272.238 210.27C272.418 210.598 272.688 210.859 273.047 211.055C273.414 211.242 273.863 211.336 274.395 211.336C275.059 211.336 275.645 211.195 276.152 210.914C276.66 210.633 277.062 210.289 277.359 209.883C277.664 209.477 277.828 209.082 277.852 208.699L278.777 209.742C278.723 210.07 278.574 210.434 278.332 210.832C278.09 211.23 277.766 211.613 277.359 211.98C276.961 212.34 276.484 212.641 275.93 212.883C275.383 213.117 274.766 213.234 274.078 213.234C273.219 213.234 272.465 213.066 271.816 212.73C271.176 212.395 270.676 211.945 270.316 211.383C269.965 210.812 269.789 210.176 269.789 209.473C269.789 208.793 269.922 208.195 270.188 207.68C270.453 207.156 270.836 206.723 271.336 206.379C271.836 206.027 272.438 205.762 273.141 205.582C273.844 205.402 274.629 205.312 275.496 205.312H278.016ZM283.207 195H285.387V210.539L285.199 213H283.207V195ZM293.953 206.555V206.801C293.953 207.723 293.844 208.578 293.625 209.367C293.406 210.148 293.086 210.828 292.664 211.406C292.242 211.984 291.727 212.434 291.117 212.754C290.508 213.074 289.809 213.234 289.02 213.234C288.215 213.234 287.508 213.098 286.898 212.824C286.297 212.543 285.789 212.141 285.375 211.617C284.961 211.094 284.629 210.461 284.379 209.719C284.137 208.977 283.969 208.141 283.875 207.211V206.133C283.969 205.195 284.137 204.355 284.379 203.613C284.629 202.871 284.961 202.238 285.375 201.715C285.789 201.184 286.297 200.781 286.898 200.508C287.5 200.227 288.199 200.086 288.996 200.086C289.793 200.086 290.5 200.242 291.117 200.555C291.734 200.859 292.25 201.297 292.664 201.867C293.086 202.438 293.406 203.121 293.625 203.918C293.844 204.707 293.953 205.586 293.953 206.555ZM291.773 206.801V206.555C291.773 205.922 291.715 205.328 291.598 204.773C291.48 204.211 291.293 203.719 291.035 203.297C290.777 202.867 290.438 202.531 290.016 202.289C289.594 202.039 289.074 201.914 288.457 201.914C287.91 201.914 287.434 202.008 287.027 202.195C286.629 202.383 286.289 202.637 286.008 202.957C285.727 203.27 285.496 203.629 285.316 204.035C285.145 204.434 285.016 204.848 284.93 205.277V208.102C285.055 208.648 285.258 209.176 285.539 209.684C285.828 210.184 286.211 210.594 286.688 210.914C287.172 211.234 287.77 211.395 288.48 211.395C289.066 211.395 289.566 211.277 289.98 211.043C290.402 210.801 290.742 210.469 291 210.047C291.266 209.625 291.461 209.137 291.586 208.582C291.711 208.027 291.773 207.434 291.773 206.801ZM296.121 206.801V206.531C296.121 205.617 296.254 204.77 296.52 203.988C296.785 203.199 297.168 202.516 297.668 201.938C298.168 201.352 298.773 200.898 299.484 200.578C300.195 200.25 300.992 200.086 301.875 200.086C302.766 200.086 303.566 200.25 304.277 200.578C304.996 200.898 305.605 201.352 306.105 201.938C306.613 202.516 307 203.199 307.266 203.988C307.531 204.77 307.664 205.617 307.664 206.531V206.801C307.664 207.715 307.531 208.562 307.266 209.344C307 210.125 306.613 210.809 306.105 211.395C305.605 211.973 305 212.426 304.289 212.754C303.586 213.074 302.789 213.234 301.898 213.234C301.008 213.234 300.207 213.074 299.496 212.754C298.785 212.426 298.176 211.973 297.668 211.395C297.168 210.809 296.785 210.125 296.52 209.344C296.254 208.562 296.121 207.715 296.121 206.801ZM298.289 206.531V206.801C298.289 207.434 298.363 208.031 298.512 208.594C298.66 209.148 298.883 209.641 299.18 210.07C299.484 210.5 299.863 210.84 300.316 211.09C300.77 211.332 301.297 211.453 301.898 211.453C302.492 211.453 303.012 211.332 303.457 211.09C303.91 210.84 304.285 210.5 304.582 210.07C304.879 209.641 305.102 209.148 305.25 208.594C305.406 208.031 305.484 207.434 305.484 206.801V206.531C305.484 205.906 305.406 205.316 305.25 204.762C305.102 204.199 304.875 203.703 304.57 203.273C304.273 202.836 303.898 202.492 303.445 202.242C303 201.992 302.477 201.867 301.875 201.867C301.281 201.867 300.758 201.992 300.305 202.242C299.859 202.492 299.484 202.836 299.18 203.273C298.883 203.703 298.66 204.199 298.512 204.762C298.363 205.316 298.289 205.906 298.289 206.531ZM312.551 202.312V213H310.383V200.32H312.492L312.551 202.312ZM316.512 200.25L316.5 202.266C316.32 202.227 316.148 202.203 315.984 202.195C315.828 202.18 315.648 202.172 315.445 202.172C314.945 202.172 314.504 202.25 314.121 202.406C313.738 202.562 313.414 202.781 313.148 203.062C312.883 203.344 312.672 203.68 312.516 204.07C312.367 204.453 312.27 204.875 312.223 205.336L311.613 205.688C311.613 204.922 311.688 204.203 311.836 203.531C311.992 202.859 312.23 202.266 312.551 201.75C312.871 201.227 313.277 200.82 313.77 200.531C314.27 200.234 314.863 200.086 315.551 200.086C315.707 200.086 315.887 200.105 316.09 200.145C316.293 200.176 316.434 200.211 316.512 200.25ZM325.523 210.832V204.305C325.523 203.805 325.422 203.371 325.219 203.004C325.023 202.629 324.727 202.34 324.328 202.137C323.93 201.934 323.438 201.832 322.852 201.832C322.305 201.832 321.824 201.926 321.41 202.113C321.004 202.301 320.684 202.547 320.449 202.852C320.223 203.156 320.109 203.484 320.109 203.836H317.941C317.941 203.383 318.059 202.934 318.293 202.488C318.527 202.043 318.863 201.641 319.301 201.281C319.746 200.914 320.277 200.625 320.895 200.414C321.52 200.195 322.215 200.086 322.98 200.086C323.902 200.086 324.715 200.242 325.418 200.555C326.129 200.867 326.684 201.34 327.082 201.973C327.488 202.598 327.691 203.383 327.691 204.328V210.234C327.691 210.656 327.727 211.105 327.797 211.582C327.875 212.059 327.988 212.469 328.137 212.812V213H325.875C325.766 212.75 325.68 212.418 325.617 212.004C325.555 211.582 325.523 211.191 325.523 210.832ZM325.898 205.312L325.922 206.836H323.73C323.113 206.836 322.562 206.887 322.078 206.988C321.594 207.082 321.188 207.227 320.859 207.422C320.531 207.617 320.281 207.863 320.109 208.16C319.938 208.449 319.852 208.789 319.852 209.18C319.852 209.578 319.941 209.941 320.121 210.27C320.301 210.598 320.57 210.859 320.93 211.055C321.297 211.242 321.746 211.336 322.277 211.336C322.941 211.336 323.527 211.195 324.035 210.914C324.543 210.633 324.945 210.289 325.242 209.883C325.547 209.477 325.711 209.082 325.734 208.699L326.66 209.742C326.605 210.07 326.457 210.434 326.215 210.832C325.973 211.23 325.648 211.613 325.242 211.98C324.844 212.34 324.367 212.641 323.812 212.883C323.266 213.117 322.648 213.234 321.961 213.234C321.102 213.234 320.348 213.066 319.699 212.73C319.059 212.395 318.559 211.945 318.199 211.383C317.848 210.812 317.672 210.176 317.672 209.473C317.672 208.793 317.805 208.195 318.07 207.68C318.336 207.156 318.719 206.723 319.219 206.379C319.719 206.027 320.32 205.762 321.023 205.582C321.727 205.402 322.512 205.312 323.379 205.312H325.898ZM333.457 195V213H331.277V195H333.457ZM342.199 213.234C341.316 213.234 340.516 213.086 339.797 212.789C339.086 212.484 338.473 212.059 337.957 211.512C337.449 210.965 337.059 210.316 336.785 209.566C336.512 208.816 336.375 207.996 336.375 207.105V206.613C336.375 205.582 336.527 204.664 336.832 203.859C337.137 203.047 337.551 202.359 338.074 201.797C338.598 201.234 339.191 200.809 339.855 200.52C340.52 200.23 341.207 200.086 341.918 200.086C342.824 200.086 343.605 200.242 344.262 200.555C344.926 200.867 345.469 201.305 345.891 201.867C346.312 202.422 346.625 203.078 346.828 203.836C347.031 204.586 347.133 205.406 347.133 206.297V207.27H337.664V205.5H344.965V205.336C344.934 204.773 344.816 204.227 344.613 203.695C344.418 203.164 344.105 202.727 343.676 202.383C343.246 202.039 342.66 201.867 341.918 201.867C341.426 201.867 340.973 201.973 340.559 202.184C340.145 202.387 339.789 202.691 339.492 203.098C339.195 203.504 338.965 204 338.801 204.586C338.637 205.172 338.555 205.848 338.555 206.613V207.105C338.555 207.707 338.637 208.273 338.801 208.805C338.973 209.328 339.219 209.789 339.539 210.188C339.867 210.586 340.262 210.898 340.723 211.125C341.191 211.352 341.723 211.465 342.316 211.465C343.082 211.465 343.73 211.309 344.262 210.996C344.793 210.684 345.258 210.266 345.656 209.742L346.969 210.785C346.695 211.199 346.348 211.594 345.926 211.969C345.504 212.344 344.984 212.648 344.367 212.883C343.758 213.117 343.035 213.234 342.199 213.234ZM357.047 209.637C357.047 209.324 356.977 209.035 356.836 208.77C356.703 208.496 356.426 208.25 356.004 208.031C355.59 207.805 354.965 207.609 354.129 207.445C353.426 207.297 352.789 207.121 352.219 206.918C351.656 206.715 351.176 206.469 350.777 206.18C350.387 205.891 350.086 205.551 349.875 205.16C349.664 204.77 349.559 204.312 349.559 203.789C349.559 203.289 349.668 202.816 349.887 202.371C350.113 201.926 350.43 201.531 350.836 201.188C351.25 200.844 351.746 200.574 352.324 200.379C352.902 200.184 353.547 200.086 354.258 200.086C355.273 200.086 356.141 200.266 356.859 200.625C357.578 200.984 358.129 201.465 358.512 202.066C358.895 202.66 359.086 203.32 359.086 204.047H356.918C356.918 203.695 356.812 203.355 356.602 203.027C356.398 202.691 356.098 202.414 355.699 202.195C355.309 201.977 354.828 201.867 354.258 201.867C353.656 201.867 353.168 201.961 352.793 202.148C352.426 202.328 352.156 202.559 351.984 202.84C351.82 203.121 351.738 203.418 351.738 203.73C351.738 203.965 351.777 204.176 351.855 204.363C351.941 204.543 352.09 204.711 352.301 204.867C352.512 205.016 352.809 205.156 353.191 205.289C353.574 205.422 354.062 205.555 354.656 205.688C355.695 205.922 356.551 206.203 357.223 206.531C357.895 206.859 358.395 207.262 358.723 207.738C359.051 208.215 359.215 208.793 359.215 209.473C359.215 210.027 359.098 210.535 358.863 210.996C358.637 211.457 358.305 211.855 357.867 212.191C357.438 212.52 356.922 212.777 356.32 212.965C355.727 213.145 355.059 213.234 354.316 213.234C353.199 213.234 352.254 213.035 351.48 212.637C350.707 212.238 350.121 211.723 349.723 211.09C349.324 210.457 349.125 209.789 349.125 209.086H351.305C351.336 209.68 351.508 210.152 351.82 210.504C352.133 210.848 352.516 211.094 352.969 211.242C353.422 211.383 353.871 211.453 354.316 211.453C354.91 211.453 355.406 211.375 355.805 211.219C356.211 211.062 356.52 210.848 356.73 210.574C356.941 210.301 357.047 209.988 357.047 209.637ZM375.398 209.637C375.398 209.324 375.328 209.035 375.188 208.77C375.055 208.496 374.777 208.25 374.355 208.031C373.941 207.805 373.316 207.609 372.48 207.445C371.777 207.297 371.141 207.121 370.57 206.918C370.008 206.715 369.527 206.469 369.129 206.18C368.738 205.891 368.438 205.551 368.227 205.16C368.016 204.77 367.91 204.312 367.91 203.789C367.91 203.289 368.02 202.816 368.238 202.371C368.465 201.926 368.781 201.531 369.188 201.188C369.602 200.844 370.098 200.574 370.676 200.379C371.254 200.184 371.898 200.086 372.609 200.086C373.625 200.086 374.492 200.266 375.211 200.625C375.93 200.984 376.48 201.465 376.863 202.066C377.246 202.66 377.438 203.32 377.438 204.047H375.27C375.27 203.695 375.164 203.355 374.953 203.027C374.75 202.691 374.449 202.414 374.051 202.195C373.66 201.977 373.18 201.867 372.609 201.867C372.008 201.867 371.52 201.961 371.145 202.148C370.777 202.328 370.508 202.559 370.336 202.84C370.172 203.121 370.09 203.418 370.09 203.73C370.09 203.965 370.129 204.176 370.207 204.363C370.293 204.543 370.441 204.711 370.652 204.867C370.863 205.016 371.16 205.156 371.543 205.289C371.926 205.422 372.414 205.555 373.008 205.688C374.047 205.922 374.902 206.203 375.574 206.531C376.246 206.859 376.746 207.262 377.074 207.738C377.402 208.215 377.566 208.793 377.566 209.473C377.566 210.027 377.449 210.535 377.215 210.996C376.988 211.457 376.656 211.855 376.219 212.191C375.789 212.52 375.273 212.777 374.672 212.965C374.078 213.145 373.41 213.234 372.668 213.234C371.551 213.234 370.605 213.035 369.832 212.637C369.059 212.238 368.473 211.723 368.074 211.09C367.676 210.457 367.477 209.789 367.477 209.086H369.656C369.688 209.68 369.859 210.152 370.172 210.504C370.484 210.848 370.867 211.094 371.32 211.242C371.773 211.383 372.223 211.453 372.668 211.453C373.262 211.453 373.758 211.375 374.156 211.219C374.562 211.062 374.871 210.848 375.082 210.574C375.293 210.301 375.398 209.988 375.398 209.637ZM385.676 213.234C384.793 213.234 383.992 213.086 383.273 212.789C382.562 212.484 381.949 212.059 381.434 211.512C380.926 210.965 380.535 210.316 380.262 209.566C379.988 208.816 379.852 207.996 379.852 207.105V206.613C379.852 205.582 380.004 204.664 380.309 203.859C380.613 203.047 381.027 202.359 381.551 201.797C382.074 201.234 382.668 200.809 383.332 200.52C383.996 200.23 384.684 200.086 385.395 200.086C386.301 200.086 387.082 200.242 387.738 200.555C388.402 200.867 388.945 201.305 389.367 201.867C389.789 202.422 390.102 203.078 390.305 203.836C390.508 204.586 390.609 205.406 390.609 206.297V207.27H381.141V205.5H388.441V205.336C388.41 204.773 388.293 204.227 388.09 203.695C387.895 203.164 387.582 202.727 387.152 202.383C386.723 202.039 386.137 201.867 385.395 201.867C384.902 201.867 384.449 201.973 384.035 202.184C383.621 202.387 383.266 202.691 382.969 203.098C382.672 203.504 382.441 204 382.277 204.586C382.113 205.172 382.031 205.848 382.031 206.613V207.105C382.031 207.707 382.113 208.273 382.277 208.805C382.449 209.328 382.695 209.789 383.016 210.188C383.344 210.586 383.738 210.898 384.199 211.125C384.668 211.352 385.199 211.465 385.793 211.465C386.559 211.465 387.207 211.309 387.738 210.996C388.27 210.684 388.734 210.266 389.133 209.742L390.445 210.785C390.172 211.199 389.824 211.594 389.402 211.969C388.98 212.344 388.461 212.648 387.844 212.883C387.234 213.117 386.512 213.234 385.676 213.234ZM401.355 200.32H403.324V212.73C403.324 213.848 403.098 214.801 402.645 215.59C402.191 216.379 401.559 216.977 400.746 217.383C399.941 217.797 399.012 218.004 397.957 218.004C397.52 218.004 397.004 217.934 396.41 217.793C395.824 217.66 395.246 217.43 394.676 217.102C394.113 216.781 393.641 216.348 393.258 215.801L394.395 214.512C394.926 215.152 395.48 215.598 396.059 215.848C396.645 216.098 397.223 216.223 397.793 216.223C398.48 216.223 399.074 216.094 399.574 215.836C400.074 215.578 400.461 215.195 400.734 214.688C401.016 214.188 401.156 213.57 401.156 212.836V203.109L401.355 200.32ZM392.625 206.801V206.555C392.625 205.586 392.738 204.707 392.965 203.918C393.199 203.121 393.531 202.438 393.961 201.867C394.398 201.297 394.926 200.859 395.543 200.555C396.16 200.242 396.855 200.086 397.629 200.086C398.426 200.086 399.121 200.227 399.715 200.508C400.316 200.781 400.824 201.184 401.238 201.715C401.66 202.238 401.992 202.871 402.234 203.613C402.477 204.355 402.645 205.195 402.738 206.133V207.211C402.652 208.141 402.484 208.977 402.234 209.719C401.992 210.461 401.66 211.094 401.238 211.617C400.824 212.141 400.316 212.543 399.715 212.824C399.113 213.098 398.41 213.234 397.605 213.234C396.848 213.234 396.16 213.074 395.543 212.754C394.934 212.434 394.41 211.984 393.973 211.406C393.535 210.828 393.199 210.148 392.965 209.367C392.738 208.578 392.625 207.723 392.625 206.801ZM394.793 206.555V206.801C394.793 207.434 394.855 208.027 394.98 208.582C395.113 209.137 395.312 209.625 395.578 210.047C395.852 210.469 396.199 210.801 396.621 211.043C397.043 211.277 397.547 211.395 398.133 211.395C398.852 211.395 399.445 211.242 399.914 210.938C400.383 210.633 400.754 210.23 401.027 209.73C401.309 209.23 401.527 208.688 401.684 208.102V205.277C401.598 204.848 401.465 204.434 401.285 204.035C401.113 203.629 400.887 203.27 400.605 202.957C400.332 202.637 399.992 202.383 399.586 202.195C399.18 202.008 398.703 201.914 398.156 201.914C397.562 201.914 397.051 202.039 396.621 202.289C396.199 202.531 395.852 202.867 395.578 203.297C395.312 203.719 395.113 204.211 394.98 204.773C394.855 205.328 394.793 205.922 394.793 206.555ZM414.375 210.07V200.32H416.555V213H414.48L414.375 210.07ZM414.785 207.398L415.688 207.375C415.688 208.219 415.598 209 415.418 209.719C415.246 210.43 414.965 211.047 414.574 211.57C414.184 212.094 413.672 212.504 413.039 212.801C412.406 213.09 411.637 213.234 410.73 213.234C410.113 213.234 409.547 213.145 409.031 212.965C408.523 212.785 408.086 212.508 407.719 212.133C407.352 211.758 407.066 211.27 406.863 210.668C406.668 210.066 406.57 209.344 406.57 208.5V200.32H408.738V208.523C408.738 209.094 408.801 209.566 408.926 209.941C409.059 210.309 409.234 210.602 409.453 210.82C409.68 211.031 409.93 211.18 410.203 211.266C410.484 211.352 410.773 211.395 411.07 211.395C411.992 211.395 412.723 211.219 413.262 210.867C413.801 210.508 414.188 210.027 414.422 209.426C414.664 208.816 414.785 208.141 414.785 207.398ZM422.027 202.312V213H419.859V200.32H421.969L422.027 202.312ZM425.988 200.25L425.977 202.266C425.797 202.227 425.625 202.203 425.461 202.195C425.305 202.18 425.125 202.172 424.922 202.172C424.422 202.172 423.98 202.25 423.598 202.406C423.215 202.562 422.891 202.781 422.625 203.062C422.359 203.344 422.148 203.68 421.992 204.07C421.844 204.453 421.746 204.875 421.699 205.336L421.09 205.688C421.09 204.922 421.164 204.203 421.312 203.531C421.469 202.859 421.707 202.266 422.027 201.75C422.348 201.227 422.754 200.82 423.246 200.531C423.746 200.234 424.34 200.086 425.027 200.086C425.184 200.086 425.363 200.105 425.566 200.145C425.77 200.176 425.91 200.211 425.988 200.25ZM435 210.832V204.305C435 203.805 434.898 203.371 434.695 203.004C434.5 202.629 434.203 202.34 433.805 202.137C433.406 201.934 432.914 201.832 432.328 201.832C431.781 201.832 431.301 201.926 430.887 202.113C430.48 202.301 430.16 202.547 429.926 202.852C429.699 203.156 429.586 203.484 429.586 203.836H427.418C427.418 203.383 427.535 202.934 427.77 202.488C428.004 202.043 428.34 201.641 428.777 201.281C429.223 200.914 429.754 200.625 430.371 200.414C430.996 200.195 431.691 200.086 432.457 200.086C433.379 200.086 434.191 200.242 434.895 200.555C435.605 200.867 436.16 201.34 436.559 201.973C436.965 202.598 437.168 203.383 437.168 204.328V210.234C437.168 210.656 437.203 211.105 437.273 211.582C437.352 212.059 437.465 212.469 437.613 212.812V213H435.352C435.242 212.75 435.156 212.418 435.094 212.004C435.031 211.582 435 211.191 435 210.832ZM435.375 205.312L435.398 206.836H433.207C432.59 206.836 432.039 206.887 431.555 206.988C431.07 207.082 430.664 207.227 430.336 207.422C430.008 207.617 429.758 207.863 429.586 208.16C429.414 208.449 429.328 208.789 429.328 209.18C429.328 209.578 429.418 209.941 429.598 210.27C429.777 210.598 430.047 210.859 430.406 211.055C430.773 211.242 431.223 211.336 431.754 211.336C432.418 211.336 433.004 211.195 433.512 210.914C434.02 210.633 434.422 210.289 434.719 209.883C435.023 209.477 435.188 209.082 435.211 208.699L436.137 209.742C436.082 210.07 435.934 210.434 435.691 210.832C435.449 211.23 435.125 211.613 434.719 211.98C434.32 212.34 433.844 212.641 433.289 212.883C432.742 213.117 432.125 213.234 431.438 213.234C430.578 213.234 429.824 213.066 429.176 212.73C428.535 212.395 428.035 211.945 427.676 211.383C427.324 210.812 427.148 210.176 427.148 209.473C427.148 208.793 427.281 208.195 427.547 207.68C427.812 207.156 428.195 206.723 428.695 206.379C429.195 206.027 429.797 205.762 430.5 205.582C431.203 205.402 431.988 205.312 432.855 205.312H435.375ZM447.961 209.637C447.961 209.324 447.891 209.035 447.75 208.77C447.617 208.496 447.34 208.25 446.918 208.031C446.504 207.805 445.879 207.609 445.043 207.445C444.34 207.297 443.703 207.121 443.133 206.918C442.57 206.715 442.09 206.469 441.691 206.18C441.301 205.891 441 205.551 440.789 205.16C440.578 204.77 440.473 204.312 440.473 203.789C440.473 203.289 440.582 202.816 440.801 202.371C441.027 201.926 441.344 201.531 441.75 201.188C442.164 200.844 442.66 200.574 443.238 200.379C443.816 200.184 444.461 200.086 445.172 200.086C446.188 200.086 447.055 200.266 447.773 200.625C448.492 200.984 449.043 201.465 449.426 202.066C449.809 202.66 450 203.32 450 204.047H447.832C447.832 203.695 447.727 203.355 447.516 203.027C447.312 202.691 447.012 202.414 446.613 202.195C446.223 201.977 445.742 201.867 445.172 201.867C444.57 201.867 444.082 201.961 443.707 202.148C443.34 202.328 443.07 202.559 442.898 202.84C442.734 203.121 442.652 203.418 442.652 203.73C442.652 203.965 442.691 204.176 442.77 204.363C442.855 204.543 443.004 204.711 443.215 204.867C443.426 205.016 443.723 205.156 444.105 205.289C444.488 205.422 444.977 205.555 445.57 205.688C446.609 205.922 447.465 206.203 448.137 206.531C448.809 206.859 449.309 207.262 449.637 207.738C449.965 208.215 450.129 208.793 450.129 209.473C450.129 210.027 450.012 210.535 449.777 210.996C449.551 211.457 449.219 211.855 448.781 212.191C448.352 212.52 447.836 212.777 447.234 212.965C446.641 213.145 445.973 213.234 445.23 213.234C444.113 213.234 443.168 213.035 442.395 212.637C441.621 212.238 441.035 211.723 440.637 211.09C440.238 210.457 440.039 209.789 440.039 209.086H442.219C442.25 209.68 442.422 210.152 442.734 210.504C443.047 210.848 443.43 211.094 443.883 211.242C444.336 211.383 444.785 211.453 445.23 211.453C445.824 211.453 446.32 211.375 446.719 211.219C447.125 211.062 447.434 210.848 447.645 210.574C447.855 210.301 447.961 209.988 447.961 209.637Z" fill="black"/>
<path d="M566.536 179.881C566.536 179.482 566.473 179.131 566.348 178.826C566.231 178.514 566.02 178.232 565.715 177.982C565.418 177.732 565.004 177.494 564.473 177.268C563.95 177.041 563.286 176.811 562.481 176.576C561.637 176.326 560.875 176.049 560.196 175.744C559.516 175.432 558.934 175.076 558.45 174.678C557.965 174.279 557.594 173.822 557.336 173.307C557.078 172.791 556.95 172.201 556.95 171.537C556.95 170.873 557.086 170.26 557.36 169.697C557.633 169.135 558.024 168.646 558.532 168.232C559.047 167.811 559.661 167.482 560.371 167.248C561.082 167.014 561.875 166.896 562.75 166.896C564.032 166.896 565.118 167.143 566.008 167.635C566.907 168.119 567.59 168.756 568.059 169.545C568.528 170.326 568.762 171.162 568.762 172.053H566.512C566.512 171.412 566.375 170.846 566.102 170.354C565.828 169.854 565.414 169.463 564.86 169.182C564.305 168.893 563.602 168.748 562.75 168.748C561.946 168.748 561.282 168.869 560.758 169.111C560.235 169.354 559.844 169.682 559.586 170.096C559.336 170.51 559.211 170.982 559.211 171.514C559.211 171.873 559.286 172.201 559.434 172.498C559.59 172.787 559.828 173.057 560.149 173.307C560.477 173.557 560.891 173.787 561.391 173.998C561.899 174.209 562.504 174.412 563.207 174.607C564.176 174.881 565.012 175.186 565.715 175.521C566.418 175.857 566.996 176.236 567.45 176.658C567.911 177.072 568.25 177.545 568.469 178.076C568.696 178.6 568.809 179.193 568.809 179.857C568.809 180.553 568.668 181.182 568.387 181.744C568.106 182.307 567.703 182.787 567.18 183.186C566.657 183.584 566.028 183.893 565.293 184.111C564.567 184.322 563.754 184.428 562.856 184.428C562.067 184.428 561.289 184.318 560.524 184.1C559.766 183.881 559.075 183.553 558.45 183.115C557.832 182.678 557.336 182.139 556.961 181.498C556.594 180.85 556.411 180.1 556.411 179.248H558.661C558.661 179.834 558.774 180.338 559 180.76C559.227 181.174 559.536 181.518 559.926 181.791C560.325 182.064 560.774 182.268 561.274 182.4C561.782 182.525 562.309 182.588 562.856 182.588C563.645 182.588 564.313 182.479 564.86 182.26C565.407 182.041 565.821 181.729 566.102 181.322C566.391 180.916 566.536 180.436 566.536 179.881ZM578.84 182.025V175.498C578.84 174.998 578.739 174.564 578.536 174.197C578.34 173.822 578.043 173.533 577.645 173.33C577.246 173.127 576.754 173.025 576.168 173.025C575.621 173.025 575.141 173.119 574.727 173.307C574.321 173.494 574 173.74 573.766 174.045C573.539 174.35 573.426 174.678 573.426 175.029H571.258C571.258 174.576 571.375 174.127 571.61 173.682C571.844 173.236 572.18 172.834 572.618 172.475C573.063 172.107 573.594 171.818 574.211 171.607C574.836 171.389 575.532 171.279 576.297 171.279C577.219 171.279 578.032 171.436 578.735 171.748C579.446 172.061 580 172.533 580.399 173.166C580.805 173.791 581.008 174.576 581.008 175.521V181.428C581.008 181.85 581.043 182.299 581.114 182.775C581.192 183.252 581.305 183.662 581.453 184.006V184.193H579.192C579.082 183.943 578.996 183.611 578.934 183.197C578.871 182.775 578.84 182.385 578.84 182.025ZM579.215 176.506L579.239 178.029H577.047C576.43 178.029 575.879 178.08 575.395 178.182C574.911 178.275 574.504 178.42 574.176 178.615C573.848 178.811 573.598 179.057 573.426 179.354C573.254 179.643 573.168 179.982 573.168 180.373C573.168 180.771 573.258 181.135 573.438 181.463C573.618 181.791 573.887 182.053 574.246 182.248C574.614 182.436 575.063 182.529 575.594 182.529C576.258 182.529 576.844 182.389 577.352 182.107C577.86 181.826 578.262 181.482 578.559 181.076C578.864 180.67 579.028 180.275 579.051 179.893L579.977 180.936C579.922 181.264 579.774 181.627 579.532 182.025C579.289 182.424 578.965 182.807 578.559 183.174C578.161 183.533 577.684 183.834 577.129 184.076C576.582 184.311 575.965 184.428 575.278 184.428C574.418 184.428 573.664 184.26 573.016 183.924C572.375 183.588 571.875 183.139 571.516 182.576C571.164 182.006 570.989 181.369 570.989 180.666C570.989 179.986 571.121 179.389 571.387 178.873C571.653 178.35 572.036 177.916 572.536 177.572C573.036 177.221 573.637 176.955 574.34 176.775C575.043 176.596 575.828 176.506 576.696 176.506H579.215ZM586.774 166.193V184.193H584.594V166.193H586.774ZM597.731 182.025V175.498C597.731 174.998 597.629 174.564 597.426 174.197C597.231 173.822 596.934 173.533 596.536 173.33C596.137 173.127 595.645 173.025 595.059 173.025C594.512 173.025 594.032 173.119 593.618 173.307C593.211 173.494 592.891 173.74 592.657 174.045C592.43 174.35 592.317 174.678 592.317 175.029H590.149C590.149 174.576 590.266 174.127 590.5 173.682C590.735 173.236 591.071 172.834 591.508 172.475C591.953 172.107 592.485 171.818 593.102 171.607C593.727 171.389 594.422 171.279 595.188 171.279C596.11 171.279 596.922 171.436 597.625 171.748C598.336 172.061 598.891 172.533 599.289 173.166C599.696 173.791 599.899 174.576 599.899 175.521V181.428C599.899 181.85 599.934 182.299 600.004 182.775C600.082 183.252 600.196 183.662 600.344 184.006V184.193H598.082C597.973 183.943 597.887 183.611 597.825 183.197C597.762 182.775 597.731 182.385 597.731 182.025ZM598.106 176.506L598.129 178.029H595.938C595.321 178.029 594.77 178.08 594.286 178.182C593.801 178.275 593.395 178.42 593.067 178.615C592.739 178.811 592.489 179.057 592.317 179.354C592.145 179.643 592.059 179.982 592.059 180.373C592.059 180.771 592.149 181.135 592.328 181.463C592.508 181.791 592.778 182.053 593.137 182.248C593.504 182.436 593.953 182.529 594.485 182.529C595.149 182.529 595.735 182.389 596.243 182.107C596.75 181.826 597.153 181.482 597.45 181.076C597.754 180.67 597.918 180.275 597.942 179.893L598.868 180.936C598.813 181.264 598.664 181.627 598.422 182.025C598.18 182.424 597.856 182.807 597.45 183.174C597.051 183.533 596.575 183.834 596.02 184.076C595.473 184.311 594.856 184.428 594.168 184.428C593.309 184.428 592.555 184.26 591.907 183.924C591.266 183.588 590.766 183.139 590.407 182.576C590.055 182.006 589.879 181.369 589.879 180.666C589.879 179.986 590.012 179.389 590.278 178.873C590.543 178.35 590.926 177.916 591.426 177.572C591.926 177.221 592.528 176.955 593.231 176.775C593.934 176.596 594.719 176.506 595.586 176.506H598.106ZM605.477 173.506V184.193H603.309V171.514H605.418L605.477 173.506ZM609.438 171.443L609.426 173.459C609.246 173.42 609.075 173.396 608.911 173.389C608.754 173.373 608.575 173.365 608.371 173.365C607.871 173.365 607.43 173.443 607.047 173.6C606.664 173.756 606.34 173.975 606.075 174.256C605.809 174.537 605.598 174.873 605.442 175.264C605.293 175.646 605.196 176.068 605.149 176.529L604.539 176.881C604.539 176.115 604.614 175.396 604.762 174.725C604.918 174.053 605.157 173.459 605.477 172.943C605.797 172.42 606.203 172.014 606.696 171.725C607.196 171.428 607.789 171.279 608.477 171.279C608.633 171.279 608.813 171.299 609.016 171.338C609.219 171.369 609.36 171.404 609.438 171.443ZM613.797 171.514V184.193H611.618V171.514H613.797ZM611.453 168.15C611.453 167.799 611.559 167.502 611.77 167.26C611.989 167.018 612.309 166.896 612.731 166.896C613.145 166.896 613.461 167.018 613.68 167.26C613.907 167.502 614.02 167.799 614.02 168.15C614.02 168.486 613.907 168.775 613.68 169.018C613.461 169.252 613.145 169.369 612.731 169.369C612.309 169.369 611.989 169.252 611.77 169.018C611.559 168.775 611.453 168.486 611.453 168.15ZM616.703 177.994V177.725C616.703 176.811 616.836 175.963 617.102 175.182C617.368 174.393 617.75 173.709 618.25 173.131C618.75 172.545 619.356 172.092 620.067 171.771C620.778 171.443 621.575 171.279 622.457 171.279C623.348 171.279 624.149 171.443 624.86 171.771C625.578 172.092 626.188 172.545 626.688 173.131C627.196 173.709 627.582 174.393 627.848 175.182C628.114 175.963 628.246 176.811 628.246 177.725V177.994C628.246 178.908 628.114 179.756 627.848 180.537C627.582 181.318 627.196 182.002 626.688 182.588C626.188 183.166 625.582 183.619 624.871 183.947C624.168 184.268 623.371 184.428 622.481 184.428C621.59 184.428 620.789 184.268 620.078 183.947C619.368 183.619 618.758 183.166 618.25 182.588C617.75 182.002 617.368 181.318 617.102 180.537C616.836 179.756 616.703 178.908 616.703 177.994ZM618.871 177.725V177.994C618.871 178.627 618.946 179.225 619.094 179.787C619.243 180.342 619.465 180.834 619.762 181.264C620.067 181.693 620.446 182.033 620.899 182.283C621.352 182.525 621.879 182.646 622.481 182.646C623.075 182.646 623.594 182.525 624.039 182.283C624.493 182.033 624.868 181.693 625.164 181.264C625.461 180.834 625.684 180.342 625.832 179.787C625.989 179.225 626.067 178.627 626.067 177.994V177.725C626.067 177.1 625.989 176.51 625.832 175.955C625.684 175.393 625.457 174.896 625.153 174.467C624.856 174.029 624.481 173.686 624.028 173.436C623.582 173.186 623.059 173.061 622.457 173.061C621.864 173.061 621.34 173.186 620.887 173.436C620.442 173.686 620.067 174.029 619.762 174.467C619.465 174.896 619.243 175.393 619.094 175.955C618.946 176.51 618.871 177.1 618.871 177.725ZM638.348 180.83C638.348 180.518 638.278 180.229 638.137 179.963C638.004 179.689 637.727 179.443 637.305 179.225C636.891 178.998 636.266 178.803 635.43 178.639C634.727 178.49 634.09 178.314 633.52 178.111C632.957 177.908 632.477 177.662 632.078 177.373C631.688 177.084 631.387 176.744 631.176 176.354C630.965 175.963 630.86 175.506 630.86 174.982C630.86 174.482 630.969 174.01 631.188 173.564C631.414 173.119 631.731 172.725 632.137 172.381C632.551 172.037 633.047 171.768 633.625 171.572C634.203 171.377 634.848 171.279 635.559 171.279C636.575 171.279 637.442 171.459 638.161 171.818C638.879 172.178 639.43 172.658 639.813 173.26C640.196 173.854 640.387 174.514 640.387 175.24H638.219C638.219 174.889 638.114 174.549 637.903 174.221C637.7 173.885 637.399 173.607 637 173.389C636.61 173.17 636.129 173.061 635.559 173.061C634.957 173.061 634.469 173.154 634.094 173.342C633.727 173.521 633.457 173.752 633.286 174.033C633.121 174.314 633.039 174.611 633.039 174.924C633.039 175.158 633.078 175.369 633.157 175.557C633.243 175.736 633.391 175.904 633.602 176.061C633.813 176.209 634.11 176.35 634.493 176.482C634.875 176.615 635.364 176.748 635.957 176.881C636.996 177.115 637.852 177.396 638.524 177.725C639.196 178.053 639.696 178.455 640.024 178.932C640.352 179.408 640.516 179.986 640.516 180.666C640.516 181.221 640.399 181.729 640.164 182.189C639.938 182.65 639.606 183.049 639.168 183.385C638.739 183.713 638.223 183.971 637.621 184.158C637.028 184.338 636.36 184.428 635.618 184.428C634.5 184.428 633.555 184.229 632.782 183.83C632.008 183.432 631.422 182.916 631.024 182.283C630.625 181.65 630.426 180.982 630.426 180.279H632.606C632.637 180.873 632.809 181.346 633.121 181.697C633.434 182.041 633.817 182.287 634.27 182.436C634.723 182.576 635.172 182.646 635.618 182.646C636.211 182.646 636.707 182.568 637.106 182.412C637.512 182.256 637.821 182.041 638.032 181.768C638.243 181.494 638.348 181.182 638.348 180.83ZM572.125 209.732V194.193H574.305V212.193H572.313L572.125 209.732ZM563.594 205.994V205.748C563.594 204.779 563.711 203.9 563.946 203.111C564.188 202.314 564.528 201.631 564.965 201.061C565.411 200.49 565.938 200.053 566.547 199.748C567.164 199.436 567.852 199.279 568.61 199.279C569.407 199.279 570.102 199.42 570.696 199.701C571.297 199.975 571.805 200.377 572.219 200.908C572.641 201.432 572.973 202.064 573.215 202.807C573.457 203.549 573.625 204.389 573.719 205.326V206.404C573.633 207.334 573.465 208.17 573.215 208.912C572.973 209.654 572.641 210.287 572.219 210.811C571.805 211.334 571.297 211.736 570.696 212.018C570.094 212.291 569.391 212.428 568.586 212.428C567.844 212.428 567.164 212.268 566.547 211.947C565.938 211.627 565.411 211.178 564.965 210.6C564.528 210.021 564.188 209.342 563.946 208.561C563.711 207.771 563.594 206.916 563.594 205.994ZM565.774 205.748V205.994C565.774 206.627 565.836 207.221 565.961 207.775C566.094 208.33 566.297 208.818 566.571 209.24C566.844 209.662 567.192 209.994 567.614 210.236C568.036 210.471 568.539 210.588 569.125 210.588C569.844 210.588 570.434 210.436 570.895 210.131C571.364 209.826 571.739 209.424 572.02 208.924C572.301 208.424 572.52 207.881 572.676 207.295V204.471C572.582 204.041 572.446 203.627 572.266 203.229C572.094 202.822 571.868 202.463 571.586 202.15C571.313 201.83 570.973 201.576 570.567 201.389C570.168 201.201 569.696 201.107 569.149 201.107C568.555 201.107 568.043 201.232 567.614 201.482C567.192 201.725 566.844 202.061 566.571 202.49C566.297 202.912 566.094 203.404 565.961 203.967C565.836 204.521 565.774 205.115 565.774 205.748ZM580.036 199.514V212.193H577.856V199.514H580.036ZM577.692 196.15C577.692 195.799 577.797 195.502 578.008 195.26C578.227 195.018 578.547 194.896 578.969 194.896C579.383 194.896 579.7 195.018 579.918 195.26C580.145 195.502 580.258 195.799 580.258 196.15C580.258 196.486 580.145 196.775 579.918 197.018C579.7 197.252 579.383 197.369 578.969 197.369C578.547 197.369 578.227 197.252 578.008 197.018C577.797 196.775 577.692 196.486 577.692 196.15ZM591.731 199.514H593.7V211.924C593.7 213.041 593.473 213.994 593.02 214.783C592.567 215.572 591.934 216.17 591.121 216.576C590.317 216.99 589.387 217.197 588.332 217.197C587.895 217.197 587.379 217.127 586.786 216.986C586.2 216.854 585.621 216.623 585.051 216.295C584.489 215.975 584.016 215.541 583.633 214.994L584.77 213.705C585.301 214.346 585.856 214.791 586.434 215.041C587.02 215.291 587.598 215.416 588.168 215.416C588.856 215.416 589.45 215.287 589.95 215.029C590.45 214.771 590.836 214.389 591.11 213.881C591.391 213.381 591.532 212.764 591.532 212.029V202.303L591.731 199.514ZM583 205.994V205.748C583 204.779 583.114 203.9 583.34 203.111C583.575 202.314 583.907 201.631 584.336 201.061C584.774 200.49 585.301 200.053 585.918 199.748C586.536 199.436 587.231 199.279 588.004 199.279C588.801 199.279 589.496 199.42 590.09 199.701C590.692 199.975 591.2 200.377 591.614 200.908C592.036 201.432 592.368 202.064 592.61 202.807C592.852 203.549 593.02 204.389 593.114 205.326V206.404C593.028 207.334 592.86 208.17 592.61 208.912C592.368 209.654 592.036 210.287 591.614 210.811C591.2 211.334 590.692 211.736 590.09 212.018C589.489 212.291 588.786 212.428 587.981 212.428C587.223 212.428 586.536 212.268 585.918 211.947C585.309 211.627 584.786 211.178 584.348 210.6C583.911 210.021 583.575 209.342 583.34 208.561C583.114 207.771 583 206.916 583 205.994ZM585.168 205.748V205.994C585.168 206.627 585.231 207.221 585.356 207.775C585.489 208.33 585.688 208.818 585.953 209.24C586.227 209.662 586.575 209.994 586.996 210.236C587.418 210.471 587.922 210.588 588.508 210.588C589.227 210.588 589.821 210.436 590.289 210.131C590.758 209.826 591.129 209.424 591.403 208.924C591.684 208.424 591.903 207.881 592.059 207.295V204.471C591.973 204.041 591.84 203.627 591.661 203.229C591.489 202.822 591.262 202.463 590.981 202.15C590.707 201.83 590.368 201.576 589.961 201.389C589.555 201.201 589.078 201.107 588.532 201.107C587.938 201.107 587.426 201.232 586.996 201.482C586.575 201.725 586.227 202.061 585.953 202.49C585.688 202.912 585.489 203.404 585.356 203.967C585.231 204.521 585.168 205.115 585.168 205.748ZM599.161 202.221V212.193H596.993V199.514H599.043L599.161 202.221ZM598.645 205.373L597.743 205.338C597.75 204.471 597.879 203.67 598.129 202.936C598.379 202.193 598.731 201.549 599.184 201.002C599.637 200.455 600.176 200.033 600.801 199.736C601.434 199.432 602.133 199.279 602.899 199.279C603.524 199.279 604.086 199.365 604.586 199.537C605.086 199.701 605.512 199.967 605.864 200.334C606.223 200.701 606.496 201.178 606.684 201.764C606.871 202.342 606.965 203.049 606.965 203.885V212.193H604.786V203.861C604.786 203.197 604.688 202.666 604.493 202.268C604.297 201.861 604.012 201.568 603.637 201.389C603.262 201.201 602.801 201.107 602.254 201.107C601.715 201.107 601.223 201.221 600.778 201.447C600.34 201.674 599.961 201.986 599.641 202.385C599.328 202.783 599.082 203.24 598.903 203.756C598.731 204.264 598.645 204.803 598.645 205.373ZM609.684 205.994V205.725C609.684 204.811 609.817 203.963 610.082 203.182C610.348 202.393 610.731 201.709 611.231 201.131C611.731 200.545 612.336 200.092 613.047 199.771C613.758 199.443 614.555 199.279 615.438 199.279C616.328 199.279 617.129 199.443 617.84 199.771C618.559 200.092 619.168 200.545 619.668 201.131C620.176 201.709 620.563 202.393 620.828 203.182C621.094 203.963 621.227 204.811 621.227 205.725V205.994C621.227 206.908 621.094 207.756 620.828 208.537C620.563 209.318 620.176 210.002 619.668 210.588C619.168 211.166 618.563 211.619 617.852 211.947C617.149 212.268 616.352 212.428 615.461 212.428C614.571 212.428 613.77 212.268 613.059 211.947C612.348 211.619 611.739 211.166 611.231 210.588C610.731 210.002 610.348 209.318 610.082 208.537C609.817 207.756 609.684 206.908 609.684 205.994ZM611.852 205.725V205.994C611.852 206.627 611.926 207.225 612.075 207.787C612.223 208.342 612.446 208.834 612.743 209.264C613.047 209.693 613.426 210.033 613.879 210.283C614.332 210.525 614.86 210.646 615.461 210.646C616.055 210.646 616.575 210.525 617.02 210.283C617.473 210.033 617.848 209.693 618.145 209.264C618.442 208.834 618.664 208.342 618.813 207.787C618.969 207.225 619.047 206.627 619.047 205.994V205.725C619.047 205.1 618.969 204.51 618.813 203.955C618.664 203.393 618.438 202.896 618.133 202.467C617.836 202.029 617.461 201.686 617.008 201.436C616.563 201.186 616.039 201.061 615.438 201.061C614.844 201.061 614.321 201.186 613.868 201.436C613.422 201.686 613.047 202.029 612.743 202.467C612.446 202.896 612.223 203.393 612.075 203.955C611.926 204.51 611.852 205.1 611.852 205.725ZM631.328 208.83C631.328 208.518 631.258 208.229 631.118 207.963C630.985 207.689 630.707 207.443 630.286 207.225C629.871 206.998 629.246 206.803 628.411 206.639C627.707 206.49 627.071 206.314 626.5 206.111C625.938 205.908 625.457 205.662 625.059 205.373C624.668 205.084 624.368 204.744 624.157 204.354C623.946 203.963 623.84 203.506 623.84 202.982C623.84 202.482 623.95 202.01 624.168 201.564C624.395 201.119 624.711 200.725 625.118 200.381C625.532 200.037 626.028 199.768 626.606 199.572C627.184 199.377 627.828 199.279 628.539 199.279C629.555 199.279 630.422 199.459 631.141 199.818C631.86 200.178 632.411 200.658 632.793 201.26C633.176 201.854 633.368 202.514 633.368 203.24H631.2C631.2 202.889 631.094 202.549 630.883 202.221C630.68 201.885 630.379 201.607 629.981 201.389C629.59 201.17 629.11 201.061 628.539 201.061C627.938 201.061 627.45 201.154 627.075 201.342C626.707 201.521 626.438 201.752 626.266 202.033C626.102 202.314 626.02 202.611 626.02 202.924C626.02 203.158 626.059 203.369 626.137 203.557C626.223 203.736 626.371 203.904 626.582 204.061C626.793 204.209 627.09 204.35 627.473 204.482C627.856 204.615 628.344 204.748 628.938 204.881C629.977 205.115 630.832 205.396 631.504 205.725C632.176 206.053 632.676 206.455 633.004 206.932C633.332 207.408 633.496 207.986 633.496 208.666C633.496 209.221 633.379 209.729 633.145 210.189C632.918 210.65 632.586 211.049 632.149 211.385C631.719 211.713 631.203 211.971 630.602 212.158C630.008 212.338 629.34 212.428 628.598 212.428C627.481 212.428 626.536 212.229 625.762 211.83C624.989 211.432 624.403 210.916 624.004 210.283C623.606 209.65 623.407 208.982 623.407 208.279H625.586C625.618 208.873 625.789 209.346 626.102 209.697C626.414 210.041 626.797 210.287 627.25 210.436C627.703 210.576 628.153 210.646 628.598 210.646C629.192 210.646 629.688 210.568 630.086 210.412C630.493 210.256 630.801 210.041 631.012 209.768C631.223 209.494 631.328 209.182 631.328 208.83Z" fill="black"/>
<defs>
<filter id="filter0_d_1141_250" x="718" y="0" width="276" height="276" filterUnits="userSpaceOnUse" color-interpolation-filters="sRGB">
<feFlood flood-opacity="0" result="BackgroundImageFix"/>
<feColorMatrix in="SourceAlpha" type="matrix" values="0 0 0 0 0 0 0 0 0 0 0 0 0 0 0 0 0 0 127 0" result="hardAlpha"/>
<feOffset dy="4"/>
<feGaussianBlur stdDeviation="2"/>
<feComposite in2="hardAlpha" operator="out"/>
<feColorMatrix type="matrix" values="0 0 0 0 0 0 0 0 0 0 0 0 0 0 0 0 0 0 0.25 0"/>
<feBlend mode="normal" in2="BackgroundImageFix" result="effect1_dropShadow_1141_250"/>
<feBlend mode="normal" in="SourceGraphic" in2="effect1_dropShadow_1141_250" result="shape"/>
</filter>
</defs>
</svg>
