<svg width="965" height="277" viewBox="0 0 965 277" fill="none" xmlns="http://www.w3.org/2000/svg">
<path d="M204 33H895C933.66 33 965 64.3401 965 103V172C965 210.66 933.66 242 895 242H204V33Z" fill="#D3FFBF"/>
<g filter="url(#filter0_d_1141_239)">
<ellipse cx="138.747" cy="134.248" rx="134" ry="134.5" transform="rotate(89.8944 138.747 134.248)" fill="#D3FFBF"/>
</g>
<path d="M320.996 191.309H316.438V189.469H320.996C321.879 189.469 322.594 189.328 323.141 189.047C323.688 188.766 324.086 188.375 324.336 187.875C324.594 187.375 324.723 186.805 324.723 186.164C324.723 185.578 324.594 185.027 324.336 184.512C324.086 183.996 323.688 183.582 323.141 183.27C322.594 182.949 321.879 182.789 320.996 182.789H316.965V198H314.703V180.938H320.996C322.285 180.938 323.375 181.16 324.266 181.605C325.156 182.051 325.832 182.668 326.293 183.457C326.754 184.238 326.984 185.133 326.984 186.141C326.984 187.234 326.754 188.168 326.293 188.941C325.832 189.715 325.156 190.305 324.266 190.711C323.375 191.109 322.285 191.309 320.996 191.309ZM331.871 180V198H329.691V180H331.871ZM342.828 195.832V189.305C342.828 188.805 342.727 188.371 342.523 188.004C342.328 187.629 342.031 187.34 341.633 187.137C341.234 186.934 340.742 186.832 340.156 186.832C339.609 186.832 339.129 186.926 338.715 187.113C338.309 187.301 337.988 187.547 337.754 187.852C337.527 188.156 337.414 188.484 337.414 188.836H335.246C335.246 188.383 335.363 187.934 335.598 187.488C335.832 187.043 336.168 186.641 336.605 186.281C337.051 185.914 337.582 185.625 338.199 185.414C338.824 185.195 339.52 185.086 340.285 185.086C341.207 185.086 342.02 185.242 342.723 185.555C343.434 185.867 343.988 186.34 344.387 186.973C344.793 187.598 344.996 188.383 344.996 189.328V195.234C344.996 195.656 345.031 196.105 345.102 196.582C345.18 197.059 345.293 197.469 345.441 197.812V198H343.18C343.07 197.75 342.984 197.418 342.922 197.004C342.859 196.582 342.828 196.191 342.828 195.832ZM343.203 190.312L343.227 191.836H341.035C340.418 191.836 339.867 191.887 339.383 191.988C338.898 192.082 338.492 192.227 338.164 192.422C337.836 192.617 337.586 192.863 337.414 193.16C337.242 193.449 337.156 193.789 337.156 194.18C337.156 194.578 337.246 194.941 337.426 195.27C337.605 195.598 337.875 195.859 338.234 196.055C338.602 196.242 339.051 196.336 339.582 196.336C340.246 196.336 340.832 196.195 341.34 195.914C341.848 195.633 342.25 195.289 342.547 194.883C342.852 194.477 343.016 194.082 343.039 193.699L343.965 194.742C343.91 195.07 343.762 195.434 343.52 195.832C343.277 196.23 342.953 196.613 342.547 196.98C342.148 197.34 341.672 197.641 341.117 197.883C340.57 198.117 339.953 198.234 339.266 198.234C338.406 198.234 337.652 198.066 337.004 197.73C336.363 197.395 335.863 196.945 335.504 196.383C335.152 195.812 334.977 195.176 334.977 194.473C334.977 193.793 335.109 193.195 335.375 192.68C335.641 192.156 336.023 191.723 336.523 191.379C337.023 191.027 337.625 190.762 338.328 190.582C339.031 190.402 339.816 190.312 340.684 190.312H343.203ZM350.574 188.027V198H348.406V185.32H350.457L350.574 188.027ZM350.059 191.18L349.156 191.145C349.164 190.277 349.293 189.477 349.543 188.742C349.793 188 350.145 187.355 350.598 186.809C351.051 186.262 351.59 185.84 352.215 185.543C352.848 185.238 353.547 185.086 354.312 185.086C354.938 185.086 355.5 185.172 356 185.344C356.5 185.508 356.926 185.773 357.277 186.141C357.637 186.508 357.91 186.984 358.098 187.57C358.285 188.148 358.379 188.855 358.379 189.691V198H356.199V189.668C356.199 189.004 356.102 188.473 355.906 188.074C355.711 187.668 355.426 187.375 355.051 187.195C354.676 187.008 354.215 186.914 353.668 186.914C353.129 186.914 352.637 187.027 352.191 187.254C351.754 187.48 351.375 187.793 351.055 188.191C350.742 188.59 350.496 189.047 350.316 189.562C350.145 190.07 350.059 190.609 350.059 191.18ZM366.98 185.32V186.984H360.125V185.32H366.98ZM362.445 182.238H364.613V194.859C364.613 195.289 364.68 195.613 364.812 195.832C364.945 196.051 365.117 196.195 365.328 196.266C365.539 196.336 365.766 196.371 366.008 196.371C366.188 196.371 366.375 196.355 366.57 196.324C366.773 196.285 366.926 196.254 367.027 196.23L367.039 198C366.867 198.055 366.641 198.105 366.359 198.152C366.086 198.207 365.754 198.234 365.363 198.234C364.832 198.234 364.344 198.129 363.898 197.918C363.453 197.707 363.098 197.355 362.832 196.863C362.574 196.363 362.445 195.691 362.445 194.848V182.238ZM377 195.832V189.305C377 188.805 376.898 188.371 376.695 188.004C376.5 187.629 376.203 187.34 375.805 187.137C375.406 186.934 374.914 186.832 374.328 186.832C373.781 186.832 373.301 186.926 372.887 187.113C372.48 187.301 372.16 187.547 371.926 187.852C371.699 188.156 371.586 188.484 371.586 188.836H369.418C369.418 188.383 369.535 187.934 369.77 187.488C370.004 187.043 370.34 186.641 370.777 186.281C371.223 185.914 371.754 185.625 372.371 185.414C372.996 185.195 373.691 185.086 374.457 185.086C375.379 185.086 376.191 185.242 376.895 185.555C377.605 185.867 378.16 186.34 378.559 186.973C378.965 187.598 379.168 188.383 379.168 189.328V195.234C379.168 195.656 379.203 196.105 379.273 196.582C379.352 197.059 379.465 197.469 379.613 197.812V198H377.352C377.242 197.75 377.156 197.418 377.094 197.004C377.031 196.582 377 196.191 377 195.832ZM377.375 190.312L377.398 191.836H375.207C374.59 191.836 374.039 191.887 373.555 191.988C373.07 192.082 372.664 192.227 372.336 192.422C372.008 192.617 371.758 192.863 371.586 193.16C371.414 193.449 371.328 193.789 371.328 194.18C371.328 194.578 371.418 194.941 371.598 195.27C371.777 195.598 372.047 195.859 372.406 196.055C372.773 196.242 373.223 196.336 373.754 196.336C374.418 196.336 375.004 196.195 375.512 195.914C376.02 195.633 376.422 195.289 376.719 194.883C377.023 194.477 377.188 194.082 377.211 193.699L378.137 194.742C378.082 195.07 377.934 195.434 377.691 195.832C377.449 196.23 377.125 196.613 376.719 196.98C376.32 197.34 375.844 197.641 375.289 197.883C374.742 198.117 374.125 198.234 373.438 198.234C372.578 198.234 371.824 198.066 371.176 197.73C370.535 197.395 370.035 196.945 369.676 196.383C369.324 195.812 369.148 195.176 369.148 194.473C369.148 193.793 369.281 193.195 369.547 192.68C369.812 192.156 370.195 191.723 370.695 191.379C371.195 191.027 371.797 190.762 372.5 190.582C373.203 190.402 373.988 190.312 374.855 190.312H377.375ZM387.652 196.453C388.168 196.453 388.645 196.348 389.082 196.137C389.52 195.926 389.879 195.637 390.16 195.27C390.441 194.895 390.602 194.469 390.641 193.992H392.703C392.664 194.742 392.41 195.441 391.941 196.09C391.48 196.73 390.875 197.25 390.125 197.648C389.375 198.039 388.551 198.234 387.652 198.234C386.699 198.234 385.867 198.066 385.156 197.73C384.453 197.395 383.867 196.934 383.398 196.348C382.938 195.762 382.59 195.09 382.355 194.332C382.129 193.566 382.016 192.758 382.016 191.906V191.414C382.016 190.562 382.129 189.758 382.355 189C382.59 188.234 382.938 187.559 383.398 186.973C383.867 186.387 384.453 185.926 385.156 185.59C385.867 185.254 386.699 185.086 387.652 185.086C388.645 185.086 389.512 185.289 390.254 185.695C390.996 186.094 391.578 186.641 392 187.336C392.43 188.023 392.664 188.805 392.703 189.68H390.641C390.602 189.156 390.453 188.684 390.195 188.262C389.945 187.84 389.602 187.504 389.164 187.254C388.734 186.996 388.23 186.867 387.652 186.867C386.988 186.867 386.43 187 385.977 187.266C385.531 187.523 385.176 187.875 384.91 188.32C384.652 188.758 384.465 189.246 384.348 189.785C384.238 190.316 384.184 190.859 384.184 191.414V191.906C384.184 192.461 384.238 193.008 384.348 193.547C384.457 194.086 384.641 194.574 384.898 195.012C385.164 195.449 385.52 195.801 385.965 196.066C386.418 196.324 386.98 196.453 387.652 196.453ZM397.496 185.32V198H395.316V185.32H397.496ZM395.152 181.957C395.152 181.605 395.258 181.309 395.469 181.066C395.688 180.824 396.008 180.703 396.43 180.703C396.844 180.703 397.16 180.824 397.379 181.066C397.605 181.309 397.719 181.605 397.719 181.957C397.719 182.293 397.605 182.582 397.379 182.824C397.16 183.059 396.844 183.176 396.43 183.176C396.008 183.176 395.688 183.059 395.469 182.824C395.258 182.582 395.152 182.293 395.152 181.957ZM400.402 191.801V191.531C400.402 190.617 400.535 189.77 400.801 188.988C401.066 188.199 401.449 187.516 401.949 186.938C402.449 186.352 403.055 185.898 403.766 185.578C404.477 185.25 405.273 185.086 406.156 185.086C407.047 185.086 407.848 185.25 408.559 185.578C409.277 185.898 409.887 186.352 410.387 186.938C410.895 187.516 411.281 188.199 411.547 188.988C411.812 189.77 411.945 190.617 411.945 191.531V191.801C411.945 192.715 411.812 193.562 411.547 194.344C411.281 195.125 410.895 195.809 410.387 196.395C409.887 196.973 409.281 197.426 408.57 197.754C407.867 198.074 407.07 198.234 406.18 198.234C405.289 198.234 404.488 198.074 403.777 197.754C403.066 197.426 402.457 196.973 401.949 196.395C401.449 195.809 401.066 195.125 400.801 194.344C400.535 193.562 400.402 192.715 400.402 191.801ZM402.57 191.531V191.801C402.57 192.434 402.645 193.031 402.793 193.594C402.941 194.148 403.164 194.641 403.461 195.07C403.766 195.5 404.145 195.84 404.598 196.09C405.051 196.332 405.578 196.453 406.18 196.453C406.773 196.453 407.293 196.332 407.738 196.09C408.191 195.84 408.566 195.5 408.863 195.07C409.16 194.641 409.383 194.148 409.531 193.594C409.688 193.031 409.766 192.434 409.766 191.801V191.531C409.766 190.906 409.688 190.316 409.531 189.762C409.383 189.199 409.156 188.703 408.852 188.273C408.555 187.836 408.18 187.492 407.727 187.242C407.281 186.992 406.758 186.867 406.156 186.867C405.562 186.867 405.039 186.992 404.586 187.242C404.141 187.492 403.766 187.836 403.461 188.273C403.164 188.703 402.941 189.199 402.793 189.762C402.645 190.316 402.57 190.906 402.57 191.531ZM404.867 183.445L407.141 180H409.754L406.613 183.445H404.867ZM416.832 188.027V198H414.664V185.32H416.715L416.832 188.027ZM416.316 191.18L415.414 191.145C415.422 190.277 415.551 189.477 415.801 188.742C416.051 188 416.402 187.355 416.855 186.809C417.309 186.262 417.848 185.84 418.473 185.543C419.105 185.238 419.805 185.086 420.57 185.086C421.195 185.086 421.758 185.172 422.258 185.344C422.758 185.508 423.184 185.773 423.535 186.141C423.895 186.508 424.168 186.984 424.355 187.57C424.543 188.148 424.637 188.855 424.637 189.691V198H422.457V189.668C422.457 189.004 422.359 188.473 422.164 188.074C421.969 187.668 421.684 187.375 421.309 187.195C420.934 187.008 420.473 186.914 419.926 186.914C419.387 186.914 418.895 187.027 418.449 187.254C418.012 187.48 417.633 187.793 417.312 188.191C417 188.59 416.754 189.047 416.574 189.562C416.402 190.07 416.316 190.609 416.316 191.18ZM323.375 223.539V208H325.555V226H323.562L323.375 223.539ZM314.844 219.801V219.555C314.844 218.586 314.961 217.707 315.195 216.918C315.438 216.121 315.777 215.438 316.215 214.867C316.66 214.297 317.188 213.859 317.797 213.555C318.414 213.242 319.102 213.086 319.859 213.086C320.656 213.086 321.352 213.227 321.945 213.508C322.547 213.781 323.055 214.184 323.469 214.715C323.891 215.238 324.223 215.871 324.465 216.613C324.707 217.355 324.875 218.195 324.969 219.133V220.211C324.883 221.141 324.715 221.977 324.465 222.719C324.223 223.461 323.891 224.094 323.469 224.617C323.055 225.141 322.547 225.543 321.945 225.824C321.344 226.098 320.641 226.234 319.836 226.234C319.094 226.234 318.414 226.074 317.797 225.754C317.188 225.434 316.66 224.984 316.215 224.406C315.777 223.828 315.438 223.148 315.195 222.367C314.961 221.578 314.844 220.723 314.844 219.801ZM317.023 219.555V219.801C317.023 220.434 317.086 221.027 317.211 221.582C317.344 222.137 317.547 222.625 317.82 223.047C318.094 223.469 318.441 223.801 318.863 224.043C319.285 224.277 319.789 224.395 320.375 224.395C321.094 224.395 321.684 224.242 322.145 223.938C322.613 223.633 322.988 223.23 323.27 222.73C323.551 222.23 323.77 221.688 323.926 221.102V218.277C323.832 217.848 323.695 217.434 323.516 217.035C323.344 216.629 323.117 216.27 322.836 215.957C322.562 215.637 322.223 215.383 321.816 215.195C321.418 215.008 320.945 214.914 320.398 214.914C319.805 214.914 319.293 215.039 318.863 215.289C318.441 215.531 318.094 215.867 317.82 216.297C317.547 216.719 317.344 217.211 317.211 217.773C317.086 218.328 317.023 218.922 317.023 219.555ZM334.191 226.234C333.309 226.234 332.508 226.086 331.789 225.789C331.078 225.484 330.465 225.059 329.949 224.512C329.441 223.965 329.051 223.316 328.777 222.566C328.504 221.816 328.367 220.996 328.367 220.105V219.613C328.367 218.582 328.52 217.664 328.824 216.859C329.129 216.047 329.543 215.359 330.066 214.797C330.59 214.234 331.184 213.809 331.848 213.52C332.512 213.23 333.199 213.086 333.91 213.086C334.816 213.086 335.598 213.242 336.254 213.555C336.918 213.867 337.461 214.305 337.883 214.867C338.305 215.422 338.617 216.078 338.82 216.836C339.023 217.586 339.125 218.406 339.125 219.297V220.27H329.656V218.5H336.957V218.336C336.926 217.773 336.809 217.227 336.605 216.695C336.41 216.164 336.098 215.727 335.668 215.383C335.238 215.039 334.652 214.867 333.91 214.867C333.418 214.867 332.965 214.973 332.551 215.184C332.137 215.387 331.781 215.691 331.484 216.098C331.188 216.504 330.957 217 330.793 217.586C330.629 218.172 330.547 218.848 330.547 219.613V220.105C330.547 220.707 330.629 221.273 330.793 221.805C330.965 222.328 331.211 222.789 331.531 223.188C331.859 223.586 332.254 223.898 332.715 224.125C333.184 224.352 333.715 224.465 334.309 224.465C335.074 224.465 335.723 224.309 336.254 223.996C336.785 223.684 337.25 223.266 337.648 222.742L338.961 223.785C338.688 224.199 338.34 224.594 337.918 224.969C337.496 225.344 336.977 225.648 336.359 225.883C335.75 226.117 335.027 226.234 334.191 226.234ZM355.086 223.832V217.305C355.086 216.805 354.984 216.371 354.781 216.004C354.586 215.629 354.289 215.34 353.891 215.137C353.492 214.934 353 214.832 352.414 214.832C351.867 214.832 351.387 214.926 350.973 215.113C350.566 215.301 350.246 215.547 350.012 215.852C349.785 216.156 349.672 216.484 349.672 216.836H347.504C347.504 216.383 347.621 215.934 347.855 215.488C348.09 215.043 348.426 214.641 348.863 214.281C349.309 213.914 349.84 213.625 350.457 213.414C351.082 213.195 351.777 213.086 352.543 213.086C353.465 213.086 354.277 213.242 354.98 213.555C355.691 213.867 356.246 214.34 356.645 214.973C357.051 215.598 357.254 216.383 357.254 217.328V223.234C357.254 223.656 357.289 224.105 357.359 224.582C357.438 225.059 357.551 225.469 357.699 225.812V226H355.438C355.328 225.75 355.242 225.418 355.18 225.004C355.117 224.582 355.086 224.191 355.086 223.832ZM355.461 218.312L355.484 219.836H353.293C352.676 219.836 352.125 219.887 351.641 219.988C351.156 220.082 350.75 220.227 350.422 220.422C350.094 220.617 349.844 220.863 349.672 221.16C349.5 221.449 349.414 221.789 349.414 222.18C349.414 222.578 349.504 222.941 349.684 223.27C349.863 223.598 350.133 223.859 350.492 224.055C350.859 224.242 351.309 224.336 351.84 224.336C352.504 224.336 353.09 224.195 353.598 223.914C354.105 223.633 354.508 223.289 354.805 222.883C355.109 222.477 355.273 222.082 355.297 221.699L356.223 222.742C356.168 223.07 356.02 223.434 355.777 223.832C355.535 224.23 355.211 224.613 354.805 224.98C354.406 225.34 353.93 225.641 353.375 225.883C352.828 226.117 352.211 226.234 351.523 226.234C350.664 226.234 349.91 226.066 349.262 225.73C348.621 225.395 348.121 224.945 347.762 224.383C347.41 223.812 347.234 223.176 347.234 222.473C347.234 221.793 347.367 221.195 347.633 220.68C347.898 220.156 348.281 219.723 348.781 219.379C349.281 219.027 349.883 218.762 350.586 218.582C351.289 218.402 352.074 218.312 352.941 218.312H355.461ZM351.582 211.445L353.855 208H356.469L353.328 211.445H351.582ZM362.832 215.312V226H360.664V213.32H362.773L362.832 215.312ZM366.793 213.25L366.781 215.266C366.602 215.227 366.43 215.203 366.266 215.195C366.109 215.18 365.93 215.172 365.727 215.172C365.227 215.172 364.785 215.25 364.402 215.406C364.02 215.562 363.695 215.781 363.43 216.062C363.164 216.344 362.953 216.68 362.797 217.07C362.648 217.453 362.551 217.875 362.504 218.336L361.895 218.688C361.895 217.922 361.969 217.203 362.117 216.531C362.273 215.859 362.512 215.266 362.832 214.75C363.152 214.227 363.559 213.82 364.051 213.531C364.551 213.234 365.145 213.086 365.832 213.086C365.988 213.086 366.168 213.105 366.371 213.145C366.574 213.176 366.715 213.211 366.793 213.25ZM368.785 208H370.965V223.539L370.777 226H368.785V208ZM379.531 219.555V219.801C379.531 220.723 379.422 221.578 379.203 222.367C378.984 223.148 378.664 223.828 378.242 224.406C377.82 224.984 377.305 225.434 376.695 225.754C376.086 226.074 375.387 226.234 374.598 226.234C373.793 226.234 373.086 226.098 372.477 225.824C371.875 225.543 371.367 225.141 370.953 224.617C370.539 224.094 370.207 223.461 369.957 222.719C369.715 221.977 369.547 221.141 369.453 220.211V219.133C369.547 218.195 369.715 217.355 369.957 216.613C370.207 215.871 370.539 215.238 370.953 214.715C371.367 214.184 371.875 213.781 372.477 213.508C373.078 213.227 373.777 213.086 374.574 213.086C375.371 213.086 376.078 213.242 376.695 213.555C377.312 213.859 377.828 214.297 378.242 214.867C378.664 215.438 378.984 216.121 379.203 216.918C379.422 217.707 379.531 218.586 379.531 219.555ZM377.352 219.801V219.555C377.352 218.922 377.293 218.328 377.176 217.773C377.059 217.211 376.871 216.719 376.613 216.297C376.355 215.867 376.016 215.531 375.594 215.289C375.172 215.039 374.652 214.914 374.035 214.914C373.488 214.914 373.012 215.008 372.605 215.195C372.207 215.383 371.867 215.637 371.586 215.957C371.305 216.27 371.074 216.629 370.895 217.035C370.723 217.434 370.594 217.848 370.508 218.277V221.102C370.633 221.648 370.836 222.176 371.117 222.684C371.406 223.184 371.789 223.594 372.266 223.914C372.75 224.234 373.348 224.395 374.059 224.395C374.645 224.395 375.145 224.277 375.559 224.043C375.98 223.801 376.32 223.469 376.578 223.047C376.844 222.625 377.039 222.137 377.164 221.582C377.289 221.027 377.352 220.434 377.352 219.801ZM381.699 219.801V219.531C381.699 218.617 381.832 217.77 382.098 216.988C382.363 216.199 382.746 215.516 383.246 214.938C383.746 214.352 384.352 213.898 385.062 213.578C385.773 213.25 386.57 213.086 387.453 213.086C388.344 213.086 389.145 213.25 389.855 213.578C390.574 213.898 391.184 214.352 391.684 214.938C392.191 215.516 392.578 216.199 392.844 216.988C393.109 217.77 393.242 218.617 393.242 219.531V219.801C393.242 220.715 393.109 221.562 392.844 222.344C392.578 223.125 392.191 223.809 391.684 224.395C391.184 224.973 390.578 225.426 389.867 225.754C389.164 226.074 388.367 226.234 387.477 226.234C386.586 226.234 385.785 226.074 385.074 225.754C384.363 225.426 383.754 224.973 383.246 224.395C382.746 223.809 382.363 223.125 382.098 222.344C381.832 221.562 381.699 220.715 381.699 219.801ZM383.867 219.531V219.801C383.867 220.434 383.941 221.031 384.09 221.594C384.238 222.148 384.461 222.641 384.758 223.07C385.062 223.5 385.441 223.84 385.895 224.09C386.348 224.332 386.875 224.453 387.477 224.453C388.07 224.453 388.59 224.332 389.035 224.09C389.488 223.84 389.863 223.5 390.16 223.07C390.457 222.641 390.68 222.148 390.828 221.594C390.984 221.031 391.062 220.434 391.062 219.801V219.531C391.062 218.906 390.984 218.316 390.828 217.762C390.68 217.199 390.453 216.703 390.148 216.273C389.852 215.836 389.477 215.492 389.023 215.242C388.578 214.992 388.055 214.867 387.453 214.867C386.859 214.867 386.336 214.992 385.883 215.242C385.438 215.492 385.062 215.836 384.758 216.273C384.461 216.703 384.238 217.199 384.09 217.762C383.941 218.316 383.867 218.906 383.867 219.531ZM398.316 208V226H396.137V208H398.316ZM407.059 226.234C406.176 226.234 405.375 226.086 404.656 225.789C403.945 225.484 403.332 225.059 402.816 224.512C402.309 223.965 401.918 223.316 401.645 222.566C401.371 221.816 401.234 220.996 401.234 220.105V219.613C401.234 218.582 401.387 217.664 401.691 216.859C401.996 216.047 402.41 215.359 402.934 214.797C403.457 214.234 404.051 213.809 404.715 213.52C405.379 213.23 406.066 213.086 406.777 213.086C407.684 213.086 408.465 213.242 409.121 213.555C409.785 213.867 410.328 214.305 410.75 214.867C411.172 215.422 411.484 216.078 411.688 216.836C411.891 217.586 411.992 218.406 411.992 219.297V220.27H402.523V218.5H409.824V218.336C409.793 217.773 409.676 217.227 409.473 216.695C409.277 216.164 408.965 215.727 408.535 215.383C408.105 215.039 407.52 214.867 406.777 214.867C406.285 214.867 405.832 214.973 405.418 215.184C405.004 215.387 404.648 215.691 404.352 216.098C404.055 216.504 403.824 217 403.66 217.586C403.496 218.172 403.414 218.848 403.414 219.613V220.105C403.414 220.707 403.496 221.273 403.66 221.805C403.832 222.328 404.078 222.789 404.398 223.188C404.727 223.586 405.121 223.898 405.582 224.125C406.051 224.352 406.582 224.465 407.176 224.465C407.941 224.465 408.59 224.309 409.121 223.996C409.652 223.684 410.117 223.266 410.516 222.742L411.828 223.785C411.555 224.199 411.207 224.594 410.785 224.969C410.363 225.344 409.844 225.648 409.227 225.883C408.617 226.117 407.895 226.234 407.059 226.234ZM421.906 222.637C421.906 222.324 421.836 222.035 421.695 221.77C421.562 221.496 421.285 221.25 420.863 221.031C420.449 220.805 419.824 220.609 418.988 220.445C418.285 220.297 417.648 220.121 417.078 219.918C416.516 219.715 416.035 219.469 415.637 219.18C415.246 218.891 414.945 218.551 414.734 218.16C414.523 217.77 414.418 217.312 414.418 216.789C414.418 216.289 414.527 215.816 414.746 215.371C414.973 214.926 415.289 214.531 415.695 214.188C416.109 213.844 416.605 213.574 417.184 213.379C417.762 213.184 418.406 213.086 419.117 213.086C420.133 213.086 421 213.266 421.719 213.625C422.438 213.984 422.988 214.465 423.371 215.066C423.754 215.66 423.945 216.32 423.945 217.047H421.777C421.777 216.695 421.672 216.355 421.461 216.027C421.258 215.691 420.957 215.414 420.559 215.195C420.168 214.977 419.688 214.867 419.117 214.867C418.516 214.867 418.027 214.961 417.652 215.148C417.285 215.328 417.016 215.559 416.844 215.84C416.68 216.121 416.598 216.418 416.598 216.73C416.598 216.965 416.637 217.176 416.715 217.363C416.801 217.543 416.949 217.711 417.16 217.867C417.371 218.016 417.668 218.156 418.051 218.289C418.434 218.422 418.922 218.555 419.516 218.688C420.555 218.922 421.41 219.203 422.082 219.531C422.754 219.859 423.254 220.262 423.582 220.738C423.91 221.215 424.074 221.793 424.074 222.473C424.074 223.027 423.957 223.535 423.723 223.996C423.496 224.457 423.164 224.855 422.727 225.191C422.297 225.52 421.781 225.777 421.18 225.965C420.586 226.145 419.918 226.234 419.176 226.234C418.059 226.234 417.113 226.035 416.34 225.637C415.566 225.238 414.98 224.723 414.582 224.09C414.184 223.457 413.984 222.789 413.984 222.086H416.164C416.195 222.68 416.367 223.152 416.68 223.504C416.992 223.848 417.375 224.094 417.828 224.242C418.281 224.383 418.73 224.453 419.176 224.453C419.77 224.453 420.266 224.375 420.664 224.219C421.07 224.062 421.379 223.848 421.59 223.574C421.801 223.301 421.906 222.988 421.906 222.637Z" fill="black"/>
<path d="M547.312 198.16V200H538.277V198.16H547.312ZM538.734 182.938V200H536.473V182.938H538.734ZM546.117 190.273V192.113H538.277V190.273H546.117ZM547.195 182.938V184.789H538.277V182.938H547.195ZM551.953 190.027V200H549.785V187.32H551.836L551.953 190.027ZM551.438 193.18L550.535 193.145C550.543 192.277 550.672 191.477 550.922 190.742C551.172 190 551.523 189.355 551.977 188.809C552.43 188.262 552.969 187.84 553.594 187.543C554.227 187.238 554.926 187.086 555.691 187.086C556.316 187.086 556.879 187.172 557.379 187.344C557.879 187.508 558.305 187.773 558.656 188.141C559.016 188.508 559.289 188.984 559.477 189.57C559.664 190.148 559.758 190.855 559.758 191.691V200H557.578V191.668C557.578 191.004 557.48 190.473 557.285 190.074C557.09 189.668 556.805 189.375 556.43 189.195C556.055 189.008 555.594 188.914 555.047 188.914C554.508 188.914 554.016 189.027 553.57 189.254C553.133 189.48 552.754 189.793 552.434 190.191C552.121 190.59 551.875 191.047 551.695 191.562C551.523 192.07 551.438 192.609 551.438 193.18ZM568.312 200.234C567.43 200.234 566.629 200.086 565.91 199.789C565.199 199.484 564.586 199.059 564.07 198.512C563.562 197.965 563.172 197.316 562.898 196.566C562.625 195.816 562.488 194.996 562.488 194.105V193.613C562.488 192.582 562.641 191.664 562.945 190.859C563.25 190.047 563.664 189.359 564.188 188.797C564.711 188.234 565.305 187.809 565.969 187.52C566.633 187.23 567.32 187.086 568.031 187.086C568.938 187.086 569.719 187.242 570.375 187.555C571.039 187.867 571.582 188.305 572.004 188.867C572.426 189.422 572.738 190.078 572.941 190.836C573.145 191.586 573.246 192.406 573.246 193.297V194.27H563.777V192.5H571.078V192.336C571.047 191.773 570.93 191.227 570.727 190.695C570.531 190.164 570.219 189.727 569.789 189.383C569.359 189.039 568.773 188.867 568.031 188.867C567.539 188.867 567.086 188.973 566.672 189.184C566.258 189.387 565.902 189.691 565.605 190.098C565.309 190.504 565.078 191 564.914 191.586C564.75 192.172 564.668 192.848 564.668 193.613V194.105C564.668 194.707 564.75 195.273 564.914 195.805C565.086 196.328 565.332 196.789 565.652 197.188C565.98 197.586 566.375 197.898 566.836 198.125C567.305 198.352 567.836 198.465 568.43 198.465C569.195 198.465 569.844 198.309 570.375 197.996C570.906 197.684 571.371 197.266 571.77 196.742L573.082 197.785C572.809 198.199 572.461 198.594 572.039 198.969C571.617 199.344 571.098 199.648 570.48 199.883C569.871 200.117 569.148 200.234 568.312 200.234ZM577.945 189.312V200H575.777V187.32H577.887L577.945 189.312ZM581.906 187.25L581.895 189.266C581.715 189.227 581.543 189.203 581.379 189.195C581.223 189.18 581.043 189.172 580.84 189.172C580.34 189.172 579.898 189.25 579.516 189.406C579.133 189.562 578.809 189.781 578.543 190.062C578.277 190.344 578.066 190.68 577.91 191.07C577.762 191.453 577.664 191.875 577.617 192.336L577.008 192.688C577.008 191.922 577.082 191.203 577.23 190.531C577.387 189.859 577.625 189.266 577.945 188.75C578.266 188.227 578.672 187.82 579.164 187.531C579.664 187.234 580.258 187.086 580.945 187.086C581.102 187.086 581.281 187.105 581.484 187.145C581.688 187.176 581.828 187.211 581.906 187.25ZM591.891 187.32H593.859V199.73C593.859 200.848 593.633 201.801 593.18 202.59C592.727 203.379 592.094 203.977 591.281 204.383C590.477 204.797 589.547 205.004 588.492 205.004C588.055 205.004 587.539 204.934 586.945 204.793C586.359 204.66 585.781 204.43 585.211 204.102C584.648 203.781 584.176 203.348 583.793 202.801L584.93 201.512C585.461 202.152 586.016 202.598 586.594 202.848C587.18 203.098 587.758 203.223 588.328 203.223C589.016 203.223 589.609 203.094 590.109 202.836C590.609 202.578 590.996 202.195 591.27 201.688C591.551 201.188 591.691 200.57 591.691 199.836V190.109L591.891 187.32ZM583.16 193.801V193.555C583.16 192.586 583.273 191.707 583.5 190.918C583.734 190.121 584.066 189.438 584.496 188.867C584.934 188.297 585.461 187.859 586.078 187.555C586.695 187.242 587.391 187.086 588.164 187.086C588.961 187.086 589.656 187.227 590.25 187.508C590.852 187.781 591.359 188.184 591.773 188.715C592.195 189.238 592.527 189.871 592.77 190.613C593.012 191.355 593.18 192.195 593.273 193.133V194.211C593.188 195.141 593.02 195.977 592.77 196.719C592.527 197.461 592.195 198.094 591.773 198.617C591.359 199.141 590.852 199.543 590.25 199.824C589.648 200.098 588.945 200.234 588.141 200.234C587.383 200.234 586.695 200.074 586.078 199.754C585.469 199.434 584.945 198.984 584.508 198.406C584.07 197.828 583.734 197.148 583.5 196.367C583.273 195.578 583.16 194.723 583.16 193.801ZM585.328 193.555V193.801C585.328 194.434 585.391 195.027 585.516 195.582C585.648 196.137 585.848 196.625 586.113 197.047C586.387 197.469 586.734 197.801 587.156 198.043C587.578 198.277 588.082 198.395 588.668 198.395C589.387 198.395 589.98 198.242 590.449 197.938C590.918 197.633 591.289 197.23 591.562 196.73C591.844 196.23 592.062 195.688 592.219 195.102V192.277C592.133 191.848 592 191.434 591.82 191.035C591.648 190.629 591.422 190.27 591.141 189.957C590.867 189.637 590.527 189.383 590.121 189.195C589.715 189.008 589.238 188.914 588.691 188.914C588.098 188.914 587.586 189.039 587.156 189.289C586.734 189.531 586.387 189.867 586.113 190.297C585.848 190.719 585.648 191.211 585.516 191.773C585.391 192.328 585.328 192.922 585.328 193.555ZM599.496 187.32V200H597.328V187.32H599.496ZM597.258 185.469L599.531 182.023H602.145L599.004 185.469H597.258ZM610.582 197.832V191.305C610.582 190.805 610.48 190.371 610.277 190.004C610.082 189.629 609.785 189.34 609.387 189.137C608.988 188.934 608.496 188.832 607.91 188.832C607.363 188.832 606.883 188.926 606.469 189.113C606.062 189.301 605.742 189.547 605.508 189.852C605.281 190.156 605.168 190.484 605.168 190.836H603C603 190.383 603.117 189.934 603.352 189.488C603.586 189.043 603.922 188.641 604.359 188.281C604.805 187.914 605.336 187.625 605.953 187.414C606.578 187.195 607.273 187.086 608.039 187.086C608.961 187.086 609.773 187.242 610.477 187.555C611.188 187.867 611.742 188.34 612.141 188.973C612.547 189.598 612.75 190.383 612.75 191.328V197.234C612.75 197.656 612.785 198.105 612.855 198.582C612.934 199.059 613.047 199.469 613.195 199.812V200H610.934C610.824 199.75 610.738 199.418 610.676 199.004C610.613 198.582 610.582 198.191 610.582 197.832ZM610.957 192.312L610.98 193.836H608.789C608.172 193.836 607.621 193.887 607.137 193.988C606.652 194.082 606.246 194.227 605.918 194.422C605.59 194.617 605.34 194.863 605.168 195.16C604.996 195.449 604.91 195.789 604.91 196.18C604.91 196.578 605 196.941 605.18 197.27C605.359 197.598 605.629 197.859 605.988 198.055C606.355 198.242 606.805 198.336 607.336 198.336C608 198.336 608.586 198.195 609.094 197.914C609.602 197.633 610.004 197.289 610.301 196.883C610.605 196.477 610.77 196.082 610.793 195.699L611.719 196.742C611.664 197.07 611.516 197.434 611.273 197.832C611.031 198.23 610.707 198.613 610.301 198.98C609.902 199.34 609.426 199.641 608.871 199.883C608.324 200.117 607.707 200.234 607.02 200.234C606.16 200.234 605.406 200.066 604.758 199.73C604.117 199.395 603.617 198.945 603.258 198.383C602.906 197.812 602.73 197.176 602.73 196.473C602.73 195.793 602.863 195.195 603.129 194.68C603.395 194.156 603.777 193.723 604.277 193.379C604.777 193.027 605.379 192.762 606.082 192.582C606.785 192.402 607.57 192.312 608.438 192.312H610.957ZM545.965 210V228H543.785V210H545.965ZM551.801 215.32V228H549.621V215.32H551.801ZM549.457 211.957C549.457 211.605 549.562 211.309 549.773 211.066C549.992 210.824 550.312 210.703 550.734 210.703C551.148 210.703 551.465 210.824 551.684 211.066C551.91 211.309 552.023 211.605 552.023 211.957C552.023 212.293 551.91 212.582 551.684 212.824C551.465 213.059 551.148 213.176 550.734 213.176C550.312 213.176 549.992 213.059 549.773 212.824C549.562 212.582 549.457 212.293 549.457 211.957ZM557.438 217.84V228H555.258V215.32H557.32L557.438 217.84ZM556.992 221.18L555.984 221.145C555.992 220.277 556.105 219.477 556.324 218.742C556.543 218 556.867 217.355 557.297 216.809C557.727 216.262 558.262 215.84 558.902 215.543C559.543 215.238 560.285 215.086 561.129 215.086C561.723 215.086 562.27 215.172 562.77 215.344C563.27 215.508 563.703 215.77 564.07 216.129C564.438 216.488 564.723 216.949 564.926 217.512C565.129 218.074 565.23 218.754 565.23 219.551V228H563.062V219.656C563.062 218.992 562.949 218.461 562.723 218.062C562.504 217.664 562.191 217.375 561.785 217.195C561.379 217.008 560.902 216.914 560.355 216.914C559.715 216.914 559.18 217.027 558.75 217.254C558.32 217.48 557.977 217.793 557.719 218.191C557.461 218.59 557.273 219.047 557.156 219.562C557.047 220.07 556.992 220.609 556.992 221.18ZM565.207 219.984L563.754 220.43C563.762 219.734 563.875 219.066 564.094 218.426C564.32 217.785 564.645 217.215 565.066 216.715C565.496 216.215 566.023 215.82 566.648 215.531C567.273 215.234 567.988 215.086 568.793 215.086C569.473 215.086 570.074 215.176 570.598 215.355C571.129 215.535 571.574 215.812 571.934 216.188C572.301 216.555 572.578 217.027 572.766 217.605C572.953 218.184 573.047 218.871 573.047 219.668V228H570.867V219.645C570.867 218.934 570.754 218.383 570.527 217.992C570.309 217.594 569.996 217.316 569.59 217.16C569.191 216.996 568.715 216.914 568.16 216.914C567.684 216.914 567.262 216.996 566.895 217.16C566.527 217.324 566.219 217.551 565.969 217.84C565.719 218.121 565.527 218.445 565.395 218.812C565.27 219.18 565.207 219.57 565.207 219.984ZM578.496 217.758V232.875H576.316V215.32H578.309L578.496 217.758ZM587.039 221.555V221.801C587.039 222.723 586.93 223.578 586.711 224.367C586.492 225.148 586.172 225.828 585.75 226.406C585.336 226.984 584.824 227.434 584.215 227.754C583.605 228.074 582.906 228.234 582.117 228.234C581.312 228.234 580.602 228.102 579.984 227.836C579.367 227.57 578.844 227.184 578.414 226.676C577.984 226.168 577.641 225.559 577.383 224.848C577.133 224.137 576.961 223.336 576.867 222.445V221.133C576.961 220.195 577.137 219.355 577.395 218.613C577.652 217.871 577.992 217.238 578.414 216.715C578.844 216.184 579.363 215.781 579.973 215.508C580.582 215.227 581.285 215.086 582.082 215.086C582.879 215.086 583.586 215.242 584.203 215.555C584.82 215.859 585.34 216.297 585.762 216.867C586.184 217.438 586.5 218.121 586.711 218.918C586.93 219.707 587.039 220.586 587.039 221.555ZM584.859 221.801V221.555C584.859 220.922 584.793 220.328 584.66 219.773C584.527 219.211 584.32 218.719 584.039 218.297C583.766 217.867 583.414 217.531 582.984 217.289C582.555 217.039 582.043 216.914 581.449 216.914C580.902 216.914 580.426 217.008 580.02 217.195C579.621 217.383 579.281 217.637 579 217.957C578.719 218.27 578.488 218.629 578.309 219.035C578.137 219.434 578.008 219.848 577.922 220.277V223.312C578.078 223.859 578.297 224.375 578.578 224.859C578.859 225.336 579.234 225.723 579.703 226.02C580.172 226.309 580.762 226.453 581.473 226.453C582.059 226.453 582.562 226.332 582.984 226.09C583.414 225.84 583.766 225.5 584.039 225.07C584.32 224.641 584.527 224.148 584.66 223.594C584.793 223.031 584.859 222.434 584.859 221.801ZM592.16 215.32V228H589.98V215.32H592.16ZM589.816 211.957C589.816 211.605 589.922 211.309 590.133 211.066C590.352 210.824 590.672 210.703 591.094 210.703C591.508 210.703 591.824 210.824 592.043 211.066C592.27 211.309 592.383 211.605 592.383 211.957C592.383 212.293 592.27 212.582 592.043 212.824C591.824 213.059 591.508 213.176 591.094 213.176C590.672 213.176 590.352 213.059 590.133 212.824C589.922 212.582 589.816 212.293 589.816 211.957ZM603.117 225.832V219.305C603.117 218.805 603.016 218.371 602.812 218.004C602.617 217.629 602.32 217.34 601.922 217.137C601.523 216.934 601.031 216.832 600.445 216.832C599.898 216.832 599.418 216.926 599.004 217.113C598.598 217.301 598.277 217.547 598.043 217.852C597.816 218.156 597.703 218.484 597.703 218.836H595.535C595.535 218.383 595.652 217.934 595.887 217.488C596.121 217.043 596.457 216.641 596.895 216.281C597.34 215.914 597.871 215.625 598.488 215.414C599.113 215.195 599.809 215.086 600.574 215.086C601.496 215.086 602.309 215.242 603.012 215.555C603.723 215.867 604.277 216.34 604.676 216.973C605.082 217.598 605.285 218.383 605.285 219.328V225.234C605.285 225.656 605.32 226.105 605.391 226.582C605.469 227.059 605.582 227.469 605.73 227.812V228H603.469C603.359 227.75 603.273 227.418 603.211 227.004C603.148 226.582 603.117 226.191 603.117 225.832ZM603.492 220.312L603.516 221.836H601.324C600.707 221.836 600.156 221.887 599.672 221.988C599.188 222.082 598.781 222.227 598.453 222.422C598.125 222.617 597.875 222.863 597.703 223.16C597.531 223.449 597.445 223.789 597.445 224.18C597.445 224.578 597.535 224.941 597.715 225.27C597.895 225.598 598.164 225.859 598.523 226.055C598.891 226.242 599.34 226.336 599.871 226.336C600.535 226.336 601.121 226.195 601.629 225.914C602.137 225.633 602.539 225.289 602.836 224.883C603.141 224.477 603.305 224.082 603.328 223.699L604.254 224.742C604.199 225.07 604.051 225.434 603.809 225.832C603.566 226.23 603.242 226.613 602.836 226.98C602.438 227.34 601.961 227.641 601.406 227.883C600.859 228.117 600.242 228.234 599.555 228.234C598.695 228.234 597.941 228.066 597.293 227.73C596.652 227.395 596.152 226.945 595.793 226.383C595.441 225.812 595.266 225.176 595.266 224.473C595.266 223.793 595.398 223.195 595.664 222.68C595.93 222.156 596.312 221.723 596.812 221.379C597.312 221.027 597.914 220.762 598.617 220.582C599.32 220.402 600.105 220.312 600.973 220.312H603.492Z" fill="black"/>
<path d="M744.84 180.938H750.488C751.77 180.938 752.852 181.133 753.734 181.523C754.625 181.914 755.301 182.492 755.762 183.258C756.23 184.016 756.465 184.949 756.465 186.059C756.465 186.84 756.305 187.555 755.984 188.203C755.672 188.844 755.219 189.391 754.625 189.844C754.039 190.289 753.336 190.621 752.516 190.84L751.883 191.086H746.574L746.551 189.246H750.559C751.371 189.246 752.047 189.105 752.586 188.824C753.125 188.535 753.531 188.148 753.805 187.664C754.078 187.18 754.215 186.645 754.215 186.059C754.215 185.402 754.086 184.828 753.828 184.336C753.57 183.844 753.164 183.465 752.609 183.199C752.062 182.926 751.355 182.789 750.488 182.789H747.102V198H744.84V180.938ZM754.812 198L750.664 190.266L753.02 190.254L757.227 197.859V198H754.812ZM764.562 198.234C763.68 198.234 762.879 198.086 762.16 197.789C761.449 197.484 760.836 197.059 760.32 196.512C759.812 195.965 759.422 195.316 759.148 194.566C758.875 193.816 758.738 192.996 758.738 192.105V191.613C758.738 190.582 758.891 189.664 759.195 188.859C759.5 188.047 759.914 187.359 760.438 186.797C760.961 186.234 761.555 185.809 762.219 185.52C762.883 185.23 763.57 185.086 764.281 185.086C765.188 185.086 765.969 185.242 766.625 185.555C767.289 185.867 767.832 186.305 768.254 186.867C768.676 187.422 768.988 188.078 769.191 188.836C769.395 189.586 769.496 190.406 769.496 191.297V192.27H760.027V190.5H767.328V190.336C767.297 189.773 767.18 189.227 766.977 188.695C766.781 188.164 766.469 187.727 766.039 187.383C765.609 187.039 765.023 186.867 764.281 186.867C763.789 186.867 763.336 186.973 762.922 187.184C762.508 187.387 762.152 187.691 761.855 188.098C761.559 188.504 761.328 189 761.164 189.586C761 190.172 760.918 190.848 760.918 191.613V192.105C760.918 192.707 761 193.273 761.164 193.805C761.336 194.328 761.582 194.789 761.902 195.188C762.23 195.586 762.625 195.898 763.086 196.125C763.555 196.352 764.086 196.465 764.68 196.465C765.445 196.465 766.094 196.309 766.625 195.996C767.156 195.684 767.621 195.266 768.02 194.742L769.332 195.785C769.059 196.199 768.711 196.594 768.289 196.969C767.867 197.344 767.348 197.648 766.73 197.883C766.121 198.117 765.398 198.234 764.562 198.234ZM780.02 195.539V180H782.199V198H780.207L780.02 195.539ZM771.488 191.801V191.555C771.488 190.586 771.605 189.707 771.84 188.918C772.082 188.121 772.422 187.438 772.859 186.867C773.305 186.297 773.832 185.859 774.441 185.555C775.059 185.242 775.746 185.086 776.504 185.086C777.301 185.086 777.996 185.227 778.59 185.508C779.191 185.781 779.699 186.184 780.113 186.715C780.535 187.238 780.867 187.871 781.109 188.613C781.352 189.355 781.52 190.195 781.613 191.133V192.211C781.527 193.141 781.359 193.977 781.109 194.719C780.867 195.461 780.535 196.094 780.113 196.617C779.699 197.141 779.191 197.543 778.59 197.824C777.988 198.098 777.285 198.234 776.48 198.234C775.738 198.234 775.059 198.074 774.441 197.754C773.832 197.434 773.305 196.984 772.859 196.406C772.422 195.828 772.082 195.148 771.84 194.367C771.605 193.578 771.488 192.723 771.488 191.801ZM773.668 191.555V191.801C773.668 192.434 773.73 193.027 773.855 193.582C773.988 194.137 774.191 194.625 774.465 195.047C774.738 195.469 775.086 195.801 775.508 196.043C775.93 196.277 776.434 196.395 777.02 196.395C777.738 196.395 778.328 196.242 778.789 195.938C779.258 195.633 779.633 195.23 779.914 194.73C780.195 194.23 780.414 193.688 780.57 193.102V190.277C780.477 189.848 780.34 189.434 780.16 189.035C779.988 188.629 779.762 188.27 779.48 187.957C779.207 187.637 778.867 187.383 778.461 187.195C778.062 187.008 777.59 186.914 777.043 186.914C776.449 186.914 775.938 187.039 775.508 187.289C775.086 187.531 774.738 187.867 774.465 188.297C774.191 188.719 773.988 189.211 773.855 189.773C773.73 190.328 773.668 190.922 773.668 191.555ZM793.332 195.07V185.32H795.512V198H793.438L793.332 195.07ZM793.742 192.398L794.645 192.375C794.645 193.219 794.555 194 794.375 194.719C794.203 195.43 793.922 196.047 793.531 196.57C793.141 197.094 792.629 197.504 791.996 197.801C791.363 198.09 790.594 198.234 789.688 198.234C789.07 198.234 788.504 198.145 787.988 197.965C787.48 197.785 787.043 197.508 786.676 197.133C786.309 196.758 786.023 196.27 785.82 195.668C785.625 195.066 785.527 194.344 785.527 193.5V185.32H787.695V193.523C787.695 194.094 787.758 194.566 787.883 194.941C788.016 195.309 788.191 195.602 788.41 195.82C788.637 196.031 788.887 196.18 789.16 196.266C789.441 196.352 789.73 196.395 790.027 196.395C790.949 196.395 791.68 196.219 792.219 195.867C792.758 195.508 793.145 195.027 793.379 194.426C793.621 193.816 793.742 193.141 793.742 192.398ZM803.891 196.453C804.406 196.453 804.883 196.348 805.32 196.137C805.758 195.926 806.117 195.637 806.398 195.27C806.68 194.895 806.84 194.469 806.879 193.992H808.941C808.902 194.742 808.648 195.441 808.18 196.09C807.719 196.73 807.113 197.25 806.363 197.648C805.613 198.039 804.789 198.234 803.891 198.234C802.938 198.234 802.105 198.066 801.395 197.73C800.691 197.395 800.105 196.934 799.637 196.348C799.176 195.762 798.828 195.09 798.594 194.332C798.367 193.566 798.254 192.758 798.254 191.906V191.414C798.254 190.562 798.367 189.758 798.594 189C798.828 188.234 799.176 187.559 799.637 186.973C800.105 186.387 800.691 185.926 801.395 185.59C802.105 185.254 802.938 185.086 803.891 185.086C804.883 185.086 805.75 185.289 806.492 185.695C807.234 186.094 807.816 186.641 808.238 187.336C808.668 188.023 808.902 188.805 808.941 189.68H806.879C806.84 189.156 806.691 188.684 806.434 188.262C806.184 187.84 805.84 187.504 805.402 187.254C804.973 186.996 804.469 186.867 803.891 186.867C803.227 186.867 802.668 187 802.215 187.266C801.77 187.523 801.414 187.875 801.148 188.32C800.891 188.758 800.703 189.246 800.586 189.785C800.477 190.316 800.422 190.859 800.422 191.414V191.906C800.422 192.461 800.477 193.008 800.586 193.547C800.695 194.086 800.879 194.574 801.137 195.012C801.402 195.449 801.758 195.801 802.203 196.066C802.656 196.324 803.219 196.453 803.891 196.453ZM816.453 196.453C816.969 196.453 817.445 196.348 817.883 196.137C818.32 195.926 818.68 195.637 818.961 195.27C819.242 194.895 819.402 194.469 819.441 193.992H821.504C821.465 194.742 821.211 195.441 820.742 196.09C820.281 196.73 819.676 197.25 818.926 197.648C818.176 198.039 817.352 198.234 816.453 198.234C815.5 198.234 814.668 198.066 813.957 197.73C813.254 197.395 812.668 196.934 812.199 196.348C811.738 195.762 811.391 195.09 811.156 194.332C810.93 193.566 810.816 192.758 810.816 191.906V191.414C810.816 190.562 810.93 189.758 811.156 189C811.391 188.234 811.738 187.559 812.199 186.973C812.668 186.387 813.254 185.926 813.957 185.59C814.668 185.254 815.5 185.086 816.453 185.086C817.445 185.086 818.312 185.289 819.055 185.695C819.797 186.094 820.379 186.641 820.801 187.336C821.23 188.023 821.465 188.805 821.504 189.68H819.441C819.402 189.156 819.254 188.684 818.996 188.262C818.746 187.84 818.402 187.504 817.965 187.254C817.535 186.996 817.031 186.867 816.453 186.867C815.789 186.867 815.23 187 814.777 187.266C814.332 187.523 813.977 187.875 813.711 188.32C813.453 188.758 813.266 189.246 813.148 189.785C813.039 190.316 812.984 190.859 812.984 191.414V191.906C812.984 192.461 813.039 193.008 813.148 193.547C813.258 194.086 813.441 194.574 813.699 195.012C813.965 195.449 814.32 195.801 814.766 196.066C815.219 196.324 815.781 196.453 816.453 196.453ZM826.297 185.32V198H824.117V185.32H826.297ZM823.953 181.957C823.953 181.605 824.059 181.309 824.27 181.066C824.488 180.824 824.809 180.703 825.23 180.703C825.645 180.703 825.961 180.824 826.18 181.066C826.406 181.309 826.52 181.605 826.52 181.957C826.52 182.293 826.406 182.582 826.18 182.824C825.961 183.059 825.645 183.176 825.23 183.176C824.809 183.176 824.488 183.059 824.27 182.824C824.059 182.582 823.953 182.293 823.953 181.957ZM829.203 191.801V191.531C829.203 190.617 829.336 189.77 829.602 188.988C829.867 188.199 830.25 187.516 830.75 186.938C831.25 186.352 831.855 185.898 832.566 185.578C833.277 185.25 834.074 185.086 834.957 185.086C835.848 185.086 836.648 185.25 837.359 185.578C838.078 185.898 838.688 186.352 839.188 186.938C839.695 187.516 840.082 188.199 840.348 188.988C840.613 189.77 840.746 190.617 840.746 191.531V191.801C840.746 192.715 840.613 193.562 840.348 194.344C840.082 195.125 839.695 195.809 839.188 196.395C838.688 196.973 838.082 197.426 837.371 197.754C836.668 198.074 835.871 198.234 834.98 198.234C834.09 198.234 833.289 198.074 832.578 197.754C831.867 197.426 831.258 196.973 830.75 196.395C830.25 195.809 829.867 195.125 829.602 194.344C829.336 193.562 829.203 192.715 829.203 191.801ZM831.371 191.531V191.801C831.371 192.434 831.445 193.031 831.594 193.594C831.742 194.148 831.965 194.641 832.262 195.07C832.566 195.5 832.945 195.84 833.398 196.09C833.852 196.332 834.379 196.453 834.98 196.453C835.574 196.453 836.094 196.332 836.539 196.09C836.992 195.84 837.367 195.5 837.664 195.07C837.961 194.641 838.184 194.148 838.332 193.594C838.488 193.031 838.566 192.434 838.566 191.801V191.531C838.566 190.906 838.488 190.316 838.332 189.762C838.184 189.199 837.957 188.703 837.652 188.273C837.355 187.836 836.98 187.492 836.527 187.242C836.082 186.992 835.559 186.867 834.957 186.867C834.363 186.867 833.84 186.992 833.387 187.242C832.941 187.492 832.566 187.836 832.262 188.273C831.965 188.703 831.742 189.199 831.594 189.762C831.445 190.316 831.371 190.906 831.371 191.531ZM833.668 183.445L835.941 180H838.555L835.414 183.445H833.668ZM845.633 188.027V198H843.465V185.32H845.516L845.633 188.027ZM845.117 191.18L844.215 191.145C844.223 190.277 844.352 189.477 844.602 188.742C844.852 188 845.203 187.355 845.656 186.809C846.109 186.262 846.648 185.84 847.273 185.543C847.906 185.238 848.605 185.086 849.371 185.086C849.996 185.086 850.559 185.172 851.059 185.344C851.559 185.508 851.984 185.773 852.336 186.141C852.695 186.508 852.969 186.984 853.156 187.57C853.344 188.148 853.438 188.855 853.438 189.691V198H851.258V189.668C851.258 189.004 851.16 188.473 850.965 188.074C850.77 187.668 850.484 187.375 850.109 187.195C849.734 187.008 849.273 186.914 848.727 186.914C848.188 186.914 847.695 187.027 847.25 187.254C846.812 187.48 846.434 187.793 846.113 188.191C845.801 188.59 845.555 189.047 845.375 189.562C845.203 190.07 845.117 190.609 845.117 191.18ZM870.676 195.539V180H872.855V198H870.863L870.676 195.539ZM862.145 191.801V191.555C862.145 190.586 862.262 189.707 862.496 188.918C862.738 188.121 863.078 187.438 863.516 186.867C863.961 186.297 864.488 185.859 865.098 185.555C865.715 185.242 866.402 185.086 867.16 185.086C867.957 185.086 868.652 185.227 869.246 185.508C869.848 185.781 870.355 186.184 870.77 186.715C871.191 187.238 871.523 187.871 871.766 188.613C872.008 189.355 872.176 190.195 872.27 191.133V192.211C872.184 193.141 872.016 193.977 871.766 194.719C871.523 195.461 871.191 196.094 870.77 196.617C870.355 197.141 869.848 197.543 869.246 197.824C868.645 198.098 867.941 198.234 867.137 198.234C866.395 198.234 865.715 198.074 865.098 197.754C864.488 197.434 863.961 196.984 863.516 196.406C863.078 195.828 862.738 195.148 862.496 194.367C862.262 193.578 862.145 192.723 862.145 191.801ZM864.324 191.555V191.801C864.324 192.434 864.387 193.027 864.512 193.582C864.645 194.137 864.848 194.625 865.121 195.047C865.395 195.469 865.742 195.801 866.164 196.043C866.586 196.277 867.09 196.395 867.676 196.395C868.395 196.395 868.984 196.242 869.445 195.938C869.914 195.633 870.289 195.23 870.57 194.73C870.852 194.23 871.07 193.688 871.227 193.102V190.277C871.133 189.848 870.996 189.434 870.816 189.035C870.645 188.629 870.418 188.27 870.137 187.957C869.863 187.637 869.523 187.383 869.117 187.195C868.719 187.008 868.246 186.914 867.699 186.914C867.105 186.914 866.594 187.039 866.164 187.289C865.742 187.531 865.395 187.867 865.121 188.297C864.848 188.719 864.645 189.211 864.512 189.773C864.387 190.328 864.324 190.922 864.324 191.555ZM881.492 198.234C880.609 198.234 879.809 198.086 879.09 197.789C878.379 197.484 877.766 197.059 877.25 196.512C876.742 195.965 876.352 195.316 876.078 194.566C875.805 193.816 875.668 192.996 875.668 192.105V191.613C875.668 190.582 875.82 189.664 876.125 188.859C876.43 188.047 876.844 187.359 877.367 186.797C877.891 186.234 878.484 185.809 879.148 185.52C879.812 185.23 880.5 185.086 881.211 185.086C882.117 185.086 882.898 185.242 883.555 185.555C884.219 185.867 884.762 186.305 885.184 186.867C885.605 187.422 885.918 188.078 886.121 188.836C886.324 189.586 886.426 190.406 886.426 191.297V192.27H876.957V190.5H884.258V190.336C884.227 189.773 884.109 189.227 883.906 188.695C883.711 188.164 883.398 187.727 882.969 187.383C882.539 187.039 881.953 186.867 881.211 186.867C880.719 186.867 880.266 186.973 879.852 187.184C879.438 187.387 879.082 187.691 878.785 188.098C878.488 188.504 878.258 189 878.094 189.586C877.93 190.172 877.848 190.848 877.848 191.613V192.105C877.848 192.707 877.93 193.273 878.094 193.805C878.266 194.328 878.512 194.789 878.832 195.188C879.16 195.586 879.555 195.898 880.016 196.125C880.484 196.352 881.016 196.465 881.609 196.465C882.375 196.465 883.023 196.309 883.555 195.996C884.086 195.684 884.551 195.266 884.949 194.742L886.262 195.785C885.988 196.199 885.641 196.594 885.219 196.969C884.797 197.344 884.277 197.648 883.66 197.883C883.051 198.117 882.328 198.234 881.492 198.234ZM891.312 180V198H889.133V180H891.312ZM733.812 223.07V213.32H735.992V226H733.918L733.812 223.07ZM734.223 220.398L735.125 220.375C735.125 221.219 735.035 222 734.855 222.719C734.684 223.43 734.402 224.047 734.012 224.57C733.621 225.094 733.109 225.504 732.477 225.801C731.844 226.09 731.074 226.234 730.168 226.234C729.551 226.234 728.984 226.145 728.469 225.965C727.961 225.785 727.523 225.508 727.156 225.133C726.789 224.758 726.504 224.27 726.301 223.668C726.105 223.066 726.008 222.344 726.008 221.5V213.32H728.176V221.523C728.176 222.094 728.238 222.566 728.363 222.941C728.496 223.309 728.672 223.602 728.891 223.82C729.117 224.031 729.367 224.18 729.641 224.266C729.922 224.352 730.211 224.395 730.508 224.395C731.43 224.395 732.16 224.219 732.699 223.867C733.238 223.508 733.625 223.027 733.859 222.426C734.102 221.816 734.223 221.141 734.223 220.398ZM746.68 222.637C746.68 222.324 746.609 222.035 746.469 221.77C746.336 221.496 746.059 221.25 745.637 221.031C745.223 220.805 744.598 220.609 743.762 220.445C743.059 220.297 742.422 220.121 741.852 219.918C741.289 219.715 740.809 219.469 740.41 219.18C740.02 218.891 739.719 218.551 739.508 218.16C739.297 217.77 739.191 217.312 739.191 216.789C739.191 216.289 739.301 215.816 739.52 215.371C739.746 214.926 740.062 214.531 740.469 214.188C740.883 213.844 741.379 213.574 741.957 213.379C742.535 213.184 743.18 213.086 743.891 213.086C744.906 213.086 745.773 213.266 746.492 213.625C747.211 213.984 747.762 214.465 748.145 215.066C748.527 215.66 748.719 216.32 748.719 217.047H746.551C746.551 216.695 746.445 216.355 746.234 216.027C746.031 215.691 745.73 215.414 745.332 215.195C744.941 214.977 744.461 214.867 743.891 214.867C743.289 214.867 742.801 214.961 742.426 215.148C742.059 215.328 741.789 215.559 741.617 215.84C741.453 216.121 741.371 216.418 741.371 216.73C741.371 216.965 741.41 217.176 741.488 217.363C741.574 217.543 741.723 217.711 741.934 217.867C742.145 218.016 742.441 218.156 742.824 218.289C743.207 218.422 743.695 218.555 744.289 218.688C745.328 218.922 746.184 219.203 746.855 219.531C747.527 219.859 748.027 220.262 748.355 220.738C748.684 221.215 748.848 221.793 748.848 222.473C748.848 223.027 748.73 223.535 748.496 223.996C748.27 224.457 747.938 224.855 747.5 225.191C747.07 225.52 746.555 225.777 745.953 225.965C745.359 226.145 744.691 226.234 743.949 226.234C742.832 226.234 741.887 226.035 741.113 225.637C740.34 225.238 739.754 224.723 739.355 224.09C738.957 223.457 738.758 222.789 738.758 222.086H740.938C740.969 222.68 741.141 223.152 741.453 223.504C741.766 223.848 742.148 224.094 742.602 224.242C743.055 224.383 743.504 224.453 743.949 224.453C744.543 224.453 745.039 224.375 745.438 224.219C745.844 224.062 746.152 223.848 746.363 223.574C746.574 223.301 746.68 222.988 746.68 222.637ZM751.121 219.801V219.531C751.121 218.617 751.254 217.77 751.52 216.988C751.785 216.199 752.168 215.516 752.668 214.938C753.168 214.352 753.773 213.898 754.484 213.578C755.195 213.25 755.992 213.086 756.875 213.086C757.766 213.086 758.566 213.25 759.277 213.578C759.996 213.898 760.605 214.352 761.105 214.938C761.613 215.516 762 216.199 762.266 216.988C762.531 217.77 762.664 218.617 762.664 219.531V219.801C762.664 220.715 762.531 221.562 762.266 222.344C762 223.125 761.613 223.809 761.105 224.395C760.605 224.973 760 225.426 759.289 225.754C758.586 226.074 757.789 226.234 756.898 226.234C756.008 226.234 755.207 226.074 754.496 225.754C753.785 225.426 753.176 224.973 752.668 224.395C752.168 223.809 751.785 223.125 751.52 222.344C751.254 221.562 751.121 220.715 751.121 219.801ZM753.289 219.531V219.801C753.289 220.434 753.363 221.031 753.512 221.594C753.66 222.148 753.883 222.641 754.18 223.07C754.484 223.5 754.863 223.84 755.316 224.09C755.77 224.332 756.297 224.453 756.898 224.453C757.492 224.453 758.012 224.332 758.457 224.09C758.91 223.84 759.285 223.5 759.582 223.07C759.879 222.641 760.102 222.148 760.25 221.594C760.406 221.031 760.484 220.434 760.484 219.801V219.531C760.484 218.906 760.406 218.316 760.25 217.762C760.102 217.199 759.875 216.703 759.57 216.273C759.273 215.836 758.898 215.492 758.445 215.242C758 214.992 757.477 214.867 756.875 214.867C756.281 214.867 755.758 214.992 755.305 215.242C754.859 215.492 754.484 215.836 754.18 216.273C753.883 216.703 753.66 217.199 753.512 217.762C753.363 218.316 753.289 218.906 753.289 219.531ZM779.328 223.539V208H781.508V226H779.516L779.328 223.539ZM770.797 219.801V219.555C770.797 218.586 770.914 217.707 771.148 216.918C771.391 216.121 771.73 215.438 772.168 214.867C772.613 214.297 773.141 213.859 773.75 213.555C774.367 213.242 775.055 213.086 775.812 213.086C776.609 213.086 777.305 213.227 777.898 213.508C778.5 213.781 779.008 214.184 779.422 214.715C779.844 215.238 780.176 215.871 780.418 216.613C780.66 217.355 780.828 218.195 780.922 219.133V220.211C780.836 221.141 780.668 221.977 780.418 222.719C780.176 223.461 779.844 224.094 779.422 224.617C779.008 225.141 778.5 225.543 777.898 225.824C777.297 226.098 776.594 226.234 775.789 226.234C775.047 226.234 774.367 226.074 773.75 225.754C773.141 225.434 772.613 224.984 772.168 224.406C771.73 223.828 771.391 223.148 771.148 222.367C770.914 221.578 770.797 220.723 770.797 219.801ZM772.977 219.555V219.801C772.977 220.434 773.039 221.027 773.164 221.582C773.297 222.137 773.5 222.625 773.773 223.047C774.047 223.469 774.395 223.801 774.816 224.043C775.238 224.277 775.742 224.395 776.328 224.395C777.047 224.395 777.637 224.242 778.098 223.938C778.566 223.633 778.941 223.23 779.223 222.73C779.504 222.23 779.723 221.688 779.879 221.102V218.277C779.785 217.848 779.648 217.434 779.469 217.035C779.297 216.629 779.07 216.27 778.789 215.957C778.516 215.637 778.176 215.383 777.77 215.195C777.371 215.008 776.898 214.914 776.352 214.914C775.758 214.914 775.246 215.039 774.816 215.289C774.395 215.531 774.047 215.867 773.773 216.297C773.5 216.719 773.297 217.211 773.164 217.773C773.039 218.328 772.977 218.922 772.977 219.555ZM790.145 226.234C789.262 226.234 788.461 226.086 787.742 225.789C787.031 225.484 786.418 225.059 785.902 224.512C785.395 223.965 785.004 223.316 784.73 222.566C784.457 221.816 784.32 220.996 784.32 220.105V219.613C784.32 218.582 784.473 217.664 784.777 216.859C785.082 216.047 785.496 215.359 786.02 214.797C786.543 214.234 787.137 213.809 787.801 213.52C788.465 213.23 789.152 213.086 789.863 213.086C790.77 213.086 791.551 213.242 792.207 213.555C792.871 213.867 793.414 214.305 793.836 214.867C794.258 215.422 794.57 216.078 794.773 216.836C794.977 217.586 795.078 218.406 795.078 219.297V220.27H785.609V218.5H792.91V218.336C792.879 217.773 792.762 217.227 792.559 216.695C792.363 216.164 792.051 215.727 791.621 215.383C791.191 215.039 790.605 214.867 789.863 214.867C789.371 214.867 788.918 214.973 788.504 215.184C788.09 215.387 787.734 215.691 787.438 216.098C787.141 216.504 786.91 217 786.746 217.586C786.582 218.172 786.5 218.848 786.5 219.613V220.105C786.5 220.707 786.582 221.273 786.746 221.805C786.918 222.328 787.164 222.789 787.484 223.188C787.812 223.586 788.207 223.898 788.668 224.125C789.137 224.352 789.668 224.465 790.262 224.465C791.027 224.465 791.676 224.309 792.207 223.996C792.738 223.684 793.203 223.266 793.602 222.742L794.914 223.785C794.641 224.199 794.293 224.594 793.871 224.969C793.449 225.344 792.93 225.648 792.312 225.883C791.703 226.117 790.98 226.234 790.145 226.234ZM805.73 215.758V230.875H803.551V213.32H805.543L805.73 215.758ZM814.273 219.555V219.801C814.273 220.723 814.164 221.578 813.945 222.367C813.727 223.148 813.406 223.828 812.984 224.406C812.57 224.984 812.059 225.434 811.449 225.754C810.84 226.074 810.141 226.234 809.352 226.234C808.547 226.234 807.836 226.102 807.219 225.836C806.602 225.57 806.078 225.184 805.648 224.676C805.219 224.168 804.875 223.559 804.617 222.848C804.367 222.137 804.195 221.336 804.102 220.445V219.133C804.195 218.195 804.371 217.355 804.629 216.613C804.887 215.871 805.227 215.238 805.648 214.715C806.078 214.184 806.598 213.781 807.207 213.508C807.816 213.227 808.52 213.086 809.316 213.086C810.113 213.086 810.82 213.242 811.438 213.555C812.055 213.859 812.574 214.297 812.996 214.867C813.418 215.438 813.734 216.121 813.945 216.918C814.164 217.707 814.273 218.586 814.273 219.555ZM812.094 219.801V219.555C812.094 218.922 812.027 218.328 811.895 217.773C811.762 217.211 811.555 216.719 811.273 216.297C811 215.867 810.648 215.531 810.219 215.289C809.789 215.039 809.277 214.914 808.684 214.914C808.137 214.914 807.66 215.008 807.254 215.195C806.855 215.383 806.516 215.637 806.234 215.957C805.953 216.27 805.723 216.629 805.543 217.035C805.371 217.434 805.242 217.848 805.156 218.277V221.312C805.312 221.859 805.531 222.375 805.812 222.859C806.094 223.336 806.469 223.723 806.938 224.02C807.406 224.309 807.996 224.453 808.707 224.453C809.293 224.453 809.797 224.332 810.219 224.09C810.648 223.84 811 223.5 811.273 223.07C811.555 222.641 811.762 222.148 811.895 221.594C812.027 221.031 812.094 220.434 812.094 219.801ZM822.301 226.234C821.418 226.234 820.617 226.086 819.898 225.789C819.188 225.484 818.574 225.059 818.059 224.512C817.551 223.965 817.16 223.316 816.887 222.566C816.613 221.816 816.477 220.996 816.477 220.105V219.613C816.477 218.582 816.629 217.664 816.934 216.859C817.238 216.047 817.652 215.359 818.176 214.797C818.699 214.234 819.293 213.809 819.957 213.52C820.621 213.23 821.309 213.086 822.02 213.086C822.926 213.086 823.707 213.242 824.363 213.555C825.027 213.867 825.57 214.305 825.992 214.867C826.414 215.422 826.727 216.078 826.93 216.836C827.133 217.586 827.234 218.406 827.234 219.297V220.27H817.766V218.5H825.066V218.336C825.035 217.773 824.918 217.227 824.715 216.695C824.52 216.164 824.207 215.727 823.777 215.383C823.348 215.039 822.762 214.867 822.02 214.867C821.527 214.867 821.074 214.973 820.66 215.184C820.246 215.387 819.891 215.691 819.594 216.098C819.297 216.504 819.066 217 818.902 217.586C818.738 218.172 818.656 218.848 818.656 219.613V220.105C818.656 220.707 818.738 221.273 818.902 221.805C819.074 222.328 819.32 222.789 819.641 223.188C819.969 223.586 820.363 223.898 820.824 224.125C821.293 224.352 821.824 224.465 822.418 224.465C823.184 224.465 823.832 224.309 824.363 223.996C824.895 223.684 825.359 223.266 825.758 222.742L827.07 223.785C826.797 224.199 826.449 224.594 826.027 224.969C825.605 225.344 825.086 225.648 824.469 225.883C823.859 226.117 823.137 226.234 822.301 226.234ZM837.148 222.637C837.148 222.324 837.078 222.035 836.938 221.77C836.805 221.496 836.527 221.25 836.105 221.031C835.691 220.805 835.066 220.609 834.23 220.445C833.527 220.297 832.891 220.121 832.32 219.918C831.758 219.715 831.277 219.469 830.879 219.18C830.488 218.891 830.188 218.551 829.977 218.16C829.766 217.77 829.66 217.312 829.66 216.789C829.66 216.289 829.77 215.816 829.988 215.371C830.215 214.926 830.531 214.531 830.938 214.188C831.352 213.844 831.848 213.574 832.426 213.379C833.004 213.184 833.648 213.086 834.359 213.086C835.375 213.086 836.242 213.266 836.961 213.625C837.68 213.984 838.23 214.465 838.613 215.066C838.996 215.66 839.188 216.32 839.188 217.047H837.02C837.02 216.695 836.914 216.355 836.703 216.027C836.5 215.691 836.199 215.414 835.801 215.195C835.41 214.977 834.93 214.867 834.359 214.867C833.758 214.867 833.27 214.961 832.895 215.148C832.527 215.328 832.258 215.559 832.086 215.84C831.922 216.121 831.84 216.418 831.84 216.73C831.84 216.965 831.879 217.176 831.957 217.363C832.043 217.543 832.191 217.711 832.402 217.867C832.613 218.016 832.91 218.156 833.293 218.289C833.676 218.422 834.164 218.555 834.758 218.688C835.797 218.922 836.652 219.203 837.324 219.531C837.996 219.859 838.496 220.262 838.824 220.738C839.152 221.215 839.316 221.793 839.316 222.473C839.316 223.027 839.199 223.535 838.965 223.996C838.738 224.457 838.406 224.855 837.969 225.191C837.539 225.52 837.023 225.777 836.422 225.965C835.828 226.145 835.16 226.234 834.418 226.234C833.301 226.234 832.355 226.035 831.582 225.637C830.809 225.238 830.223 224.723 829.824 224.09C829.426 223.457 829.227 222.789 829.227 222.086H831.406C831.438 222.68 831.609 223.152 831.922 223.504C832.234 223.848 832.617 224.094 833.07 224.242C833.523 224.383 833.973 224.453 834.418 224.453C835.012 224.453 835.508 224.375 835.906 224.219C836.312 224.062 836.621 223.848 836.832 223.574C837.043 223.301 837.148 222.988 837.148 222.637ZM847.473 213.32V214.984H840.617V213.32H847.473ZM842.938 210.238H845.105V222.859C845.105 223.289 845.172 223.613 845.305 223.832C845.438 224.051 845.609 224.195 845.82 224.266C846.031 224.336 846.258 224.371 846.5 224.371C846.68 224.371 846.867 224.355 847.062 224.324C847.266 224.285 847.418 224.254 847.52 224.23L847.531 226C847.359 226.055 847.133 226.105 846.852 226.152C846.578 226.207 846.246 226.234 845.855 226.234C845.324 226.234 844.836 226.129 844.391 225.918C843.945 225.707 843.59 225.355 843.324 224.863C843.066 224.363 842.938 223.691 842.938 222.848V210.238ZM852.371 213.32V226H850.191V213.32H852.371ZM850.027 209.957C850.027 209.605 850.133 209.309 850.344 209.066C850.562 208.824 850.883 208.703 851.305 208.703C851.719 208.703 852.035 208.824 852.254 209.066C852.48 209.309 852.594 209.605 852.594 209.957C852.594 210.293 852.48 210.582 852.254 210.824C852.035 211.059 851.719 211.176 851.305 211.176C850.883 211.176 850.562 211.059 850.344 210.824C850.133 210.582 850.027 210.293 850.027 209.957ZM860.926 224.453C861.441 224.453 861.918 224.348 862.355 224.137C862.793 223.926 863.152 223.637 863.434 223.27C863.715 222.895 863.875 222.469 863.914 221.992H865.977C865.938 222.742 865.684 223.441 865.215 224.09C864.754 224.73 864.148 225.25 863.398 225.648C862.648 226.039 861.824 226.234 860.926 226.234C859.973 226.234 859.141 226.066 858.43 225.73C857.727 225.395 857.141 224.934 856.672 224.348C856.211 223.762 855.863 223.09 855.629 222.332C855.402 221.566 855.289 220.758 855.289 219.906V219.414C855.289 218.562 855.402 217.758 855.629 217C855.863 216.234 856.211 215.559 856.672 214.973C857.141 214.387 857.727 213.926 858.43 213.59C859.141 213.254 859.973 213.086 860.926 213.086C861.918 213.086 862.785 213.289 863.527 213.695C864.27 214.094 864.852 214.641 865.273 215.336C865.703 216.023 865.938 216.805 865.977 217.68H863.914C863.875 217.156 863.727 216.684 863.469 216.262C863.219 215.84 862.875 215.504 862.438 215.254C862.008 214.996 861.504 214.867 860.926 214.867C860.262 214.867 859.703 215 859.25 215.266C858.805 215.523 858.449 215.875 858.184 216.32C857.926 216.758 857.738 217.246 857.621 217.785C857.512 218.316 857.457 218.859 857.457 219.414V219.906C857.457 220.461 857.512 221.008 857.621 221.547C857.73 222.086 857.914 222.574 858.172 223.012C858.438 223.449 858.793 223.801 859.238 224.066C859.691 224.324 860.254 224.453 860.926 224.453ZM870.77 213.32V226H868.59V213.32H870.77ZM868.426 209.957C868.426 209.605 868.531 209.309 868.742 209.066C868.961 208.824 869.281 208.703 869.703 208.703C870.117 208.703 870.434 208.824 870.652 209.066C870.879 209.309 870.992 209.605 870.992 209.957C870.992 210.293 870.879 210.582 870.652 210.824C870.434 211.059 870.117 211.176 869.703 211.176C869.281 211.176 868.961 211.059 868.742 210.824C868.531 210.582 868.426 210.293 868.426 209.957ZM882.242 223.539V208H884.422V226H882.43L882.242 223.539ZM873.711 219.801V219.555C873.711 218.586 873.828 217.707 874.062 216.918C874.305 216.121 874.645 215.438 875.082 214.867C875.527 214.297 876.055 213.859 876.664 213.555C877.281 213.242 877.969 213.086 878.727 213.086C879.523 213.086 880.219 213.227 880.812 213.508C881.414 213.781 881.922 214.184 882.336 214.715C882.758 215.238 883.09 215.871 883.332 216.613C883.574 217.355 883.742 218.195 883.836 219.133V220.211C883.75 221.141 883.582 221.977 883.332 222.719C883.09 223.461 882.758 224.094 882.336 224.617C881.922 225.141 881.414 225.543 880.812 225.824C880.211 226.098 879.508 226.234 878.703 226.234C877.961 226.234 877.281 226.074 876.664 225.754C876.055 225.434 875.527 224.984 875.082 224.406C874.645 223.828 874.305 223.148 874.062 222.367C873.828 221.578 873.711 220.723 873.711 219.801ZM875.891 219.555V219.801C875.891 220.434 875.953 221.027 876.078 221.582C876.211 222.137 876.414 222.625 876.688 223.047C876.961 223.469 877.309 223.801 877.73 224.043C878.152 224.277 878.656 224.395 879.242 224.395C879.961 224.395 880.551 224.242 881.012 223.938C881.48 223.633 881.855 223.23 882.137 222.73C882.418 222.23 882.637 221.688 882.793 221.102V218.277C882.699 217.848 882.562 217.434 882.383 217.035C882.211 216.629 881.984 216.27 881.703 215.957C881.43 215.637 881.09 215.383 880.684 215.195C880.285 215.008 879.812 214.914 879.266 214.914C878.672 214.914 878.16 215.039 877.73 215.289C877.309 215.531 876.961 215.867 876.688 216.297C876.414 216.719 876.211 217.211 876.078 217.773C875.953 218.328 875.891 218.922 875.891 219.555ZM895.273 223.832V217.305C895.273 216.805 895.172 216.371 894.969 216.004C894.773 215.629 894.477 215.34 894.078 215.137C893.68 214.934 893.188 214.832 892.602 214.832C892.055 214.832 891.574 214.926 891.16 215.113C890.754 215.301 890.434 215.547 890.199 215.852C889.973 216.156 889.859 216.484 889.859 216.836H887.691C887.691 216.383 887.809 215.934 888.043 215.488C888.277 215.043 888.613 214.641 889.051 214.281C889.496 213.914 890.027 213.625 890.645 213.414C891.27 213.195 891.965 213.086 892.73 213.086C893.652 213.086 894.465 213.242 895.168 213.555C895.879 213.867 896.434 214.34 896.832 214.973C897.238 215.598 897.441 216.383 897.441 217.328V223.234C897.441 223.656 897.477 224.105 897.547 224.582C897.625 225.059 897.738 225.469 897.887 225.812V226H895.625C895.516 225.75 895.43 225.418 895.367 225.004C895.305 224.582 895.273 224.191 895.273 223.832ZM895.648 218.312L895.672 219.836H893.48C892.863 219.836 892.312 219.887 891.828 219.988C891.344 220.082 890.938 220.227 890.609 220.422C890.281 220.617 890.031 220.863 889.859 221.16C889.688 221.449 889.602 221.789 889.602 222.18C889.602 222.578 889.691 222.941 889.871 223.27C890.051 223.598 890.32 223.859 890.68 224.055C891.047 224.242 891.496 224.336 892.027 224.336C892.691 224.336 893.277 224.195 893.785 223.914C894.293 223.633 894.695 223.289 894.992 222.883C895.297 222.477 895.461 222.082 895.484 221.699L896.41 222.742C896.355 223.07 896.207 223.434 895.965 223.832C895.723 224.23 895.398 224.613 894.992 224.98C894.594 225.34 894.117 225.641 893.562 225.883C893.016 226.117 892.398 226.234 891.711 226.234C890.852 226.234 890.098 226.066 889.449 225.73C888.809 225.395 888.309 224.945 887.949 224.383C887.598 223.812 887.422 223.176 887.422 222.473C887.422 221.793 887.555 221.195 887.82 220.68C888.086 220.156 888.469 219.723 888.969 219.379C889.469 219.027 890.07 218.762 890.773 218.582C891.477 218.402 892.262 218.312 893.129 218.312H895.648ZM908.234 222.637C908.234 222.324 908.164 222.035 908.023 221.77C907.891 221.496 907.613 221.25 907.191 221.031C906.777 220.805 906.152 220.609 905.316 220.445C904.613 220.297 903.977 220.121 903.406 219.918C902.844 219.715 902.363 219.469 901.965 219.18C901.574 218.891 901.273 218.551 901.062 218.16C900.852 217.77 900.746 217.312 900.746 216.789C900.746 216.289 900.855 215.816 901.074 215.371C901.301 214.926 901.617 214.531 902.023 214.188C902.438 213.844 902.934 213.574 903.512 213.379C904.09 213.184 904.734 213.086 905.445 213.086C906.461 213.086 907.328 213.266 908.047 213.625C908.766 213.984 909.316 214.465 909.699 215.066C910.082 215.66 910.273 216.32 910.273 217.047H908.105C908.105 216.695 908 216.355 907.789 216.027C907.586 215.691 907.285 215.414 906.887 215.195C906.496 214.977 906.016 214.867 905.445 214.867C904.844 214.867 904.355 214.961 903.98 215.148C903.613 215.328 903.344 215.559 903.172 215.84C903.008 216.121 902.926 216.418 902.926 216.73C902.926 216.965 902.965 217.176 903.043 217.363C903.129 217.543 903.277 217.711 903.488 217.867C903.699 218.016 903.996 218.156 904.379 218.289C904.762 218.422 905.25 218.555 905.844 218.688C906.883 218.922 907.738 219.203 908.41 219.531C909.082 219.859 909.582 220.262 909.91 220.738C910.238 221.215 910.402 221.793 910.402 222.473C910.402 223.027 910.285 223.535 910.051 223.996C909.824 224.457 909.492 224.855 909.055 225.191C908.625 225.52 908.109 225.777 907.508 225.965C906.914 226.145 906.246 226.234 905.504 226.234C904.387 226.234 903.441 226.035 902.668 225.637C901.895 225.238 901.309 224.723 900.91 224.09C900.512 223.457 900.312 222.789 900.312 222.086H902.492C902.523 222.68 902.695 223.152 903.008 223.504C903.32 223.848 903.703 224.094 904.156 224.242C904.609 224.383 905.059 224.453 905.504 224.453C906.098 224.453 906.594 224.375 906.992 224.219C907.398 224.062 907.707 223.848 907.918 223.574C908.129 223.301 908.234 222.988 908.234 222.637Z" fill="black"/>
<path d="M77.6889 26.5H82.3089C85.2689 26.5 87.4789 27.44 88.9389 29.32C90.3989 31.2 91.1289 34.04 91.1289 37.84C91.1289 39.86 90.8489 41.71 90.2889 43.39C89.7489 45.07 88.8789 46.43 87.6789 47.47C86.4789 48.49 84.9489 49 83.0889 49H77.6889V26.5ZM82.6989 45.49C84.2189 45.49 85.2689 44.84 85.8489 43.54C86.4489 42.22 86.7489 40.6 86.7489 38.68V37.66C86.7489 36.28 86.6589 35.06 86.4789 34C86.3189 32.92 85.9289 31.99 85.3089 31.21C84.7089 30.41 83.7989 30.01 82.5789 30.01H82.0689V45.49H82.6989ZM99.4002 49.39C97.4002 49.39 95.8702 48.6 94.8102 47.02C93.7502 45.42 93.2202 43.3 93.2202 40.66C93.2202 37.98 93.7602 35.85 94.8402 34.27C95.9202 32.69 97.4902 31.9 99.5502 31.9C101.51 31.9 103.01 32.69 104.05 34.27C105.09 35.85 105.61 37.98 105.61 40.66C105.61 40.82 105.58 40.94 105.52 41.02C105.46 41.08 105.43 41.12 105.43 41.14H97.4202C97.4202 42.44 97.5902 43.63 97.9302 44.71C98.2702 45.77 98.7902 46.3 99.4902 46.3C100.27 46.3 100.85 45.85 101.23 44.95C101.61 44.05 101.81 43.58 101.83 43.54L105.01 44.74C104.59 46.18 103.92 47.32 103 48.16C102.08 48.98 100.88 49.39 99.4002 49.39ZM101.47 38.71C101.47 37.51 101.31 36.56 100.99 35.86C100.67 35.16 100.17 34.81 99.4902 34.81C99.1502 34.81 98.8202 34.98 98.5002 35.32C98.1802 35.66 97.9202 36.13 97.7202 36.73C97.5202 37.33 97.4202 37.99 97.4202 38.71H101.47ZM113.191 49.39C111.531 49.39 110.191 49.02 109.171 48.28C108.151 47.52 107.491 46.47 107.191 45.13L110.461 44.05C110.541 44.43 110.691 44.77 110.911 45.07C111.371 45.73 112.041 46.06 112.921 46.06C113.421 46.06 113.901 45.95 114.361 45.73C114.821 45.51 115.051 45.17 115.051 44.71C115.051 44.09 114.621 43.61 113.761 43.27L110.221 41.83C109.281 41.43 108.561 40.83 108.061 40.03C107.561 39.23 107.311 38.25 107.311 37.09C107.311 36.01 107.571 35.08 108.091 34.3C108.631 33.52 109.331 32.93 110.191 32.53C111.071 32.11 112.011 31.9 113.011 31.9C114.271 31.9 115.431 32.27 116.491 33.01C117.551 33.73 118.261 34.72 118.621 35.98L115.141 37.06C115.061 36.72 114.921 36.38 114.721 36.04C114.281 35.36 113.721 35.02 113.041 35.02C112.541 35.02 112.111 35.14 111.751 35.38C111.391 35.6 111.211 35.93 111.211 36.37C111.211 36.89 111.701 37.37 112.681 37.81L115.681 39.04C116.741 39.54 117.571 40.17 118.171 40.93C118.771 41.69 119.071 42.71 119.071 43.99C119.071 45.15 118.791 46.14 118.231 46.96C117.671 47.76 116.941 48.37 116.041 48.79C115.141 49.19 114.191 49.39 113.191 49.39ZM124.446 49.39C123.726 49.39 123.076 49.17 122.496 48.73C121.916 48.27 121.466 47.66 121.146 46.9C120.826 46.12 120.666 45.25 120.666 44.29C120.666 42.11 121.406 40.58 122.886 39.7C124.386 38.8 126.126 38.29 128.106 38.17C128.106 37.09 128.036 36.29 127.896 35.77C127.756 35.25 127.416 34.99 126.876 34.99C126.416 34.99 126.066 35.17 125.826 35.53C125.586 35.89 125.436 36.35 125.376 36.91L121.266 36.19C121.466 34.65 122.096 33.55 123.156 32.89C124.216 32.23 125.456 31.9 126.876 31.9C128.696 31.9 130.056 32.38 130.956 33.34C131.876 34.3 132.336 35.55 132.336 37.09V45.82C132.336 46.76 132.486 47.76 132.786 48.82L128.676 49.18L128.196 47.11C127.836 47.75 127.306 48.29 126.606 48.73C125.906 49.17 125.186 49.39 124.446 49.39ZM126.396 46.39C126.736 46.39 127.016 46.31 127.236 46.15C127.476 45.99 127.766 45.73 128.106 45.37V40.69C127.106 40.69 126.306 40.96 125.706 41.5C125.106 42.04 124.806 42.88 124.806 44.02C124.806 44.78 124.936 45.37 125.196 45.79C125.476 46.19 125.876 46.39 126.396 46.39ZM135.808 32.47L140.008 32.11V34.84C140.608 33.98 141.348 33.29 142.228 32.77C143.128 32.23 144.268 31.96 145.648 31.96V36.07C144.928 36.07 143.978 36.2 142.798 36.46C141.638 36.7 140.708 37.13 140.008 37.75V48.82L135.808 49.18V32.47ZM147.936 32.47L152.136 32.11V34.84C152.736 33.98 153.476 33.29 154.356 32.77C155.256 32.23 156.396 31.96 157.776 31.96V36.07C157.056 36.07 156.106 36.2 154.926 36.46C153.766 36.7 152.836 37.13 152.136 37.75V48.82L147.936 49.18V32.47ZM165.555 49.39C163.535 49.39 161.975 48.59 160.875 46.99C159.795 45.39 159.255 43.26 159.255 40.6C159.255 37.96 159.795 35.85 160.875 34.27C161.955 32.69 163.515 31.9 165.555 31.9C167.575 31.9 169.135 32.69 170.235 34.27C171.355 35.85 171.915 37.96 171.915 40.6C171.915 43.24 171.355 45.37 170.235 46.99C169.135 48.59 167.575 49.39 165.555 49.39ZM165.555 46.27C166.455 46.27 167.035 45.72 167.295 44.62C167.555 43.52 167.685 42.17 167.685 40.57C167.685 38.97 167.555 37.62 167.295 36.52C167.035 35.42 166.455 34.87 165.555 34.87C164.655 34.87 164.085 35.39 163.845 36.43C163.605 37.47 163.485 38.74 163.485 40.24C163.485 42.08 163.605 43.55 163.845 44.65C164.085 45.73 164.655 46.27 165.555 46.27ZM174.802 49.18V27.04L179.002 26.5V48.82L174.802 49.18ZM182.683 49.18V27.04L186.883 26.5V48.82L182.683 49.18ZM196.024 49.39C194.004 49.39 192.444 48.59 191.344 46.99C190.264 45.39 189.724 43.26 189.724 40.6C189.724 37.96 190.264 35.85 191.344 34.27C192.424 32.69 193.984 31.9 196.024 31.9C198.044 31.9 199.604 32.69 200.704 34.27C201.824 35.85 202.384 37.96 202.384 40.6C202.384 43.24 201.824 45.37 200.704 46.99C199.604 48.59 198.044 49.39 196.024 49.39ZM196.024 46.27C196.924 46.27 197.504 45.72 197.764 44.62C198.024 43.52 198.154 42.17 198.154 40.57C198.154 38.97 198.024 37.62 197.764 36.52C197.504 35.42 196.924 34.87 196.024 34.87C195.124 34.87 194.554 35.39 194.314 36.43C194.074 37.47 193.954 38.74 193.954 40.24C193.954 42.08 194.074 43.55 194.314 44.65C194.554 45.73 195.124 46.27 196.024 46.27ZM82.2245 92.39C80.5645 92.39 79.2245 92.02 78.2045 91.28C77.1845 90.52 76.5245 89.47 76.2245 88.13L79.4945 87.05C79.5745 87.43 79.7245 87.77 79.9445 88.07C80.4045 88.73 81.0745 89.06 81.9545 89.06C82.4545 89.06 82.9345 88.95 83.3945 88.73C83.8545 88.51 84.0845 88.17 84.0845 87.71C84.0845 87.09 83.6545 86.61 82.7945 86.27L79.2545 84.83C78.3145 84.43 77.5945 83.83 77.0945 83.03C76.5945 82.23 76.3445 81.25 76.3445 80.09C76.3445 79.01 76.6045 78.08 77.1245 77.3C77.6645 76.52 78.3645 75.93 79.2245 75.53C80.1045 75.11 81.0445 74.9 82.0445 74.9C83.3045 74.9 84.4645 75.27 85.5245 76.01C86.5845 76.73 87.2945 77.72 87.6545 78.98L84.1745 80.06C84.0945 79.72 83.9545 79.38 83.7545 79.04C83.3145 78.36 82.7545 78.02 82.0745 78.02C81.5745 78.02 81.1445 78.14 80.7845 78.38C80.4245 78.6 80.2445 78.93 80.2445 79.37C80.2445 79.89 80.7345 80.37 81.7145 80.81L84.7145 82.04C85.7745 82.54 86.6045 83.17 87.2045 83.93C87.8045 84.69 88.1045 85.71 88.1045 86.99C88.1045 88.15 87.8245 89.14 87.2645 89.96C86.7045 90.76 85.9745 91.37 85.0745 91.79C84.1745 92.19 83.2245 92.39 82.2245 92.39ZM96.2097 92.39C94.1897 92.39 92.6297 91.59 91.5297 89.99C90.4497 88.39 89.9097 86.26 89.9097 83.6C89.9097 80.96 90.4497 78.85 91.5297 77.27C92.6097 75.69 94.1697 74.9 96.2097 74.9C98.2297 74.9 99.7897 75.69 100.89 77.27C102.01 78.85 102.57 80.96 102.57 83.6C102.57 86.24 102.01 88.37 100.89 89.99C99.7897 91.59 98.2297 92.39 96.2097 92.39ZM96.2097 89.27C97.1097 89.27 97.6897 88.72 97.9497 87.62C98.2097 86.52 98.3397 85.17 98.3397 83.57C98.3397 81.97 98.2097 80.62 97.9497 79.52C97.6897 78.42 97.1097 77.87 96.2097 77.87C95.3097 77.87 94.7397 78.39 94.4997 79.43C94.2597 80.47 94.1397 81.74 94.1397 83.24C94.1397 85.08 94.2597 86.55 94.4997 87.65C94.7397 88.73 95.3097 89.27 96.2097 89.27ZM110.467 92.39C108.807 92.39 107.467 92.02 106.447 91.28C105.427 90.52 104.767 89.47 104.467 88.13L107.737 87.05C107.817 87.43 107.967 87.77 108.187 88.07C108.647 88.73 109.317 89.06 110.197 89.06C110.697 89.06 111.177 88.95 111.637 88.73C112.097 88.51 112.327 88.17 112.327 87.71C112.327 87.09 111.897 86.61 111.037 86.27L107.497 84.83C106.557 84.43 105.837 83.83 105.337 83.03C104.837 82.23 104.587 81.25 104.587 80.09C104.587 79.01 104.847 78.08 105.367 77.3C105.907 76.52 106.607 75.93 107.467 75.53C108.347 75.11 109.287 74.9 110.287 74.9C111.547 74.9 112.707 75.27 113.767 76.01C114.827 76.73 115.537 77.72 115.897 78.98L112.417 80.06C112.337 79.72 112.197 79.38 111.997 79.04C111.557 78.36 110.997 78.02 110.317 78.02C109.817 78.02 109.387 78.14 109.027 78.38C108.667 78.6 108.487 78.93 108.487 79.37C108.487 79.89 108.977 80.37 109.957 80.81L112.957 82.04C114.017 82.54 114.847 83.17 115.447 83.93C116.047 84.69 116.347 85.71 116.347 86.99C116.347 88.15 116.067 89.14 115.507 89.96C114.947 90.76 114.217 91.37 113.317 91.79C112.417 92.19 111.467 92.39 110.467 92.39ZM124.722 92.33C123.362 92.33 122.212 91.99 121.272 91.31C120.332 90.61 119.862 89.38 119.862 87.62V78.29H117.522L117.702 75.11H119.982L120.402 71.45L124.062 70.94V75.11H127.542L127.362 78.29H124.092V87.59C124.092 88.19 124.242 88.62 124.542 88.88C124.842 89.14 125.282 89.27 125.862 89.27C126.182 89.27 126.722 89.21 127.482 89.09V92C127.402 92.02 127.082 92.08 126.522 92.18C125.982 92.28 125.382 92.33 124.722 92.33ZM135.142 92.39C133.142 92.39 131.612 91.6 130.552 90.02C129.492 88.42 128.962 86.3 128.962 83.66C128.962 80.98 129.502 78.85 130.582 77.27C131.662 75.69 133.232 74.9 135.292 74.9C137.252 74.9 138.752 75.69 139.792 77.27C140.832 78.85 141.352 80.98 141.352 83.66C141.352 83.82 141.322 83.94 141.262 84.02C141.202 84.08 141.172 84.12 141.172 84.14H133.162C133.162 85.44 133.332 86.63 133.672 87.71C134.012 88.77 134.532 89.3 135.232 89.3C136.012 89.3 136.592 88.85 136.972 87.95C137.352 87.05 137.552 86.58 137.572 86.54L140.752 87.74C140.332 89.18 139.662 90.32 138.742 91.16C137.822 91.98 136.622 92.39 135.142 92.39ZM137.212 81.71C137.212 80.51 137.052 79.56 136.732 78.86C136.412 78.16 135.912 77.81 135.232 77.81C134.892 77.81 134.562 77.98 134.242 78.32C133.922 78.66 133.662 79.13 133.462 79.73C133.262 80.33 133.162 80.99 133.162 81.71H137.212ZM143.893 75.47L148.093 75.11V77.27C148.953 76.51 149.793 75.93 150.613 75.53C151.453 75.11 152.223 74.9 152.923 74.9C153.983 74.9 154.843 75.29 155.503 76.07C156.183 76.83 156.523 77.86 156.523 79.16V91.82L152.323 92.18V80.75C152.323 79.25 151.813 78.5 150.793 78.5C150.453 78.5 150.073 78.6 149.653 78.8C149.253 79 148.733 79.29 148.093 79.67V91.82L143.893 92.18V75.47ZM160.095 72.95V68.6L164.295 68.3V72.77L160.095 72.95ZM160.065 92.18V75.47L164.265 75.11V91.82L160.065 92.18ZM175.776 92.39C174.656 92.39 173.826 92.17 173.286 91.73C172.746 91.27 172.366 90.66 172.146 89.9L171.126 92.18L167.946 91.82V70.04L172.146 69.5V77.27C172.646 76.55 173.276 75.98 174.036 75.56C174.796 75.12 175.596 74.9 176.436 74.9C177.736 74.9 178.756 75.59 179.496 76.97C180.236 78.33 180.606 80.53 180.606 83.57C180.606 89.45 178.996 92.39 175.776 92.39ZM174.216 89.39C175.136 89.39 175.726 88.9 175.986 87.92C176.266 86.94 176.406 85.49 176.406 83.57C176.406 82.23 176.346 81.21 176.226 80.51C176.126 79.79 175.936 79.28 175.656 78.98C175.396 78.66 175.006 78.5 174.486 78.5C174.126 78.5 173.706 78.63 173.226 78.89C172.746 79.15 172.386 79.4 172.146 79.64V84.98C172.146 86.58 172.336 87.72 172.716 88.4C173.116 89.06 173.616 89.39 174.216 89.39ZM183.504 92.18V70.04L187.704 69.5V91.82L183.504 92.18ZM196.724 92.39C194.724 92.39 193.194 91.6 192.134 90.02C191.074 88.42 190.544 86.3 190.544 83.66C190.544 80.98 191.084 78.85 192.164 77.27C193.244 75.69 194.814 74.9 196.874 74.9C198.834 74.9 200.334 75.69 201.374 77.27C202.414 78.85 202.934 80.98 202.934 83.66C202.934 83.82 202.904 83.94 202.844 84.02C202.784 84.08 202.754 84.12 202.754 84.14H194.744C194.744 85.44 194.914 86.63 195.254 87.71C195.594 88.77 196.114 89.3 196.814 89.3C197.594 89.3 198.174 88.85 198.554 87.95C198.934 87.05 199.134 86.58 199.154 86.54L202.334 87.74C201.914 89.18 201.244 90.32 200.324 91.16C199.404 91.98 198.204 92.39 196.724 92.39ZM198.794 81.71C198.794 80.51 198.634 79.56 198.314 78.86C197.994 78.16 197.494 77.81 196.814 77.81C196.474 77.81 196.144 77.98 195.824 78.32C195.504 78.66 195.244 79.13 195.044 79.73C194.844 80.33 194.744 80.99 194.744 81.71H198.794Z" fill="black"/>
<defs>
<filter id="filter0_d_1141_239" x="0.25" y="0.248047" width="277" height="276" filterUnits="userSpaceOnUse" color-interpolation-filters="sRGB">
<feFlood flood-opacity="0" result="BackgroundImageFix"/>
<feColorMatrix in="SourceAlpha" type="matrix" values="0 0 0 0 0 0 0 0 0 0 0 0 0 0 0 0 0 0 127 0" result="hardAlpha"/>
<feOffset dy="4"/>
<feGaussianBlur stdDeviation="2"/>
<feComposite in2="hardAlpha" operator="out"/>
<feColorMatrix type="matrix" values="0 0 0 0 0 0 0 0 0 0 0 0 0 0 0 0 0 0 0.25 0"/>
<feBlend mode="normal" in2="BackgroundImageFix" result="effect1_dropShadow_1141_239"/>
<feBlend mode="normal" in="SourceGraphic" in2="effect1_dropShadow_1141_239" result="shape"/>
</filter>
</defs>
</svg>
