<svg width="828" height="276" viewBox="0 0 828 276" fill="none" xmlns="http://www.w3.org/2000/svg">
<path d="M226 31H758C796.66 31 828 62.3401 828 101V170C828 208.66 796.66 240 758 240H226V31Z" fill="#FFF1DD"/>
<g filter="url(#filter0_d_1141_260)">
<ellipse cx="138.5" cy="134" rx="134.5" ry="134" fill="#FFF1DD"/>
</g>
<path d="M49.1243 208.42C46.5443 208.42 44.7243 207.25 43.6643 204.91C42.6243 202.57 42.1043 199.69 42.1043 196.27C42.1043 194.43 42.3443 192.66 42.8243 190.96C43.3043 189.26 44.0743 187.86 45.1343 186.76C46.2143 185.64 47.5743 185.08 49.2143 185.08C50.4743 185.08 51.5743 185.47 52.5143 186.25C53.4743 187.03 54.2043 188.05 54.7043 189.31C55.2243 190.55 55.4843 191.85 55.4843 193.21L51.2243 193.42C51.2243 192.52 51.0743 191.5 50.7743 190.36C50.4743 189.2 49.8743 188.62 48.9743 188.62C48.0343 188.62 47.3843 189.37 47.0243 190.87C46.6643 192.37 46.4843 194.17 46.4843 196.27C46.4843 198.87 46.6843 200.96 47.0843 202.54C47.4843 204.1 48.2543 204.88 49.3943 204.88C50.1943 204.88 50.7643 204.41 51.1043 203.47C51.4443 202.51 51.6643 201.35 51.7643 199.99L55.5143 200.35C55.5143 201.79 55.2743 203.13 54.7943 204.37C54.3143 205.59 53.5943 206.57 52.6343 207.31C51.6743 208.05 50.5043 208.42 49.1243 208.42ZM63.8981 208.39C61.8781 208.39 60.3181 207.59 59.2181 205.99C58.1381 204.39 57.5981 202.26 57.5981 199.6C57.5981 196.96 58.1381 194.85 59.2181 193.27C60.2981 191.69 61.8581 190.9 63.8981 190.9C65.9181 190.9 67.4781 191.69 68.5781 193.27C69.6981 194.85 70.2581 196.96 70.2581 199.6C70.2581 202.24 69.6981 204.37 68.5781 205.99C67.4781 207.59 65.9181 208.39 63.8981 208.39ZM63.8981 205.27C64.7981 205.27 65.3781 204.72 65.6381 203.62C65.8981 202.52 66.0281 201.17 66.0281 199.57C66.0281 197.97 65.8981 196.62 65.6381 195.52C65.3781 194.42 64.7981 193.87 63.8981 193.87C62.9981 193.87 62.4281 194.39 62.1881 195.43C61.9481 196.47 61.8281 197.74 61.8281 199.24C61.8281 201.08 61.9481 202.55 62.1881 203.65C62.4281 204.73 62.9981 205.27 63.8981 205.27ZM78.6052 208.39C76.5852 208.39 75.0252 207.59 73.9252 205.99C72.8452 204.39 72.3052 202.26 72.3052 199.6C72.3052 196.96 72.8452 194.85 73.9252 193.27C75.0052 191.69 76.5652 190.9 78.6052 190.9C80.6252 190.9 82.1852 191.69 83.2852 193.27C84.4052 194.85 84.9652 196.96 84.9652 199.6C84.9652 202.24 84.4052 204.37 83.2852 205.99C82.1852 207.59 80.6252 208.39 78.6052 208.39ZM78.6052 205.27C79.5052 205.27 80.0852 204.72 80.3452 203.62C80.6052 202.52 80.7352 201.17 80.7352 199.57C80.7352 197.97 80.6052 196.62 80.3452 195.52C80.0852 194.42 79.5052 193.87 78.6052 193.87C77.7052 193.87 77.1352 194.39 76.8952 195.43C76.6552 196.47 76.5352 197.74 76.5352 199.24C76.5352 201.08 76.6552 202.55 76.8952 203.65C77.1352 204.73 77.7052 205.27 78.6052 205.27ZM87.8222 191.47L92.0222 191.11V192.76C92.6822 192.1 93.2922 191.63 93.8522 191.35C94.4322 191.05 95.1022 190.9 95.8622 190.9C96.9022 190.9 97.7222 191.19 98.3222 191.77C98.9422 192.35 99.3822 193.26 99.6422 194.5C99.9222 195.72 100.062 197.36 100.062 199.42C100.062 202.24 99.7322 204.44 99.0722 206.02C98.4322 207.6 97.1922 208.39 95.3522 208.39C94.5122 208.39 93.8422 208.23 93.3422 207.91C92.8422 207.59 92.4022 207.14 92.0222 206.56V212.41L87.8222 213.25V191.47ZM93.8522 205.18C94.5122 205.18 95.0022 204.79 95.3222 204.01C95.6622 203.23 95.8322 201.76 95.8322 199.6C95.8322 197.54 95.6622 196.08 95.3222 195.22C95.0022 194.36 94.5022 193.93 93.8222 193.93C93.1222 193.93 92.5222 194.32 92.0222 195.1V203.83C92.4222 204.73 93.0322 205.18 93.8522 205.18ZM108.339 208.39C106.339 208.39 104.809 207.6 103.749 206.02C102.689 204.42 102.159 202.3 102.159 199.66C102.159 196.98 102.699 194.85 103.779 193.27C104.859 191.69 106.429 190.9 108.489 190.9C110.449 190.9 111.949 191.69 112.989 193.27C114.029 194.85 114.549 196.98 114.549 199.66C114.549 199.82 114.519 199.94 114.459 200.02C114.399 200.08 114.369 200.12 114.369 200.14H106.359C106.359 201.44 106.529 202.63 106.869 203.71C107.209 204.77 107.729 205.3 108.429 205.3C109.209 205.3 109.789 204.85 110.169 203.95C110.549 203.05 110.749 202.58 110.769 202.54L113.949 203.74C113.529 205.18 112.859 206.32 111.939 207.16C111.019 207.98 109.819 208.39 108.339 208.39ZM110.409 197.71C110.409 196.51 110.249 195.56 109.929 194.86C109.609 194.16 109.109 193.81 108.429 193.81C108.089 193.81 107.759 193.98 107.439 194.32C107.119 194.66 106.859 195.13 106.659 195.73C106.459 196.33 106.359 196.99 106.359 197.71H110.409ZM117.09 191.47L121.29 191.11V193.84C121.89 192.98 122.63 192.29 123.51 191.77C124.41 191.23 125.55 190.96 126.93 190.96V195.07C126.21 195.07 125.26 195.2 124.08 195.46C122.92 195.7 121.99 196.13 121.29 196.75V207.82L117.09 208.18V191.47ZM131.979 208.39C131.259 208.39 130.609 208.17 130.029 207.73C129.449 207.27 128.999 206.66 128.679 205.9C128.359 205.12 128.199 204.25 128.199 203.29C128.199 201.11 128.939 199.58 130.419 198.7C131.919 197.8 133.659 197.29 135.639 197.17C135.639 196.09 135.569 195.29 135.429 194.77C135.289 194.25 134.949 193.99 134.409 193.99C133.949 193.99 133.599 194.17 133.359 194.53C133.119 194.89 132.969 195.35 132.909 195.91L128.799 195.19C128.999 193.65 129.629 192.55 130.689 191.89C131.749 191.23 132.989 190.9 134.409 190.9C136.229 190.9 137.589 191.38 138.489 192.34C139.409 193.3 139.869 194.55 139.869 196.09V204.82C139.869 205.76 140.019 206.76 140.319 207.82L136.209 208.18L135.729 206.11C135.369 206.75 134.839 207.29 134.139 207.73C133.439 208.17 132.719 208.39 131.979 208.39ZM133.929 205.39C134.269 205.39 134.549 205.31 134.769 205.15C135.009 204.99 135.299 204.73 135.639 204.37V199.69C134.639 199.69 133.839 199.96 133.239 200.5C132.639 201.04 132.339 201.88 132.339 203.02C132.339 203.78 132.469 204.37 132.729 204.79C133.009 205.19 133.409 205.39 133.929 205.39ZM149.1 208.33C147.74 208.33 146.59 207.99 145.65 207.31C144.71 206.61 144.24 205.38 144.24 203.62V194.29H141.9L142.08 191.11H144.36L144.78 187.45L148.44 186.94V191.11H151.92L151.74 194.29H148.47V203.59C148.47 204.19 148.62 204.62 148.92 204.88C149.22 205.14 149.66 205.27 150.24 205.27C150.56 205.27 151.1 205.21 151.86 205.09V208C151.78 208.02 151.46 208.08 150.9 208.18C150.36 208.28 149.76 208.33 149.1 208.33ZM154.18 188.95V184.6L158.38 184.3V188.77L154.18 188.95ZM154.15 208.18V191.47L158.35 191.11V207.82L154.15 208.18ZM165.031 208L160.321 191.47L165.361 191.11L167.491 201.91L169.921 191.65L173.731 191.29L168.901 208H165.031ZM175.714 188.95V184.6L179.914 184.3V188.77L175.714 188.95ZM175.684 208.18V191.47L179.884 191.11V207.82L175.684 208.18ZM188.604 208.39C186.944 208.39 185.604 208.02 184.584 207.28C183.564 206.52 182.904 205.47 182.604 204.13L185.874 203.05C185.954 203.43 186.104 203.77 186.324 204.07C186.784 204.73 187.454 205.06 188.334 205.06C188.834 205.06 189.314 204.95 189.774 204.73C190.234 204.51 190.464 204.17 190.464 203.71C190.464 203.09 190.034 202.61 189.174 202.27L185.634 200.83C184.694 200.43 183.974 199.83 183.474 199.03C182.974 198.23 182.724 197.25 182.724 196.09C182.724 195.01 182.984 194.08 183.504 193.3C184.044 192.52 184.744 191.93 185.604 191.53C186.484 191.11 187.424 190.9 188.424 190.9C189.684 190.9 190.844 191.27 191.904 192.01C192.964 192.73 193.674 193.72 194.034 194.98L190.554 196.06C190.474 195.72 190.334 195.38 190.134 195.04C189.694 194.36 189.134 194.02 188.454 194.02C187.954 194.02 187.524 194.14 187.164 194.38C186.804 194.6 186.624 194.93 186.624 195.37C186.624 195.89 187.114 196.37 188.094 196.81L191.094 198.04C192.154 198.54 192.984 199.17 193.584 199.93C194.184 200.69 194.484 201.71 194.484 202.99C194.484 204.15 194.204 205.14 193.644 205.96C193.084 206.76 192.354 207.37 191.454 207.79C190.554 208.19 189.604 208.39 188.604 208.39ZM197.1 191.47L201.21 191.11V193.27C201.83 192.55 202.54 191.98 203.34 191.56C204.16 191.12 204.97 190.9 205.77 190.9C207.03 190.9 207.86 191.78 208.26 193.54C209.58 191.78 211.06 190.9 212.7 190.9C213.78 190.9 214.55 191.33 215.01 192.19C215.47 193.05 215.7 194.33 215.7 196.03V207.82L211.56 208.18V196.24C211.56 195.7 211.46 195.28 211.26 194.98C211.06 194.66 210.83 194.5 210.57 194.5C210.15 194.5 209.75 194.62 209.37 194.86C209.01 195.08 208.7 195.36 208.44 195.7V207.82L204.33 208.18V196.21C204.33 195.65 204.24 195.23 204.06 194.95C203.9 194.65 203.71 194.5 203.49 194.5C203.09 194.5 202.68 194.62 202.26 194.86C201.84 195.1 201.49 195.38 201.21 195.7V207.82L197.1 208.18V191.47ZM224.709 208.39C222.689 208.39 221.129 207.59 220.029 205.99C218.949 204.39 218.409 202.26 218.409 199.6C218.409 196.96 218.949 194.85 220.029 193.27C221.109 191.69 222.669 190.9 224.709 190.9C226.729 190.9 228.289 191.69 229.389 193.27C230.509 194.85 231.069 196.96 231.069 199.6C231.069 202.24 230.509 204.37 229.389 205.99C228.289 207.59 226.729 208.39 224.709 208.39ZM224.709 205.27C225.609 205.27 226.189 204.72 226.449 203.62C226.709 202.52 226.839 201.17 226.839 199.57C226.839 197.97 226.709 196.62 226.449 195.52C226.189 194.42 225.609 193.87 224.709 193.87C223.809 193.87 223.239 194.39 222.999 195.43C222.759 196.47 222.639 197.74 222.639 199.24C222.639 201.08 222.759 202.55 222.999 203.65C223.239 204.73 223.809 205.27 224.709 205.27Z" fill="black"/>
<path d="M302.148 198H296.762V180.545H302.387C304.08 180.545 305.529 180.895 306.734 181.594C307.938 182.287 308.862 183.284 309.504 184.585C310.146 185.881 310.467 187.432 310.467 189.239C310.467 191.057 310.143 192.622 309.495 193.935C308.847 195.241 307.904 196.247 306.665 196.952C305.427 197.651 303.921 198 302.148 198ZM298.876 196.125H302.012C303.455 196.125 304.651 195.847 305.6 195.29C306.549 194.733 307.256 193.94 307.722 192.912C308.188 191.884 308.421 190.659 308.421 189.239C308.421 187.83 308.191 186.616 307.731 185.599C307.271 184.577 306.583 183.793 305.668 183.247C304.754 182.696 303.614 182.42 302.251 182.42H298.876V196.125ZM319.228 198.273C317.967 198.273 316.879 197.994 315.964 197.438C315.055 196.875 314.353 196.091 313.859 195.085C313.37 194.074 313.126 192.898 313.126 191.557C313.126 190.216 313.37 189.034 313.859 188.011C314.353 186.983 315.04 186.182 315.921 185.608C316.808 185.028 317.842 184.739 319.023 184.739C319.705 184.739 320.379 184.852 321.043 185.08C321.708 185.307 322.313 185.676 322.859 186.188C323.404 186.693 323.839 187.364 324.163 188.199C324.487 189.034 324.648 190.062 324.648 191.284V192.136H314.558V190.398H322.603C322.603 189.659 322.455 189 322.16 188.42C321.87 187.841 321.455 187.384 320.915 187.048C320.381 186.713 319.751 186.545 319.023 186.545C318.222 186.545 317.529 186.744 316.944 187.142C316.364 187.534 315.918 188.045 315.606 188.676C315.293 189.307 315.137 189.983 315.137 190.705V191.864C315.137 192.852 315.308 193.69 315.648 194.378C315.995 195.06 316.475 195.58 317.089 195.938C317.702 196.29 318.415 196.466 319.228 196.466C319.756 196.466 320.234 196.392 320.66 196.244C321.092 196.091 321.464 195.864 321.776 195.562C322.089 195.256 322.33 194.875 322.501 194.42L324.444 194.966C324.239 195.625 323.896 196.205 323.413 196.705C322.93 197.199 322.333 197.585 321.623 197.864C320.913 198.136 320.114 198.273 319.228 198.273ZM336.981 187.841L335.174 188.352C335.06 188.051 334.893 187.759 334.671 187.474C334.455 187.185 334.16 186.946 333.785 186.759C333.41 186.571 332.93 186.477 332.344 186.477C331.543 186.477 330.876 186.662 330.342 187.031C329.813 187.395 329.549 187.858 329.549 188.42C329.549 188.92 329.731 189.315 330.094 189.605C330.458 189.895 331.026 190.136 331.799 190.33L333.742 190.807C334.913 191.091 335.785 191.526 336.359 192.111C336.933 192.69 337.219 193.437 337.219 194.352C337.219 195.102 337.004 195.773 336.572 196.364C336.146 196.955 335.549 197.42 334.782 197.761C334.015 198.102 333.123 198.273 332.106 198.273C330.771 198.273 329.665 197.983 328.79 197.403C327.915 196.824 327.362 195.977 327.129 194.864L329.038 194.386C329.219 195.091 329.563 195.619 330.069 195.972C330.58 196.324 331.248 196.5 332.072 196.5C333.009 196.5 333.754 196.301 334.305 195.903C334.862 195.5 335.14 195.017 335.14 194.455C335.14 194 334.981 193.619 334.663 193.312C334.344 193 333.856 192.767 333.197 192.614L331.015 192.102C329.816 191.818 328.935 191.378 328.373 190.781C327.816 190.179 327.538 189.426 327.538 188.523C327.538 187.784 327.745 187.131 328.16 186.562C328.58 185.994 329.151 185.548 329.873 185.224C330.6 184.901 331.424 184.739 332.344 184.739C333.64 184.739 334.657 185.023 335.396 185.591C336.14 186.159 336.668 186.909 336.981 187.841ZM344.099 198.307C343.27 198.307 342.517 198.151 341.841 197.838C341.165 197.52 340.628 197.062 340.23 196.466C339.832 195.864 339.634 195.136 339.634 194.284C339.634 193.534 339.781 192.926 340.077 192.46C340.372 191.989 340.767 191.619 341.261 191.352C341.756 191.085 342.301 190.886 342.898 190.756C343.5 190.619 344.105 190.511 344.713 190.432C345.509 190.33 346.153 190.253 346.648 190.202C347.148 190.145 347.511 190.051 347.739 189.92C347.972 189.79 348.088 189.562 348.088 189.239V189.17C348.088 188.33 347.858 187.676 347.398 187.21C346.943 186.744 346.253 186.511 345.327 186.511C344.366 186.511 343.614 186.722 343.068 187.142C342.523 187.562 342.139 188.011 341.918 188.489L340.009 187.807C340.349 187.011 340.804 186.392 341.372 185.949C341.946 185.5 342.571 185.187 343.247 185.011C343.929 184.83 344.599 184.739 345.259 184.739C345.679 184.739 346.162 184.79 346.707 184.892C347.259 184.989 347.79 185.19 348.301 185.497C348.818 185.804 349.247 186.267 349.588 186.886C349.929 187.506 350.099 188.335 350.099 189.375V198H348.088V196.227H347.986C347.849 196.511 347.622 196.815 347.304 197.139C346.986 197.463 346.563 197.739 346.034 197.966C345.506 198.193 344.861 198.307 344.099 198.307ZM344.406 196.5C345.202 196.5 345.872 196.344 346.418 196.031C346.969 195.719 347.384 195.315 347.662 194.821C347.946 194.327 348.088 193.807 348.088 193.261V191.42C348.003 191.523 347.815 191.616 347.526 191.702C347.241 191.781 346.912 191.852 346.537 191.915C346.168 191.972 345.807 192.023 345.455 192.068C345.108 192.108 344.827 192.142 344.611 192.17C344.088 192.239 343.599 192.349 343.145 192.503C342.696 192.651 342.332 192.875 342.054 193.176C341.781 193.472 341.645 193.875 341.645 194.386C341.645 195.085 341.903 195.614 342.42 195.972C342.943 196.324 343.605 196.5 344.406 196.5ZM353.771 198V184.909H355.714V186.886H355.85C356.089 186.239 356.521 185.713 357.146 185.31C357.771 184.906 358.475 184.705 359.259 184.705C359.407 184.705 359.592 184.707 359.813 184.713C360.035 184.719 360.202 184.727 360.316 184.739V186.784C360.248 186.767 360.092 186.741 359.847 186.707C359.609 186.668 359.356 186.648 359.089 186.648C358.452 186.648 357.884 186.781 357.384 187.048C356.89 187.31 356.498 187.673 356.208 188.139C355.924 188.599 355.782 189.125 355.782 189.716V198H353.771ZM362.7 198V184.909H364.643V186.886H364.78C365.018 186.239 365.45 185.713 366.075 185.31C366.7 184.906 367.405 184.705 368.189 184.705C368.337 184.705 368.521 184.707 368.743 184.713C368.964 184.719 369.132 184.727 369.246 184.739V186.784C369.178 186.767 369.021 186.741 368.777 186.707C368.538 186.668 368.286 186.648 368.018 186.648C367.382 186.648 366.814 186.781 366.314 187.048C365.82 187.31 365.428 187.673 365.138 188.139C364.854 188.599 364.712 189.125 364.712 189.716V198H362.7ZM376.55 198.273C375.368 198.273 374.331 197.991 373.439 197.429C372.553 196.866 371.859 196.08 371.359 195.068C370.865 194.057 370.618 192.875 370.618 191.523C370.618 190.159 370.865 188.969 371.359 187.952C371.859 186.935 372.553 186.145 373.439 185.582C374.331 185.02 375.368 184.739 376.55 184.739C377.732 184.739 378.766 185.02 379.652 185.582C380.544 186.145 381.237 186.935 381.732 187.952C382.232 188.969 382.482 190.159 382.482 191.523C382.482 192.875 382.232 194.057 381.732 195.068C381.237 196.08 380.544 196.866 379.652 197.429C378.766 197.991 377.732 198.273 376.55 198.273ZM376.55 196.466C377.447 196.466 378.186 196.236 378.766 195.776C379.345 195.315 379.774 194.71 380.053 193.96C380.331 193.21 380.47 192.398 380.47 191.523C380.47 190.648 380.331 189.832 380.053 189.077C379.774 188.321 379.345 187.71 378.766 187.244C378.186 186.778 377.447 186.545 376.55 186.545C375.652 186.545 374.913 186.778 374.334 187.244C373.754 187.71 373.325 188.321 373.047 189.077C372.768 189.832 372.629 190.648 372.629 191.523C372.629 192.398 372.768 193.21 373.047 193.96C373.325 194.71 373.754 195.315 374.334 195.776C374.913 196.236 375.652 196.466 376.55 196.466ZM387.563 180.545V198H385.552V180.545H387.563ZM393.259 180.545V198H391.247V180.545H393.259ZM402.261 198.273C401.079 198.273 400.042 197.991 399.15 197.429C398.263 196.866 397.57 196.08 397.07 195.068C396.576 194.057 396.329 192.875 396.329 191.523C396.329 190.159 396.576 188.969 397.07 187.952C397.57 186.935 398.263 186.145 399.15 185.582C400.042 185.02 401.079 184.739 402.261 184.739C403.442 184.739 404.477 185.02 405.363 185.582C406.255 186.145 406.948 186.935 407.442 187.952C407.942 188.969 408.192 190.159 408.192 191.523C408.192 192.875 407.942 194.057 407.442 195.068C406.948 196.08 406.255 196.866 405.363 197.429C404.477 197.991 403.442 198.273 402.261 198.273ZM402.261 196.466C403.158 196.466 403.897 196.236 404.477 195.776C405.056 195.315 405.485 194.71 405.763 193.96C406.042 193.21 406.181 192.398 406.181 191.523C406.181 190.648 406.042 189.832 405.763 189.077C405.485 188.321 405.056 187.71 404.477 187.244C403.897 186.778 403.158 186.545 402.261 186.545C401.363 186.545 400.624 186.778 400.045 187.244C399.465 187.71 399.036 188.321 398.758 189.077C398.479 189.832 398.34 190.648 398.34 191.523C398.34 192.398 398.479 193.21 398.758 193.96C399.036 194.71 399.465 195.315 400.045 195.776C400.624 196.236 401.363 196.466 402.261 196.466ZM427.286 187.841L425.479 188.352C425.365 188.051 425.197 187.759 424.976 187.474C424.76 187.185 424.464 186.946 424.089 186.759C423.714 186.571 423.234 186.477 422.649 186.477C421.848 186.477 421.18 186.662 420.646 187.031C420.118 187.395 419.854 187.858 419.854 188.42C419.854 188.92 420.036 189.315 420.399 189.605C420.763 189.895 421.331 190.136 422.104 190.33L424.047 190.807C425.217 191.091 426.089 191.526 426.663 192.111C427.237 192.69 427.524 193.437 427.524 194.352C427.524 195.102 427.308 195.773 426.876 196.364C426.45 196.955 425.854 197.42 425.087 197.761C424.32 198.102 423.428 198.273 422.411 198.273C421.075 198.273 419.97 197.983 419.095 197.403C418.22 196.824 417.666 195.977 417.433 194.864L419.342 194.386C419.524 195.091 419.868 195.619 420.374 195.972C420.885 196.324 421.553 196.5 422.376 196.5C423.314 196.5 424.058 196.301 424.609 195.903C425.166 195.5 425.445 195.017 425.445 194.455C425.445 194 425.286 193.619 424.967 193.312C424.649 193 424.161 192.767 423.501 192.614L421.32 192.102C420.121 191.818 419.24 191.378 418.678 190.781C418.121 190.179 417.842 189.426 417.842 188.523C417.842 187.784 418.05 187.131 418.464 186.562C418.885 185.994 419.456 185.548 420.178 185.224C420.905 184.901 421.729 184.739 422.649 184.739C423.945 184.739 424.962 185.023 425.7 185.591C426.445 186.159 426.973 186.909 427.286 187.841ZM435.87 198.273C434.688 198.273 433.651 197.991 432.759 197.429C431.873 196.866 431.18 196.08 430.68 195.068C430.185 194.057 429.938 192.875 429.938 191.523C429.938 190.159 430.185 188.969 430.68 187.952C431.18 186.935 431.873 186.145 432.759 185.582C433.651 185.02 434.688 184.739 435.87 184.739C437.052 184.739 438.086 185.02 438.972 185.582C439.864 186.145 440.558 186.935 441.052 187.952C441.552 188.969 441.802 190.159 441.802 191.523C441.802 192.875 441.552 194.057 441.052 195.068C440.558 196.08 439.864 196.866 438.972 197.429C438.086 197.991 437.052 198.273 435.87 198.273ZM435.87 196.466C436.768 196.466 437.506 196.236 438.086 195.776C438.665 195.315 439.094 194.71 439.373 193.96C439.651 193.21 439.79 192.398 439.79 191.523C439.79 190.648 439.651 189.832 439.373 189.077C439.094 188.321 438.665 187.71 438.086 187.244C437.506 186.778 436.768 186.545 435.87 186.545C434.972 186.545 434.234 186.778 433.654 187.244C433.075 187.71 432.646 188.321 432.367 189.077C432.089 189.832 431.95 190.648 431.95 191.523C431.95 192.398 432.089 193.21 432.367 193.96C432.646 194.71 433.075 195.315 433.654 195.776C434.234 196.236 434.972 196.466 435.87 196.466ZM450.19 198.273C448.963 198.273 447.906 197.983 447.02 197.403C446.134 196.824 445.452 196.026 444.974 195.009C444.497 193.991 444.259 192.83 444.259 191.523C444.259 190.193 444.503 189.02 444.991 188.003C445.486 186.98 446.173 186.182 447.054 185.608C447.94 185.028 448.974 184.739 450.156 184.739C451.077 184.739 451.906 184.909 452.645 185.25C453.384 185.591 453.989 186.068 454.46 186.682C454.932 187.295 455.224 188.011 455.338 188.83H453.327C453.173 188.233 452.832 187.705 452.304 187.244C451.781 186.778 451.077 186.545 450.19 186.545C449.406 186.545 448.719 186.75 448.128 187.159C447.543 187.562 447.085 188.134 446.756 188.872C446.432 189.605 446.27 190.466 446.27 191.455C446.27 192.466 446.429 193.347 446.747 194.097C447.071 194.847 447.526 195.429 448.111 195.844C448.702 196.259 449.395 196.466 450.19 196.466C450.713 196.466 451.188 196.375 451.614 196.193C452.04 196.011 452.401 195.75 452.696 195.409C452.991 195.068 453.202 194.659 453.327 194.182H455.338C455.224 194.955 454.943 195.651 454.494 196.27C454.051 196.884 453.463 197.372 452.73 197.736C452.003 198.094 451.156 198.273 450.19 198.273ZM458.278 198V184.909H460.29V198H458.278ZM459.301 182.727C458.909 182.727 458.571 182.594 458.287 182.327C458.009 182.06 457.869 181.739 457.869 181.364C457.869 180.989 458.009 180.668 458.287 180.401C458.571 180.134 458.909 180 459.301 180C459.693 180 460.028 180.134 460.307 180.401C460.591 180.668 460.733 180.989 460.733 181.364C460.733 181.739 460.591 182.06 460.307 182.327C460.028 182.594 459.693 182.727 459.301 182.727ZM467.826 198.307C466.996 198.307 466.244 198.151 465.567 197.838C464.891 197.52 464.354 197.062 463.957 196.466C463.559 195.864 463.36 195.136 463.36 194.284C463.36 193.534 463.508 192.926 463.803 192.46C464.099 191.989 464.494 191.619 464.988 191.352C465.482 191.085 466.028 190.886 466.624 190.756C467.227 190.619 467.832 190.511 468.44 190.432C469.235 190.33 469.88 190.253 470.374 190.202C470.874 190.145 471.238 190.051 471.465 189.92C471.698 189.79 471.815 189.562 471.815 189.239V189.17C471.815 188.33 471.585 187.676 471.124 187.21C470.67 186.744 469.979 186.511 469.053 186.511C468.093 186.511 467.34 186.722 466.795 187.142C466.249 187.562 465.866 188.011 465.644 188.489L463.735 187.807C464.076 187.011 464.531 186.392 465.099 185.949C465.673 185.5 466.298 185.187 466.974 185.011C467.656 184.83 468.326 184.739 468.985 184.739C469.406 184.739 469.888 184.79 470.434 184.892C470.985 184.989 471.516 185.19 472.028 185.497C472.545 185.804 472.974 186.267 473.315 186.886C473.656 187.506 473.826 188.335 473.826 189.375V198H471.815V196.227H471.712C471.576 196.511 471.349 196.815 471.031 197.139C470.712 197.463 470.289 197.739 469.761 197.966C469.232 198.193 468.587 198.307 467.826 198.307ZM468.133 196.5C468.928 196.5 469.599 196.344 470.144 196.031C470.695 195.719 471.11 195.315 471.388 194.821C471.673 194.327 471.815 193.807 471.815 193.261V191.42C471.729 191.523 471.542 191.616 471.252 191.702C470.968 191.781 470.638 191.852 470.263 191.915C469.894 191.972 469.533 192.023 469.181 192.068C468.835 192.108 468.553 192.142 468.337 192.17C467.815 192.239 467.326 192.349 466.871 192.503C466.423 192.651 466.059 192.875 465.781 193.176C465.508 193.472 465.371 193.875 465.371 194.386C465.371 195.085 465.63 195.614 466.147 195.972C466.67 196.324 467.332 196.5 468.133 196.5ZM479.509 180.545V198H477.497V180.545H479.509Z" fill="black"/>
<path d="M575.159 184.742H573.045C572.92 184.134 572.702 183.6 572.389 183.14C572.082 182.68 571.707 182.293 571.264 181.981C570.827 181.663 570.341 181.424 569.807 181.265C569.273 181.106 568.716 181.026 568.136 181.026C567.08 181.026 566.122 181.293 565.264 181.827C564.412 182.362 563.733 183.148 563.227 184.188C562.727 185.228 562.477 186.504 562.477 188.015C562.477 189.526 562.727 190.802 563.227 191.842C563.733 192.881 564.412 193.668 565.264 194.202C566.122 194.737 567.08 195.004 568.136 195.004C568.716 195.004 569.273 194.924 569.807 194.765C570.341 194.606 570.827 194.37 571.264 194.058C571.707 193.739 572.082 193.35 572.389 192.89C572.702 192.424 572.92 191.89 573.045 191.288H575.159C575 192.18 574.71 192.978 574.29 193.683C573.869 194.387 573.347 194.987 572.722 195.481C572.097 195.969 571.395 196.342 570.616 196.597C569.844 196.853 569.017 196.981 568.136 196.981C566.648 196.981 565.324 196.617 564.165 195.89C563.006 195.163 562.094 194.129 561.429 192.788C560.764 191.447 560.432 189.856 560.432 188.015C560.432 186.174 560.764 184.583 561.429 183.242C562.094 181.901 563.006 180.867 564.165 180.14C565.324 179.413 566.648 179.049 568.136 179.049C569.017 179.049 569.844 179.177 570.616 179.433C571.395 179.688 572.097 180.063 572.722 180.558C573.347 181.046 573.869 181.643 574.29 182.347C574.71 183.046 575 183.844 575.159 184.742ZM582.154 197.049C581.325 197.049 580.572 196.893 579.896 196.58C579.219 196.262 578.683 195.805 578.285 195.208C577.887 194.606 577.688 193.879 577.688 193.026C577.688 192.276 577.836 191.668 578.131 191.202C578.427 190.731 578.822 190.362 579.316 190.094C579.81 189.827 580.356 189.629 580.952 189.498C581.555 189.362 582.16 189.254 582.768 189.174C583.563 189.072 584.208 188.995 584.702 188.944C585.202 188.887 585.566 188.793 585.793 188.663C586.026 188.532 586.143 188.305 586.143 187.981V187.913C586.143 187.072 585.913 186.418 585.452 185.952C584.998 185.487 584.308 185.254 583.381 185.254C582.421 185.254 581.668 185.464 581.123 185.884C580.577 186.305 580.194 186.754 579.972 187.231L578.063 186.549C578.404 185.754 578.859 185.134 579.427 184.691C580.001 184.242 580.626 183.93 581.302 183.754C581.984 183.572 582.654 183.481 583.313 183.481C583.734 183.481 584.217 183.532 584.762 183.634C585.313 183.731 585.844 183.933 586.356 184.239C586.873 184.546 587.302 185.009 587.643 185.629C587.984 186.248 588.154 187.077 588.154 188.117V196.742H586.143V194.969H586.04C585.904 195.254 585.677 195.558 585.359 195.881C585.04 196.205 584.617 196.481 584.089 196.708C583.56 196.935 582.915 197.049 582.154 197.049ZM582.461 195.242C583.256 195.242 583.927 195.086 584.472 194.773C585.023 194.461 585.438 194.058 585.717 193.563C586.001 193.069 586.143 192.549 586.143 192.004V190.163C586.058 190.265 585.87 190.359 585.58 190.444C585.296 190.523 584.967 190.594 584.592 190.657C584.222 190.714 583.862 190.765 583.509 190.81C583.163 190.85 582.881 190.884 582.665 190.913C582.143 190.981 581.654 191.092 581.2 191.245C580.751 191.393 580.387 191.617 580.109 191.918C579.836 192.214 579.7 192.617 579.7 193.129C579.7 193.827 579.958 194.356 580.475 194.714C580.998 195.066 581.66 195.242 582.461 195.242ZM591.825 201.651V183.651H593.768V185.731H594.007C594.155 185.504 594.359 185.214 594.621 184.862C594.888 184.504 595.268 184.185 595.763 183.907C596.263 183.623 596.939 183.481 597.791 183.481C598.893 183.481 599.865 183.756 600.706 184.308C601.547 184.859 602.203 185.64 602.675 186.651C603.146 187.663 603.382 188.856 603.382 190.231C603.382 191.617 603.146 192.819 602.675 193.836C602.203 194.847 601.55 195.631 600.714 196.188C599.879 196.739 598.916 197.015 597.825 197.015C596.984 197.015 596.311 196.876 595.805 196.597C595.3 196.313 594.911 195.992 594.638 195.634C594.365 195.271 594.155 194.969 594.007 194.731H593.837V201.651H591.825ZM593.803 190.197C593.803 191.185 593.947 192.058 594.237 192.813C594.527 193.563 594.95 194.151 595.507 194.577C596.064 194.998 596.746 195.208 597.553 195.208C598.393 195.208 599.095 194.987 599.658 194.543C600.226 194.094 600.652 193.492 600.936 192.737C601.226 191.975 601.371 191.129 601.371 190.197C601.371 189.276 601.229 188.447 600.945 187.708C600.666 186.964 600.243 186.376 599.675 185.944C599.112 185.506 598.405 185.288 597.553 185.288C596.734 185.288 596.047 185.495 595.49 185.91C594.933 186.319 594.513 186.893 594.229 187.631C593.945 188.364 593.803 189.219 593.803 190.197ZM610.303 197.049C609.473 197.049 608.72 196.893 608.044 196.58C607.368 196.262 606.831 195.805 606.433 195.208C606.036 194.606 605.837 193.879 605.837 193.026C605.837 192.276 605.984 191.668 606.28 191.202C606.575 190.731 606.97 190.362 607.464 190.094C607.959 189.827 608.504 189.629 609.101 189.498C609.703 189.362 610.308 189.254 610.916 189.174C611.712 189.072 612.357 188.995 612.851 188.944C613.351 188.887 613.714 188.793 613.942 188.663C614.175 188.532 614.291 188.305 614.291 187.981V187.913C614.291 187.072 614.061 186.418 613.601 185.952C613.146 185.487 612.456 185.254 611.53 185.254C610.57 185.254 609.817 185.464 609.271 185.884C608.726 186.305 608.342 186.754 608.121 187.231L606.212 186.549C606.553 185.754 607.007 185.134 607.575 184.691C608.149 184.242 608.774 183.93 609.45 183.754C610.132 183.572 610.803 183.481 611.462 183.481C611.882 183.481 612.365 183.532 612.911 183.634C613.462 183.731 613.993 183.933 614.504 184.239C615.021 184.546 615.45 185.009 615.791 185.629C616.132 186.248 616.303 187.077 616.303 188.117V196.742H614.291V194.969H614.189C614.053 195.254 613.825 195.558 613.507 195.881C613.189 196.205 612.766 196.481 612.237 196.708C611.709 196.935 611.064 197.049 610.303 197.049ZM610.609 195.242C611.405 195.242 612.075 195.086 612.621 194.773C613.172 194.461 613.587 194.058 613.865 193.563C614.149 193.069 614.291 192.549 614.291 192.004V190.163C614.206 190.265 614.018 190.359 613.729 190.444C613.445 190.523 613.115 190.594 612.74 190.657C612.371 190.714 612.01 190.765 611.658 190.81C611.311 190.85 611.03 190.884 610.814 190.913C610.291 190.981 609.803 191.092 609.348 191.245C608.899 191.393 608.536 191.617 608.257 191.918C607.984 192.214 607.848 192.617 607.848 193.129C607.848 193.827 608.107 194.356 608.624 194.714C609.146 195.066 609.808 195.242 610.609 195.242ZM625.292 197.015C624.065 197.015 623.008 196.725 622.121 196.146C621.235 195.566 620.553 194.768 620.076 193.751C619.599 192.734 619.36 191.572 619.36 190.265C619.36 188.935 619.604 187.762 620.093 186.745C620.587 185.722 621.275 184.924 622.156 184.35C623.042 183.771 624.076 183.481 625.258 183.481C626.178 183.481 627.008 183.651 627.746 183.992C628.485 184.333 629.09 184.81 629.562 185.424C630.033 186.038 630.326 186.754 630.44 187.572H628.428C628.275 186.975 627.934 186.447 627.406 185.987C626.883 185.521 626.178 185.288 625.292 185.288C624.508 185.288 623.82 185.492 623.229 185.901C622.644 186.305 622.187 186.876 621.857 187.614C621.533 188.347 621.371 189.208 621.371 190.197C621.371 191.208 621.531 192.089 621.849 192.839C622.173 193.589 622.627 194.171 623.212 194.586C623.803 195.001 624.496 195.208 625.292 195.208C625.815 195.208 626.289 195.117 626.715 194.935C627.141 194.754 627.502 194.492 627.798 194.151C628.093 193.81 628.303 193.401 628.428 192.924H630.44C630.326 193.697 630.045 194.393 629.596 195.012C629.153 195.626 628.565 196.114 627.832 196.478C627.104 196.836 626.258 197.015 625.292 197.015ZM633.38 196.742V183.651H635.391V196.742H633.38ZM634.403 181.469C634.011 181.469 633.673 181.336 633.388 181.069C633.11 180.802 632.971 180.481 632.971 180.106C632.971 179.731 633.11 179.41 633.388 179.143C633.673 178.876 634.011 178.742 634.403 178.742C634.795 178.742 635.13 178.876 635.408 179.143C635.692 179.41 635.835 179.731 635.835 180.106C635.835 180.481 635.692 180.802 635.408 181.069C635.13 181.336 634.795 181.469 634.403 181.469ZM644.768 183.651V185.356H637.984V183.651H644.768ZM639.962 180.515H641.973V192.992C641.973 193.56 642.055 193.987 642.22 194.271C642.391 194.549 642.607 194.737 642.868 194.833C643.135 194.924 643.416 194.969 643.712 194.969C643.933 194.969 644.115 194.958 644.257 194.935C644.399 194.907 644.513 194.884 644.598 194.867L645.007 196.674C644.871 196.725 644.68 196.776 644.436 196.827C644.192 196.884 643.882 196.913 643.507 196.913C642.939 196.913 642.382 196.79 641.837 196.546C641.297 196.302 640.848 195.93 640.49 195.43C640.138 194.93 639.962 194.299 639.962 193.538V180.515ZM651.646 197.049C650.817 197.049 650.064 196.893 649.388 196.58C648.712 196.262 648.175 195.805 647.777 195.208C647.379 194.606 647.18 193.879 647.18 193.026C647.18 192.276 647.328 191.668 647.624 191.202C647.919 190.731 648.314 190.362 648.808 190.094C649.303 189.827 649.848 189.629 650.445 189.498C651.047 189.362 651.652 189.254 652.26 189.174C653.055 189.072 653.7 188.995 654.195 188.944C654.695 188.887 655.058 188.793 655.286 188.663C655.518 188.532 655.635 188.305 655.635 187.981V187.913C655.635 187.072 655.405 186.418 654.945 185.952C654.49 185.487 653.8 185.254 652.874 185.254C651.913 185.254 651.161 185.464 650.615 185.884C650.07 186.305 649.686 186.754 649.464 187.231L647.555 186.549C647.896 185.754 648.351 185.134 648.919 184.691C649.493 184.242 650.118 183.93 650.794 183.754C651.476 183.572 652.146 183.481 652.805 183.481C653.226 183.481 653.709 183.532 654.254 183.634C654.805 183.731 655.337 183.933 655.848 184.239C656.365 184.546 656.794 185.009 657.135 185.629C657.476 186.248 657.646 187.077 657.646 188.117V196.742H655.635V194.969H655.533C655.396 195.254 655.169 195.558 654.851 195.881C654.533 196.205 654.109 196.481 653.581 196.708C653.053 196.935 652.408 197.049 651.646 197.049ZM651.953 195.242C652.749 195.242 653.419 195.086 653.964 194.773C654.516 194.461 654.93 194.058 655.209 193.563C655.493 193.069 655.635 192.549 655.635 192.004V190.163C655.55 190.265 655.362 190.359 655.072 190.444C654.788 190.523 654.459 190.594 654.084 190.657C653.714 190.714 653.354 190.765 653.001 190.81C652.655 190.85 652.374 190.884 652.158 190.913C651.635 190.981 651.146 191.092 650.692 191.245C650.243 191.393 649.879 191.617 649.601 191.918C649.328 192.214 649.192 192.617 649.192 193.129C649.192 193.827 649.45 194.356 649.967 194.714C650.49 195.066 651.152 195.242 651.953 195.242ZM666.636 197.015C665.408 197.015 664.352 196.725 663.465 196.146C662.579 195.566 661.897 194.768 661.42 193.751C660.942 192.734 660.704 191.572 660.704 190.265C660.704 188.935 660.948 187.762 661.437 186.745C661.931 185.722 662.619 184.924 663.499 184.35C664.386 183.771 665.42 183.481 666.602 183.481C667.522 183.481 668.352 183.651 669.09 183.992C669.829 184.333 670.434 184.81 670.906 185.424C671.377 186.038 671.67 186.754 671.783 187.572H669.772C669.619 186.975 669.278 186.447 668.749 185.987C668.227 185.521 667.522 185.288 666.636 185.288C665.852 185.288 665.164 185.492 664.573 185.901C663.988 186.305 663.531 186.876 663.201 187.614C662.877 188.347 662.715 189.208 662.715 190.197C662.715 191.208 662.874 192.089 663.192 192.839C663.516 193.589 663.971 194.171 664.556 194.586C665.147 195.001 665.84 195.208 666.636 195.208C667.158 195.208 667.633 195.117 668.059 194.935C668.485 194.754 668.846 194.492 669.141 194.151C669.437 193.81 669.647 193.401 669.772 192.924H671.783C671.67 193.697 671.388 194.393 670.94 195.012C670.496 195.626 669.908 196.114 669.175 196.478C668.448 196.836 667.602 197.015 666.636 197.015ZM674.724 196.742V183.651H676.735V196.742H674.724ZM675.746 181.469C675.354 181.469 675.016 181.336 674.732 181.069C674.454 180.802 674.315 180.481 674.315 180.106C674.315 179.731 674.454 179.41 674.732 179.143C675.016 178.876 675.354 178.742 675.746 178.742C676.138 178.742 676.474 178.876 676.752 179.143C677.036 179.41 677.178 179.731 677.178 180.106C677.178 180.481 677.036 180.802 676.752 181.069C676.474 181.336 676.138 181.469 675.746 181.469ZM685.737 197.015C684.555 197.015 683.518 196.734 682.626 196.171C681.74 195.609 681.047 194.822 680.547 193.81C680.053 192.799 679.805 191.617 679.805 190.265C679.805 188.901 680.053 187.711 680.547 186.694C681.047 185.677 681.74 184.887 682.626 184.325C683.518 183.762 684.555 183.481 685.737 183.481C686.919 183.481 687.953 183.762 688.839 184.325C689.732 184.887 690.425 185.677 690.919 186.694C691.419 187.711 691.669 188.901 691.669 190.265C691.669 191.617 691.419 192.799 690.919 193.81C690.425 194.822 689.732 195.609 688.839 196.171C687.953 196.734 686.919 197.015 685.737 197.015ZM685.737 195.208C686.635 195.208 687.374 194.978 687.953 194.518C688.533 194.058 688.962 193.452 689.24 192.702C689.518 191.952 689.658 191.14 689.658 190.265C689.658 189.39 689.518 188.575 689.24 187.819C688.962 187.063 688.533 186.452 687.953 185.987C687.374 185.521 686.635 185.288 685.737 185.288C684.839 185.288 684.101 185.521 683.521 185.987C682.942 186.452 682.513 187.063 682.234 187.819C681.956 188.575 681.817 189.39 681.817 190.265C681.817 191.14 681.956 191.952 682.234 192.702C682.513 193.452 682.942 194.058 683.521 194.518C684.101 194.978 684.839 195.208 685.737 195.208ZM684.817 181.879L686.896 177.924H689.249L686.589 181.879H684.817ZM696.751 188.867V196.742H694.739V183.651H696.683V185.697H696.853C697.16 185.032 697.626 184.498 698.251 184.094C698.876 183.685 699.683 183.481 700.671 183.481C701.558 183.481 702.333 183.663 702.998 184.026C703.663 184.384 704.18 184.93 704.549 185.663C704.918 186.39 705.103 187.31 705.103 188.424V196.742H703.092V188.56C703.092 187.532 702.825 186.731 702.29 186.157C701.756 185.577 701.023 185.288 700.092 185.288C699.45 185.288 698.876 185.427 698.37 185.705C697.87 185.984 697.475 186.39 697.185 186.924C696.896 187.458 696.751 188.106 696.751 188.867Z" fill="black"/>
<defs>
<filter id="filter0_d_1141_260" x="0" y="0" width="277" height="276" filterUnits="userSpaceOnUse" color-interpolation-filters="sRGB">
<feFlood flood-opacity="0" result="BackgroundImageFix"/>
<feColorMatrix in="SourceAlpha" type="matrix" values="0 0 0 0 0 0 0 0 0 0 0 0 0 0 0 0 0 0 127 0" result="hardAlpha"/>
<feOffset dy="4"/>
<feGaussianBlur stdDeviation="2"/>
<feComposite in2="hardAlpha" operator="out"/>
<feColorMatrix type="matrix" values="0 0 0 0 0 0 0 0 0 0 0 0 0 0 0 0 0 0 0.25 0"/>
<feBlend mode="normal" in2="BackgroundImageFix" result="effect1_dropShadow_1141_260"/>
<feBlend mode="normal" in="SourceGraphic" in2="effect1_dropShadow_1141_260" result="shape"/>
</filter>
</defs>
</svg>
